<mxfile host="app.diagrams.net" agent="Mozilla/5.0 (Macintosh; Intel Mac OS X 10_15_7) AppleWebKit/537.36 (KHTML, like Gecko) Chrome/140.0.0.0 Safari/537.36" version="28.1.2">
  <diagram name="Page-1" id="I_eUXA8QRdnKSpsPcEFd">
    <mxGraphModel dx="3039" dy="2125" grid="0" gridSize="10" guides="0" tooltips="1" connect="1" arrows="1" fold="1" page="0" pageScale="1" pageWidth="2000" pageHeight="1000" math="0" shadow="0">
      <root>
        <mxCell id="0" />
        <mxCell id="1" parent="0" />
        <mxCell id="HSzltY3X0y76gQs0_PpO-121" style="edgeStyle=orthogonalEdgeStyle;rounded=0;orthogonalLoop=1;jettySize=auto;html=1;entryX=1;entryY=0.5;entryDx=0;entryDy=0;" edge="1" parent="1" source="HSzltY3X0y76gQs0_PpO-30" target="HSzltY3X0y76gQs0_PpO-97">
          <mxGeometry relative="1" as="geometry">
            <Array as="points">
              <mxPoint x="3710" y="276" />
            </Array>
          </mxGeometry>
        </mxCell>
        <mxCell id="HSzltY3X0y76gQs0_PpO-30" value="" style="rounded=0;whiteSpace=wrap;html=1;" vertex="1" parent="1">
          <mxGeometry x="3680" y="-565" width="380" height="450" as="geometry" />
        </mxCell>
        <mxCell id="HSzltY3X0y76gQs0_PpO-1" value="" style="shape=image;verticalLabelPosition=bottom;labelBackgroundColor=default;verticalAlign=top;aspect=fixed;imageAspect=0;image=data:image/png,iVBORw0KGgoAAAANSUhEUgAAAOcAAACUCAMAAABfnM59AAAAclBMVEX///8AAADh4eLT09OEhYifoKEfHh5vcHSAgYOPj5BUVVcSEhLLy8vx8fFEREQSERNAQUSlpaUaGhqWlphJSUu/v781NjhrbG40NDP4+Pg6Oz1VVFrn5+dlZWcuLzFPUFJ4eHooKCuwsLJdXWAFCA4iISafEWrhAAADVklEQVR4nO2dW5OiMBBGjSSG6yhqRBguAfX//8WF0ZqLMzs24q7p6j6PGL/KqQ5J9KVnM4ZhGAYzeVLOx1KWSf7seY8jiWPTpWoknYljD5Op2Uhd9WQf6L/wacgw3g8282fPHowq6rYe2L1RFKvfKIpi907/xVX37PlDyGd5UO/CSCzb/Zm1uMniPLJuhWib1QmF6MyETRbVNo0vu4u8qRml55FenFZRXW0r79kOAErZ2HVhPraTLrpZzvJ9cKKilX5VyTNmPo640mFkPj3w9rc86897rDrqMHC/oElq7dr/8ujmwjVfAsKd1PF/nfM9JBtZiaujQTUvv3AwX0cHQmax8wu3DPyD+DbL5Beux3bCt6a8fuoaXuCHy0kJJtK2Q+Bpw2hawkL7qfOXor6ezWRPqUh4Zj57usKwDxFZt2Q8p50reDxp1NOSOFcMkXoaxZ4wkHimNPZbKu8nnXNlumeGxHPq+4nBMyZSz25D4/006gH/m6DwJHJ+UrkPsScQ9nQJ9oSCxJPIPeER9z4Mnv09/pXCPYE9wQns6RDsCU5gT4eg9H8f1xOUgMaT6wlKQOPJ9QQloPHkeoIS0HhyPUEJaDy5nqAE9nQI9gQnsKdDsCc4gT0dgpAnlf/72BOWwJ4OwZ7gBCyeZH5/UvEkck+g4kllH2JPWAIaT34/QQloPLmeoAT2dAj2BCewp0OwJzgBiyeV3ytkPHndghLQeHI9QQloPLmeoAQ0nlxPUAJ7OgR7ghPY0yHYE5yAxpPK+UnFk9ctKAGNJ9cTlMCeDkHJ8zgtgT0dgpInlXOFiieV/ZbrCUpA48n1BCUg8XxEPx0UntP7HrCnMzxkH8LgufEPk/chBP2uSiV/6NM2Bm9hbee8Z6Jkdt13bxypCDL3+9ElyreiG/qd3otdBJVxvktv3mV+0UxYuN7+oK25Pe7ZeFllhby7HmUVyRfp/LKd5Xmws43I7uxUarZCh0362Dn9G8rsqLdCrK1MRyIrIUTYtPbZCjDmWRsuPrq1Hpc9Uc/6O8Pz4ePleeRxKeqm1s5vQhfmwaFq2tPp1LZ1vR8aaL910N5+5+XcQHtonF23PbtKawxNiC8kXhoopTYjGb7RIWr8ng/b0Tz+Ee/SKftn5vm/svwDo4xYp7K8kDUAAAAASUVORK5CYII=;" vertex="1" parent="1">
          <mxGeometry x="82" y="-715" width="187.3" height="120" as="geometry" />
        </mxCell>
        <mxCell id="HSzltY3X0y76gQs0_PpO-3" value="" style="shape=image;verticalLabelPosition=bottom;labelBackgroundColor=default;verticalAlign=top;aspect=fixed;imageAspect=0;image=data:image/jpeg,/9j/4AAQSkZJRgABAQAAAQABAAD/2wCEAAkGBxMTEhATEhMWExUSGBcWFhcXGRYaEhYVFhIWFxUVFxUYHSggGRslHxYVIT0iJSkrLi4uFx8zODMtNygtLisBCgoKDg0OFQ8PFTceFRktLSsrKysrNystKy4tKysrNzMtNzU3LSs4LSs3LTUrLTc3KystLSsrKy0tKy0rLSsrLf/AABEIAKsBJwMBIgACEQEDEQH/xAAcAAEAAQUBAQAAAAAAAAAAAAAABAECAwUGBwj/xABDEAABAwEFBAcDCgQGAwEAAAABAAIRAwQSITFBBQZRYRMiUnGBkaEHMtFCU2JykqKxwdLwFCOT0xVDY4Ky8VRzwzP/xAAWAQEBAQAAAAAAAAAAAAAAAAAAAQL/xAAiEQEAAgEDBAMBAAAAAAAAAAAAARESArHwUmHR8UFRkTH/2gAMAwEAAhEDEQA/APcUREBERAREQEREBERAREQEREBERARYLdbadFjqlV4YxubjkOHedI1XJv8AaZYg6AKzh2gwXfIuDvRB2aLnLHvzYKmVoaw/6gcz1cAPVb2zWplQXqb2vHFrg4eYQZkREBERAREQEREBERAREQEREBERAREQEREBERAREQFp21bTAh1Fw0dJxxgTgBjy/wC9woI2RRw6mU6unEAGcccggxNdaJgvoyCDdF6S0kzM4jIAeOcQcjBXv+9TLJJyN8txgAiAPk4458saHYlDE3JJxJJcTPHE5rG3ZlN8NeLwokNaDrDGOBdxMk+ali2kbSSQalHAtkAG8MMROk9XMH3u5T6NWGAvc28B1y33ZA6xE6YFRmbEs4ypjIjUmCIOJKpV2JRIAukQZwJnIYEnMYDyVGxREQFhtlqZSp1KtRwaym1z3uOTWtBLie4Aq+rVa1rnOIa1oJJJgAASSToF5Lvh7QHV21aFnbcpOMF+PSVGaiPkg+ccJIQaffTet9tqYS2gw/y2HM/6jx2j6DDiTzZcqqwlFXtcNZH4K+k8tN5joI1BuuHjgVgRB0Fj3ut9GLtoqR9OHjumoD6Lf2H2p2lv/wCtKlUHK8x3n1h6LgWuIyw7ld0h1x7wJ880Hrth9qVmdAq0qtM8RdeweIIP3V0Fh3wsNWLtppgnR56M90PheBXxw8j8ZVcOPmPhKD6WpvDgC0gg6jEeauXzbZbRUpmaVRzDxY8td6EFb2wb92+nEVzUHCo1rp/3Re9UR7qi8w2T7VHSBaaLbur6Ugjn0biZ+0vTabw4BzTIcAQdCCJBQXIiICIiAiIgIiICIiAiIgIiICIiAiIgKKG1GufdawhxkS4g+40ZXDw4qUizMX8iNfq9hn9R39tL9XsM/qO/tqSimM9W3hKRr9XsM/qO/tpfq9hn9R39tSV51vh7RAw1aFlAc4C6a09Vrp61xsdaOMxOhVxnq28FNNvrvm21joab3NotPWLAHNqkHAhxc0lgI4YnHHBcaW0u3U/pt/uqOX8VRzoTGerbwqTcpdup/Tb/AHVY+nSgw586SxoHnfKi03Em9lwH5kfkcu9VfagDBAPd8Gn8kqfvYXFnNUulXhzD2h5H0N2FW5wc08sQfvAD1WlYkWVzHASQY45t88ljDggoirgkc0BoSVRzlA2sahZcogue+QAJvkAEuugch+8EG1sFjNoqdEJDGgGq4aNOTAe070Engvo+wtinSAwAY0fdC8R3U2N/CWZtNxBeZe8jK8QMBxgACeS9Y3V3joWtjm0ib1GGva4QeAcNC0wfzhEb1ERAREQEREBERAREQEREBFQrVUH1TI6amQ2AYgm9daTJgDJ17LVumYbZFpnV6oLL1elJcAAIAdeD4bBBPZOB0PjIBqw8irTIJlhMRBqdUGBwN3nhkQSQ2KLVP6dxNytSzJaAMbuBZOc4ZxGazPp2icHsiOHyrrY8LwdrkdDignoomzxWg9MW4xdAzA1k5E9yloCIuX3p32oWS/TB6SuGyGCboJyvuyHGM47wg0HtH3zu3rJZndbKtUB9zjTae1xOmWeXlsKtV8uc6AC5znGBAlzi4nzJVkoqqxTe+qPvHj3firXG8YGQ948foj8/3F73wP8AuPMDBBStUjv4TB8FhpU5Mu8OPj+45cVPrEnLQ4jHlgIOmqzoEqkoqIi5ryDIMHiM1kFocc4d9YAn7Rx9VhVSY/foik/vxySVbKILa1UNBc4wAJK6jdXZRpg16oirUGDTnTp5hn1jmfAaLkd07NVtNrNRwIo0CCWn3S4A3BwLpN7wHJeiWqtGAzKqMrqgM8Bn8FuPZDs5zf4ms8dZ91pOgMlxYOYkEn6QGi5mwUKlorMs9H3n4udoxo957u71JA1Xq9j2S6i1lOg8NpMAAaRLj2jMQCTJmJlxOODVBt0Wvp2av1b1YESCYaBIBBiRxxHiOBvY2UbQ1l01m3sA1xaDPVMyIxM/8Z5INoi17rNaPngP9jTOcDLDT950dZq8Nu1hIDQbzQZIu3jpnB+1pCDYotabLaBJFYTiQCBxyLo55gcMIELYUgYF7EwJOhMYoLkREBERAREQUIUR2yqJAaaYIBvCZJvGJMnGcFMRBr7Rs+i0A9GDJY3WSDUMSdYNR5x7R4q//CqPX6g6928cZcWzBJnE4k+Kz2umXNhsSC044DqvDs4PBW36vYZ9s/oWZ1VPZFlm2bTpuLmtgnUkk5AanlPfJUtR79XsM+2f0Jfq9hn2z+hM45BaQij36vYZ9s/oUPbG1v4ak+tVDGtb9Mkk6NaLmJPBMo5BbS7+73ixs6OkQbRUHV1FNpw6Rw48Br3BeK1apcS5xLnOJJJMkkmSSTmVJtFYVHOqVa9SpUeZe802guPcKkAaADIABRqwYIuuc7vaG/g4pGqJ9KxkrFUJJujPU8B8f331qVNBmcuA5nkjQGj1JOZPErSmDRwAUc9aJE4/7QOOfdor3STqPIgd4nNXsZGXf4oKkgDuVnSnMxHABzvUfBKgOhgj94hYw1wmABPAwJ4xGCDJTrSSCI/eo0WVRmh0QYA1jEnxgR5LO0oLssfJWFZqTmY373K6QPOR3K+9R4VfNnwWZ1V8IjKlnszq9QUWEiRNR4+Qzl9I5DxOixbQ2nZqRa0trOc7QFkx5LsNh2GnQpYB95/XeXFt8uIyMDTKOSZdi2woUmUmBrGhrWgAAcgB44AeS11ttEScSTgAMTyAA1KlV7QzW9A5j4LotwN3+meLYQbtMkUg/FrnDA1ABGDTIHOToFcuxbp9xN3P4SjeqD+fWh1Q9kfJpg8px4knSF0ywRV4s8nfFIq8WeTvipl2S2dYLVnT+uP+LkirxZ5O+KtNJ5LbxbDTOAM5EceakzcfwSURFtRERAREQEREBERAREQEREBERBpd6t4qdiomo/rOdIp056z3fk0anTvIB8K2rtSraajqtZ5c5xmMbreAa3QAYLLvXt02q22ovdjSqPpNYfkMpvLWwOcXp4krWoCx1XxzJwA4lZJVEVjpsjPEnM/kOQWOpU5YcwYOGh/7WdwBzVopgZYfh5ZIiymzXXvJidFerrqoUFCFSFUlEVaGIVc46K1BRW1HgAkmAMSVc9wAJJgDEnQBZdi2AWmpJg0KRBccxUfmGDi0ZnwHFBJ3e3ea9zbXWbDpmmyBg0DqPfxdry6q6Ou/RZq9SAtZWe5xaxgLnvIa1ozLiYDQqidsHZDrbaG0WyGN61Vw+Sycge07IeJ0K9ss1nbTYxjGhrGANa0ZBoEABajdDd9tjoBmDqj+tVf2nkZD6IyHnmSt4oCIiAiIgIiICIiAiIgIiICIiAiIgIiICIiD5j3yoA2uu8SHX39ZpId751C07bVVb8prvrN/Nl31lbze0RaK4ObXvB77xXNurDiqJ7Nqdqm4c2FrvR12PMrOy3Uj/mNHJ8s9XgDyJWl6RXtxSh0BaQJjDj8k9xyKtWgZTumWEsPFhLT5thZ22yqPlB/12g/ebDj5pQ3EpK19Panbpkc2OB+4+P8AkpFO3Unf5gaeFQFn3j1PvKDOiu6MxeiW9oYs+0MPVWSirSqSrahWC0Vrgk4kkBrRm5xyaBxQRdsU6tUso0heLoLgJmLwaCeDZIxXe7C2YLNQZSBvXZLjxccSRy+Cx7u7J6CmS+DVqY1Dw4MHIfEqXaquEefwVRGtdo18viu39mG7mAt1YYuBFAHRhEGr3uyH0ZPylzG6WwDbrRDh/IpQ6qe12aQPF0Y8ADkSF7W1oAAAgDAAZAcAoKoiICIiAiIgIiICIiAiIgIiICIiAiIgIiICjbRt1OhSqVarrrKYLnHlwA1JyA1JCkrwz2ob4G0VX0mGLPZyZ/1HtkOeeQxAHedRAefb/bx07TXqPpNc2+5ziHgXmyZu4fiFyoru4lSrVaIe+QHAmYcD6EQR4FYS6kdHM7iHDuDTBHmVRfZ68uAM/Kyz905DWM1ms9sdLBgZmZzzKito4gse0kYjG64c5dAnuJWwp7PfDfdN0zDhkdRLe5Bcy3yGkgtvEgajCNfFUstpcSJLHA6gwZjgYnTILD/CVGEENcLpvC6Z4TGoyWF2RBuE3pIPVdiMxMeXcg3SpC0rnOZMFzetx6sY5aFSP8QcC6C17RqRdccsAOOPorY2DGXTebLHdppLXebYKkC3VR8u/wDXAcfF+D/vKPTqSAcpAJHCRMKj6gQSH7SeWkCmwO7Qc+Psun8VO3Vsd6s2rVdfc33ey3uHFaqgQZW/3cMFQdpaKkLWGm+tUp0KQvVKhutHPMknQAAknQArJtC0QCThPoF6H7NN2jRp/wAVWbFauOoDnTpHECNHOwJ4C6MIKDpd29isslBlFmMYvdq959557+GgAGi2aIoC1zdlwSRVqiTIAcLo6xdgI4nWc+6NiiDXjZeBHTVsS0zfx6oymMjmR+WCUtlBpB6Wq4Ag3XPluHL9/hGwRBqLPskaVq/V6p6+JgZSBOvrxxWX/Cete6athMC/gAYwyyw7+al2X/M+ufwCzqaZuBrqmypLD01YFrbuDsxJOOGJyx+iJlZLPs+44O6So6L3Vc6W9aMxGkepU1FQREQEREBERAREQEREBERAXzRvhYDRtlqZjHSPIB94XnFwAnMEGRyIX0utVtvdyy2sRaKDKhAgOxFQDg2o2HDwKD5TtFjqEm69g+sDe87pHqotn2G44ucAOU4+eP4L6GtfsfsbnSytXpjsyxzR3FzZ8yVtthezewWeCaZtDxiHVyHAYzgwAMw43Z5qjwvd7civaSP4azuePnXdWkNJ6R2Bjg2TyW+t3sv2nSEilTrf+moCR4VAwnwBX0IBGAwhVSx8pW+xVqBivRqUTMfzGOZJ5XgJ8FFcGuzAPfivrWowOBDgCDmDiD4Lmtqez/ZteS6ysYTjepTSM8T0ZAPjKWPmd2zqZmJbPZJHpkotr2fmS9p+vgcBq4Yle6bT9i9IybNans+jVa147g5t0jxlee78bh26w0HVX3XMYQekpOOAJuwQQHCbw0IwzQcZT2pSawNdRZVIjFzqgiBEC44K07Xpf+JT/qWj+6oQtk+8xj+8QfNhBPjKuPQnPpKfk8eRukeZWZ037kptdm7Upl10Wak2R27Qf/quv2G9kz0TARwdVjyLyvPBTYw3mVgSMhdcHeuHqu73B2daLY5jRA6Qw3DANHv1XchlGEnDUKYx9z+yU7/cnYYttZ1SpTAo0SOtLjfqghwZDiWkDAmQcwNcPVOgd86/yp/pWPZGzadno06NIQymIHEnMuPEkkk8ypiYxyZSkfoHfOv8qf6U6B3zr/Kn+lSETGOSUj9A751/lT/SnQO+df5U/wBKkImMckpH6B3zr/Kn+lOgd86/yp/pUhExjklMdCldBxLpMkmJx7gFkRFYilERFQREQEREBERAREQEREBERAREQEREBERAREQFod+7AK+z7ZSOF6k/Hh1Tj4LfK2rTDgWuEhwIIORBEEFB8Yv2NWY7JpLTlIGR0BifBWVrO4El1B7SeTgPKF9Bbd9kLHuc+y2g05k9HVF5vcHgggd4cVylX2XbSYbrWUng5llUBniHBp9FR5ZsDZDrRVDSCGNMvdGQGYH0jlHNfU24O7QslEOc0Nq1AJHzbAOpSHdmefGAue9n/s5fZnitazTJZjTpUyS1rtHvcQJI0AEA4zlHpSgIiICIiAiIgIiICIiAiIgIiICIiAiIgIiICIiAiIgIiICIiAiIgIiICIiAiIgIiICIiAiIgIiICIiAiIgIiICIiAiIgIiIP//Z;" vertex="1" parent="1">
          <mxGeometry x="72" y="-587" width="224.27" height="130" as="geometry" />
        </mxCell>
        <mxCell id="HSzltY3X0y76gQs0_PpO-4" value="&lt;b&gt;&lt;font style=&quot;font-size: 16px;&quot;&gt;Telematics + Mobile Devices&lt;/font&gt;&lt;/b&gt;&lt;div&gt;&lt;font style=&quot;font-size: 16px;&quot;&gt;(Data Ingestion)&lt;/font&gt;&lt;/div&gt;&lt;div&gt;&lt;br&gt;&lt;/div&gt;" style="text;html=1;align=center;verticalAlign=middle;resizable=0;points=[];autosize=1;strokeColor=none;fillColor=none;" vertex="1" parent="1">
          <mxGeometry x="53.65" y="-450" width="240" height="70" as="geometry" />
        </mxCell>
        <mxCell id="HSzltY3X0y76gQs0_PpO-79" style="edgeStyle=orthogonalEdgeStyle;rounded=0;orthogonalLoop=1;jettySize=auto;html=1;entryX=0;entryY=0.5;entryDx=0;entryDy=0;" edge="1" parent="1" source="HSzltY3X0y76gQs0_PpO-5" target="HSzltY3X0y76gQs0_PpO-9">
          <mxGeometry relative="1" as="geometry">
            <Array as="points">
              <mxPoint x="785" y="-587" />
              <mxPoint x="785" y="-587" />
            </Array>
          </mxGeometry>
        </mxCell>
        <mxCell id="HSzltY3X0y76gQs0_PpO-5" value="" style="shape=image;verticalLabelPosition=bottom;labelBackgroundColor=default;verticalAlign=top;aspect=fixed;imageAspect=0;image=https://cdn.prod.website-files.com/627ca6f747706dac04ccaba1/63c14fc134c432153431a0aa_logo-aws-header.png;" vertex="1" parent="1">
          <mxGeometry x="448" y="-720" width="240.26" height="270" as="geometry" />
        </mxCell>
        <mxCell id="HSzltY3X0y76gQs0_PpO-55" style="edgeStyle=orthogonalEdgeStyle;rounded=0;orthogonalLoop=1;jettySize=auto;html=1;" edge="1" parent="1" source="HSzltY3X0y76gQs0_PpO-7" target="HSzltY3X0y76gQs0_PpO-26">
          <mxGeometry relative="1" as="geometry" />
        </mxCell>
        <mxCell id="HSzltY3X0y76gQs0_PpO-7" value="" style="shape=image;verticalLabelPosition=bottom;labelBackgroundColor=default;verticalAlign=top;aspect=fixed;imageAspect=0;image=data:image/png,iVBORw0KGgoAAAANSUhEUgAAAVwAAACRCAMAAAC4yfDAAAABIFBMVEX///+eUSTzhTYgGx0AAAD1vJScUiSZRgrWvbGmYDv1iDabTiPIbDL4+Pjh4eHQ0NC9vb2enZ3IyMi2trZkZGRXV1fgfTj5hzbzgCizYzDZ2dmNjY0SCg04ODgcFhh2dnb4waf6zbaGhYXXeDkyMDHs7OyXPwCtra3u5uL7592qWy0YERSgn5/99O71uY+YSxtPTU4NAAf71sPrhDnyfR4ZGRlAQEBRUVEaGhpra2vDm4maRAB8enssKCqhVyv87ubfo3v0m1v1pWzJimPzpnT1roLIpZjfiVXxeQz3yrG8lYC4hnHiysCsdFudOgDm2tWjY0PQbB/1kU7EZCKvWh/mxrXvvpr54M6+d0nAfljSmHDprIj4vJn1n2L0q4DKo5VsrNqYAAASMUlEQVR4nO2d+0PayBbHEUetuOFNyQKGNoVSGxSoFusuWmu1V21776731tZWd////+LO+5V3ALVrvj8oGWZC8snJmTNnhpDJJJbx4V+vkrdOFSDjt+eDxzvZp3d9HP9AGX8/X1lYe5yt72RT652toNWuLCwguFAp3lmKomVwEd7UOcxGHC2CW89SvNsp3ukloV1YWKaWi3R6dteH9rNLQSvcApKZmu5UQmiXob1KcOsp3JnIOFesNrXc2WnTjVb1uSncpOp6oU3hzkIQ7cADbeoWptfmR4h2edkbbtqhTaMXH32sNnUL0yoQbQp3GoWgTeEmVyja1OcmVQS0abSQTJHQpm4hiSKiTeHGV2S0qVuIqxho0w4tnmKh9XMLxqeNuzyHe6qYaD3hvvjw+d8rpxepGauKjdYF1/h0Pni+Mlh4maubpyep+XIlQKv63Prh5+e/r+B5ipc5BHsne7Z512d1L5QIrRot5H4he2BwIW7zNLXepGhVt5D7ZY0Vv8wRutmdBw83MVoXXJbzTeFyLXhN4ETTmh/cbAqXaDWp3aodWgrXS6uJ2aaWG6op4Pr63BQu1b2G2y33m/bELpWNwGqNcqGrFOQLDZ8WjUrJnkyavUay4ymUy/mQOvlCucA+fCq3MFefa5Q6AIBRq9WC/2pl5a1JezKZtNsIaaMKkKwSe7NcwwXDomuP5T30BtzhCP5tKvgLtaqHekqVNiAa9tTdlppY6GAMm1SpNm4frvGfR+d//BltaNyEwBa5HDCUTKaECEHoTVSthStYYJFYbxU4rIVqvY0xrUrrg7705h5w0B4d+pf+A6JCXrR2AJDxFsEICbQhfzAiVfCh3Z5b6H768PEAjpBXBs/MnfDMjrEOFlU5QJhiibw5amYmQKoAYRqdES9otWRn0afQhcBQvNtuLXpIwO2prcGuDJd8WjuTl8wB2LcE99Nvn1cgVxL0rT3LotRD8Fp/47VOAh1vwQW3LF+CFoQ1lCE5HbHHkn6x0A5rUeH29dYtsWsBd9GS25ZvB+7n36VgGsPNmk8C4Y69ztXa10i1Sh2VRbEItALWouzBVn4/GK5H6xY3ewbX7im1rM7t+NzzlTWp1bNsLgwuP0zUlwF+owPWq1G41rpsKmh7/EYpcKpsjw59w8L9jcMbsPf3guAa7Ha3pLaA9aAUrjPZ1xrn5zqIeJvJvPj04Xz18eNfXg7W1jjcUMvlJzCBvVi3yVFPVLj4NrQkwJZewEyPXS3HqUDHXOA3BmBeuQmEeOuRrZJvLfYrvRrQ2rK7BX2u1RLuDPZ6c3QL9ferz5GrhRZez24/+5XDDbPcAj1cUFHRcEMTDtQC+2Mg344O6AxFVABowDAm52zt0+0hZSD8QoMpXwBa6zy7MmO8WaGbrT0VLmrgtGu8U2vZc4X7K+3CHuOS+rM1CjfMcpvEEcAugooZIzNEDtfqoABN6m5GNWRPe9y6SPxmsKvFxg4MiBKOUVW5WVMvNGmppqptC7g4/uqybg36pDm6hTqzVQI3GxkuHBa0HEuKDmx2OjpcalsTHoLSboY5Y0ozjwYjjmXxLp7RHjVdH84Mc3HEnBCzVHatG+zKlFS4tAKzfGs4zw6Nwl1mFs7hhrkFo9K3qx2wyAuYX2B3OYPbok4xz2FT0+xrplroNdtD2U4ZXNv12fymYB/PQgXhQlQvVdSdMDPdznzdgg/c8FBMU8UHLg8f+PnR7aLuB3RpV0eoxp0Cu2+okxKdn/DYhvxZ1pi+zcO624GruoVcaCimy89y+fnuW7ItSdYWFy4PAgF/Z6w5fMnplmW4Ixabsatx7+Hmi9BDDPfZ+elwWfaAAnBoBy7iDRdcA3mIGgOmw+1yp8AHLNwJCC/VV5xuUb+NSrOAG9Xnxu7QGNh+lWSxHBbduOCyqhQWD4QbnnCNok0SbY4ULinio2fA00Rd/a6XgrGJApd9Fg9ebiFaSAbXaFrAnWrxg0ujA87KC24BBSHqkE6HK5yCiCJ4lCvSPAynU1PgsusxE7hR3UISuEUl4RgKt6NZrodb2HNdKhdc7hScdVHYcMMtK8bsglu6E7iDyHClIRhKL/CbNQwuC0VdcKVUZEsa4qpwh3zYLeWOCwFw1+cHd35ugd+ecDBr98oF3j0nhrvOrw/Y6xcL7H0FLr+dlXHbncGNOoiICZffnmDYUGEmhWszHIybB1zhFETXlRFuQerQGFznPrmFqCM0NrofMVb9KeGKq8UAeMAdc6egzHbyaEEEZ7xDq94juMsUbojluk9nWrg2G2TxuS83XOEU1PlHPh4WgwifUOx24Oams1w+HuNn2ZzS57b0QZbhgsvTE46Y+yFa1EYw0rXuzQ/uvHwuy02LrFjVUc8vJlx2KwhuDRfcdREpdNVZY344PISYKAf4c8HleRF+NrrLjAmXo+QJ4r7iNWUgKJ4AoNPu8Q/nN1KFlajZhnvicyPCHavJWGl+kJ1fTLgFHaXUeZHtrmCLhaLrdeqV8vql4T5l7z7BjdihcctlPrfGULBYM6HlLrbo27yAZVuaGlwMGNBseEfz2NyUy3OEm3gQEdKhMSfHJg4q0i1bSAJXRGI03y1mjWmScugxNF5kowkOkyYc2OHRNNnP5XP5wY32lE10QpaRAC732YsjtJ2XV0UQYh2PRIbY34iZLvJKBr+xKvOFOx/LFdOvLVCtKXO7Gu+ocPmcowWG7bGaEsJVguGKZNnYZkvRxDju5/K5bF4BnwI5Fc6DuMG4cKUVMw6JeR2RvTAkuBZaADkasXwv2x9P80rrEvg47p7AjZpbKOrdCyhQ3rSPi51bGGs+dbTLFiHtd1l7C3Id7zVL/ZJd3SeZOLY/w3H5ZD7v8JP53EymrdB1YDdG+nfWIcWG29VcwS51FaMxa++A/WZBHIFRngBg8f11HXW5kyUtufzZ4GYmAoYDxsi4oN+z+JDNBXc/LOWYd8T1GhHfst4SyxzHoCqRpap0xCylsStfHmBJMxy+cK17mRWDKo+R7xtJK8T7QIzYinRVl8UKqrSATcDm2bovkeBCq8HIHiek0FgHfMRmeC/Gl2fgKtBVOJZlOSPxMaQS+yw2aq7Q7fG99LmET6XUbJaKgk5eGvLn8bKugigpkIVeokIZS2FW6DebzZ5koTG/GFEoVTuL+7t2WSvPF7CkIyVHl8kcrCTXnybXzn9/58U7rOx/ZPt5Fpfs/Cm1On0S78R+Tj2aQk8lffEoZmWvlM0v6PXZg/8aVapUqVKlSvWP1ebm5tu3Gxtfv359hQT/b7x9CwuDv52bSpKBEHKGT8/Ozp5cQi1tBQnVuIRVn2LoGxuYuvGgqWNLpIb49MvZmTfApcjCVV2tL8++fHlFbH0DPbXpYTy5aWHl5a/frt4fHsamGFdbmPnJ8c3Ftnl6+iB+igrlFgZEB6tXV++/H/64Xlq6pkCuA3FFEd7D1slfx0fvLi5QwsHEqTQzCG4RStrMw008pVKAL2jSpajVEZvdoiaRQSjYYwDA61pJWq8k9kn2016HVfb3ejPxZmrihlBePlj9hjFPBRdZ6dENRLoNgZqmSE8iBX6xWk4xoZlslu4awhck70KyXkWvJiwnxcXShvmxKOPpsAx6OAPPxJSlZh7fUIstd1ZsGf/8jo4ZW2EY60tspcdHyEq3s2YdAq3nsijFmGVrnOLDRadf469kuEOvJi64dM62oBTy1c1VCW5JqSIuwAzhaqI+Y405jS12s8uot04Y0hw00boK0kvR4fbElg5XytaGWm4Xv65WyuXeWEYnwSVZYrtYLpfwAmm+wmZ+cAMwsxt/GzlR/cYPVqDPleFiKDQH64Lb9GiC4FbzQo0ubytWQ4kLI8FFpWNDFEvPCUmoZMlyghk50zhEk1juvuQ1XXCBR5OK5x2NrxHv2hC6knhZ5g3VHbpnfmJqipmIwXYysHEs15b9oxtu0d3EGy5yLmJpOPK/9EEqAu6eciuUgDabk0TTTFBuh/vWKS23oHhWFe7uLhCPmgmDO1HIGcJIBdzXUtdGAoe9zJSaCm5yy40G11D7FRXuuCiBD4OLmkrBlRdcxXHgaUfluxFJdK8tt6aajwp3PSNZYxS40l2OejrySoUrvKwhqiTXwT2G29O6bB3uRLwdBhc51KqrNKPDncXIQdL5yvOVhA8iHSSEmzN3di6CJigpqa4UPWHpcPNqGBUEV46+FAm4aO9vEhAM1ItHHweJACex3Lq5c3pz+TX4iCipjt5h63Az62zsFgoXr9xYdxXLcPvAs+X0goAXYgNejtmh1c3T7ZsnIWCRCCkUhQ2VchfcHjdHFe4k4xIelr1xR67aIALsepn39IoNOE60AC3WvHkScbECJlVQe28kF9wMt20V7m6lx8WSZSQwHutjWtfwF1T1FTWz0otH58uRAUf1uXXT3IkMFgn7R3yiIZababMuTYUriz00iC/pqip85cRNj1WZTD0281P30/nBYLAWDjea5dbrR3HAImGs5DQVK3LDbbAq/nB5sGpUedlEdJMy3Ex+nVcpzWF6ytj8+urs+vrH9ysIOMSCQ+Ga9ezF0cnW0hmd24kqCY3SfbvhotRDlTXxhiu+spvp2ryUrw1V4MIh4R6voj0ldxoZmxtfz8gMJJ1C2Pp+tRoIONAtmGb24phPGuHdRmZMTu61oZ+iB9weharC3euKrJjaQZXZE4aZQWtw0XO3asy+k3DU9Hbj1dklmeByp78PAwD7h2Jm9t3xyaVrHgMj3roMZUzOLU+CI6ncAy66AKVMeCgmCS20BXzk54KLdlqake3+8f4kZFZyyw+wZ1asbm6/Ow7Z4dLWycVZwDHhM+vTF9Iz6zzgoi6tlYkFl8040C/6eMDNsNXUERn6CnL79j2QhS9gl+WadQz2MmxnRxfmzpOAY0LnRZ/NA+RxlRfcAimLBZeEBcTt+sDF42Xgfux5PK0uLC8MBleHoXzdgJVBRL2eu8EWGzLPhsiGLdsXSFHoL1ICXnAzb/AdHg8unuokMZof3IzS7SUUyYrB0Ovq8HqJLukIkAx4bbse2RVQHV/QycpQuIRUQ9y/GR+4fVw5BG53t1qVs7Ni1oHDLdeqNXmw3QY+qZ4Y4inHwWD56kcUQEuH7xHgNRwt5KgrCJ0YRmTfwZ4OKzJcfO4+MxG02MD+OQwuIK6ZqeGGq7frAwD051rElZzPHQwO3kfie00Ab+ci+Visk5ucKbvnJwHHJMHtyq7PEy7yjm/C4EpTD1gecPWph94sLZfxXX0fcUnT9Y+TqIufTm6yptr5RYVLnndNX3vDRV1aPsznyrvMEJKaz5V3yT54Nj5X4/t9lkvGto62YW+XSwgXb1Bf6A0XTX7ZYXCHar+FHCoZI6jJcok/7CinXrngOc0zO74oODDJmpuEcH0XhXC4eKwRAhfZofjhDGzoBKmAOwRy+rinsU4kvzm0aOFZCNnjC7RSxGscFx0uNiFiZT5wDRdc98AV++6mvEGzFtq6BZYOw6vGps6c+09QovBhGr7HF1n/FSMx4OLzxGGvD1z25VSf5UykLR4UjItdw8iTny0o6HAzeA3TXhlWabSlHc4FLgkfIoZnuk7ewSAt55/YiQEX36+7QXDLEeDiG0ASc6cS3LzWburJ38xByG9QRg7PZLI32ZCFY+Zp0E8faXC5h9xV4HbUBmFwjV2p6LV4ZJmAm8m/lqoMZzDfY/wW+uupMcIzqK2bbVNfMOpC+9fboGOa2HZbviX7tm0jf9lvNm1iTl272ZSGU0W42bTpIh27qcpmu+I/aFaVcgY9vk8kkW6c0VwExBv6C6pRwweaOQhka+4cB6KdpwxXgtejSiM/tbOV9xcBL+T7LaR7g8FB+KLHu0R7R4qEdwFld/zsd+v4XUBwwFQ/fXBokSLi9eneTqKQhb72QaJFiobX1b1dQ7LbZoSV+g8YLVJEvLh74zYLg4Moq8sfOFqkCIEZ44u6t62jbZQ58Bzgpmjdimq9qHu7oN4gOKpN0UqKbL0RVzmmaBVFtF4+hxakBxp8Bcn4OwLeCGvFUqv1VAS84WvFUrR+CsUbAjdFG6gQvIE+NyzzlSoYbwDcFG0kBeD1dQsp2sjyxesDF6J9GE+wmY2MD554PeGmaGPL03o9fG6KNpE88LosN0WbWC68Glzz9CRFm1waXgVuinZ6yV2b5HNTtLORwMvhpmhnpw+/r8huIUU7WxG8GG6KdvZCeCHcFO18BPFmU7Rz04cfKdpA/R8s59JCzCEd9AAAAABJRU5ErkJggg==;" vertex="1" parent="1">
          <mxGeometry x="1689" y="-374" width="242.4" height="101" as="geometry" />
        </mxCell>
        <mxCell id="HSzltY3X0y76gQs0_PpO-8" value="" style="shape=image;verticalLabelPosition=bottom;labelBackgroundColor=default;verticalAlign=top;aspect=fixed;imageAspect=0;image=https://www.unimedia.tech/wp-content/uploads/2023/11/AWS-Lambda-e1701195645609.png;" vertex="1" parent="1">
          <mxGeometry x="1056" y="-792" width="345.23" height="121" as="geometry" />
        </mxCell>
        <mxCell id="HSzltY3X0y76gQs0_PpO-78" style="edgeStyle=orthogonalEdgeStyle;rounded=0;orthogonalLoop=1;jettySize=auto;html=1;" edge="1" parent="1" source="HSzltY3X0y76gQs0_PpO-9" target="HSzltY3X0y76gQs0_PpO-7">
          <mxGeometry relative="1" as="geometry">
            <Array as="points">
              <mxPoint x="1538" y="-588" />
              <mxPoint x="1538" y="-324" />
            </Array>
          </mxGeometry>
        </mxCell>
        <mxCell id="HSzltY3X0y76gQs0_PpO-9" value="" style="shape=image;verticalLabelPosition=bottom;labelBackgroundColor=default;verticalAlign=top;aspect=fixed;imageAspect=0;image=data:image/png,iVBORw0KGgoAAAANSUhEUgAAATYAAACjCAMAAAA3vsLfAAAAwFBMVEX///8AAADnJWT19fXJyclJSUn8/PzmGl/u7u74+Pjz8/PBwcHPz8+mpqbr6+vmEVw1NTVDQ0OamprmAFiEhITudJTzn7WQkJCjo6O1tbVlZWXZ2dnh4eFgYGC7u7uXl5dzc3MgICCvr6+AgIBOTk51dXULCwsmJiZNTU3pPXKLi4tZWVkUFBTlAFP97PExMTH73ub2usr62eLvgZ/4yNXsXof0qr7xkqz3wM7qSnr+8/btZ43whKLpNm7ymrL2vcyzVJ5xAAANYElEQVR4nO2ceUPiOhfGG1tLW9qyKkvLWgEHUHRmnEVn7v3+3+rmnCRtWgqCyvg673n+UEiz/shystUwSCQSiUQikUgkEolEIpFIJBKJRCKRSCQSiUQikUgkEolEIpFIJBKJRCKRSB9Kj++dgY+o27Obn/Z7Z+Lj6VPlrHbx3pn4cPpVOzs7a92fPqG4tzy3Tp/Mn9HXmzNQ6/bkKW0YY2+IzXnPjuWxgtTOKj9PnlTjLbF5PLbgrSI7Xg8VQMb/1L4/69cNrWqv2xw1p9XoBT/1m2Lr88hY/FaxHatvLU7tAkaFs5uvz/jFnKY6D8wj03oNNs8PRjmHBeRh+sLYXqu7FjRQW/5/xnw7ZwV1jkvsFdiqPGgj53IFGfBfFtur9Rtq2WdD1rqn/Z63sLH6URXuldjOcy4xdxm/LLJX6wu3PVqiT4M+rvVtr2/ANrb8KPKr00RwWx+T2ptiM2z/vXq2HzfZCGrDiNq62+cdsDXTb0PkNjsiubfF9m56rOn2GthvlU/7/OexGQ5y8w5P7y/BBmaHNjv4zinWfu3xX8CGZTloMHNNF/4Vsdme47nlAdyCfXMYNtPbEd9b6h8+CuTmos9ZIUVsxlp0y/6y01lqznHue28A3iZjC8MrbFGzjyYEWySRFtSzurMGPphcdZ3MHbAtRh3U0lKJ5DJT7a8xvv7UMU6ozzCp+q273IIVUtlthWxhu+YOK46gYHk2hTPKWmfD7kLDpo/K/bRqBfmBOmNf1Z0xDz4gytK0JtnzY/rbo4UT0c85p3uwQh52htjCtpJ85vnGCs5y3tMtmiwKW5KzY1TIAjY2UA9y2Lrg4uvhjI7+vHokiWN0AbbHpfj841I2zadK5ritLWx1WbKxXkLDyCpfT1andlvNMBS2LqvPmtNpd5CrVgLb9XiWjOdZxTJ21bYUWxPd57PRKOFm8An7t/vU9vhx0WrVWrUvQM6GKnizywopYjNVibFQqXOUfhNjrax41Y2OzVFlC7Enk80UsLXlAx8DS3saUrjOZUbHhl7XKuoTVrZbsD3ODPvfp1ZLLIFUkBxOsn7vCFTE1lEtwtaBYMMc4yeohdoEqM7KDJBQa1c6NpwHpMxZcSTVsQH5xZ9YRgLbo3JxUZPM5NpRq/Lrgf+vfSkPVMAmWiB+hKaWKHfo2nrwAWujNm/dYbcBXDlNz2HT2/5ebNWsVzitvuPMvSLrWfHzWetHaagcNl/0SmIkgBnDXD0BZ7QBelrzA+3AFqS1s4ANYpWD5V5s0G/2Dyv4q/S5pdWw2tNPmMU/tGpZzauVLvUCthUYTst+Q/bOY/HE1lpjlJYHRsuVFn4HNisrdR5bnGHfi+3Uo6eUrTO7fzQuKme1S+P228+UXPlS7/YKSFrEftZKm2mba2StL/2uYbOjYbc5tZyd2LCRi6FjHzakG74MxTF6Es2y1Xr6F21bgY3r9puqc61/SsIVsa0y+97KxlKAIx4sWH7ulcNmrfSoSrFhNRJD6T5sfqEvOJFgae2s1br4oZJKsXE93j/cwCh783k7oI6tMevlJvFMITGzbm5daDwaNvsq/wu8BltV71hPplvcqdI7fR0b1yNyPdsOCdg6Thg6JYuTHVX2YVbyPdg2gtakXp9/EGzbE/YCNsO4LE7yhbZmCZrQsoX6N84Gh92NFC2+a+kt+AiN9Nf28tAWNrHUu7XhvA8bmm4wWdR+eqydmpcMGxR0rJx3DgkHYsMh4aSrHuWLkdvYcPN0a8N5LzYoxkQwUIbvkuX3TVJsYcbDOBxb3dBVMECGu/L1JirlsY1N0C1aIXuxyalTko6jcnjVrPcUG5h22S7EIdh8Vty30LDB8DIwTqnSjZYSbPrmTKr92GAsuIKSZqtgDJ1SpdiwWaXOh2DL10+Qhm3KtN/qFCrf1ivDJrYC80u9+7Hhqltm64JwtS3DkGLTJxWHYcMQPT01fSoPD+en693uyi2LUmx3N1sbzs9gU2uMmsGOdsaVaqfZkAAxrVX98A/AJnaTRYiop0IpbGJRQQ3a8VufavpdbseWYiupmc9gMwQ1rVXKBTe2mLWTmZj6iyJhr8ca7WAadJdXh2CTIWaz/lp0crllyrFIZ5W0k/6bT+svSvordC/Ftt0PPodNrIDnxrQw20pgGrb8mvgh2IyB5hvsw/yi+EyPbLMnj8cLN5PLdgp2YMPKqW84F6fmW8JMF9yWeT6qR2vmneVCCYBP8vGl40A/H0lhC6Y60WLbl8ejhXP0T98PbaRfv+CEX+McjEadvf0GVJat4zTmFHf82Lo+7vrZMr87xR2/+aLRb3ersj/3O6ORNh3j3zpZCH8GASZyQy/mD7t6OhY+nm9m3TddsbTFqcla63eRXJnd9qUiFn7379MXlLAdu/S2aZbOfuxj50TP+DdPsPvyHZc2cMno7JdOrojta7pYXqndHHGmF8yxk+5Rvo/uvv/OyFV+pUZZDhtsZKXMfl4ecaLXnuyqbB9ed/980sh9EeRSbPaPJ53ZtwOZiZYRQ9fyjqdpT6y7y09q8VuSE9ge7zVmrYdDmRmwDDRbJjAlzdlsf59uL3/q5B7Arn2q6cyOuk2UrtQ2/vq7NNqGS27Dr9V6uD/yBpatqLWf9/sXSN+qejEz0DA5X9THwYlXCv+HpNe5VuvpJcz+T/X47eGmVks3/0gH6/H+V/npBRKJRCKRSCQSiUQikUgkEolEIpFIJNJuOaXvULIOOtZkL3rPe9ojb77/LK31tlv5vVccCjT7V/XzcZbdQdlJoPiwbXT7lVclnP1vmqmywHCCIrrei4/2NTVs/pE5D1kSdFfZezSi0nfDdA+6hHlibHbXM4bFK1Pmy6/VdjVsgyOP8oR4vDXBGMLYMWxojiZ8QnlxCA74RhwnVvDiOD2OEEbCMY54WNZzYlt5wX88JhciFpFFac2wVTgnliHsOPQUNu7R1uL24hg7CRdqnGN6hgdPbWwWJhu6nvAsOxJXuJvohp/xufgTh7ZKwg2g0I7IU39lQwgvOvDdhiFmdcTUuybgUxs+wR0bGw8PNw2DTeUJePCMHucikwNxthlPrMXiZAz0b3DIfR3Kw8dLOJAbyddXyK7zXKTgYoihjHQtsY0Y3sBK5MmkicwEVEZM28U+Y7YW2DBJB05/iQO6Fl5K4AFs9ToDPLQO2ZwzddNjhsnJ0/iROHd/nXv1w3PYgsjvQpxTFrohYhs3bNeCTAyY77rrjsRWtb0Bg45u5tlTcS57yGLD43jYdWjHvLY1XXPGn4S80Zt1XvLrge222dR16ht4X6XtXsnrULwOW7wELpva5pi5PMTY5D+/vJ7GH/BIHZOThsQ7ttvhCQlsoRMaswn3Nm8LbD2PR7bYhHYgSmxDziPOos8i28IfvSvZ8dTEDdcuG9ohFMZ1bLOx4L/vlRl6vA3YvKYcho1J4D3sNkZzjg0uFl6veD7hp5kobL7IzYwhL0y+J+6X9cRtQ+zboPou5/iru8bVWHYDU9knWdqLXnjErgrRgUg9hS3rX/sDVVkCic3GWGLVEYq+zccadiUuCfbr2G+J3C+Zjk31vXhwWPVtQwaNVKUYHXSZHgvltfnfArakzjMTF7CB70Y/w8Yb24A7t8W9UDEk8NwOWH2zWfDQgA1dLT5AO+M5q8twvQZbMInN4yUfQInVkNBmdYjIumaTdV9h62rYoMUNRaEFNkFgxORPE0LCFua+yhMuwTaVgUSebInNTdb822HYMKu8CNvYIvwNi9iuVxo2w4dReMny2Pobq8plIjZDYWN1Kx6pxt2JorXEBiWHGpKNpHHC+7aIJVHUKGCTIylPsN/XsAU6NoDKXcWPDhkVEeSwBRIba/jxMsXWWFfj7hHYTB7pNjaDQanXBWxNiHeY3TnhmR2KpFJsHdU/aNhMjMAX4RLonDbLrLY1wd3LDBBe5ilEkjVSgc0SZiX/KLtuG5tihENNQ77bqMuqDMoEbKBLWYyL2BYrgS2GigE1uI9BIa5DG2k39ntr3jmJ7kcMCRJbjzWSDcths+Bi+6wvr+pEluOMeYj5xHf8MMXmsOvI8bn/676h1bZ+6PVEsXnv7ZgLDZvLNpFjCWxeL3T4b26xqWOuBmIMVNj4YONUPRz5ZAHW52EU8c7Cd9pqmHbFAJqwqhdAc+ywXhjnsFVZEjtgdbFx6EHBm8wKh8b8KvSqB2FzwDpYz0I1JDT5sJKA7deGKhctk+GiI1H4ysoLkk5TdO1wB2jCnZwVjtwCG/8Ty0tXq5mGzcd3AYpaOhNGhQt1BttZCKehJ3ifEQ2VQL5dgEcwh9q2DkQOmsKICdN5S4TXkNBUSk2Hphip2sooAfNizWtS5mO4FkYOvmtvIl6bsRB21KHXTfffy7FZ2URzqX5sUzZWt/DqCrfsDpB2Mcjeur3jZi4q0rIbPjY+C7U6ISLVMzCq635LU0vzov6L8KXZPlbJMmhOitOZeNUNZqxbHuKPyOwGe14bbU3b7/cGcVQwqF93ilP7cHZe7/+B9yvtVtw433OHJtgMTnkbnkQikUgkEolEIpFIJBKJRCKRSCQSiUQikUgkEolEIpFIJBKJRCKRSH+D/gO19+TFj10OIAAAAABJRU5ErkJggg==;" vertex="1" parent="1">
          <mxGeometry x="1075" y="-667" width="302.39" height="159" as="geometry" />
        </mxCell>
        <mxCell id="HSzltY3X0y76gQs0_PpO-70" style="edgeStyle=orthogonalEdgeStyle;rounded=0;orthogonalLoop=1;jettySize=auto;html=1;" edge="1" parent="1" source="HSzltY3X0y76gQs0_PpO-11" target="HSzltY3X0y76gQs0_PpO-67">
          <mxGeometry relative="1" as="geometry" />
        </mxCell>
        <mxCell id="HSzltY3X0y76gQs0_PpO-11" value="" style="shape=image;verticalLabelPosition=bottom;labelBackgroundColor=default;verticalAlign=top;aspect=fixed;imageAspect=0;image=data:image/png,iVBORw0KGgoAAAANSUhEUgAAASIAAACuCAMAAAClZfCTAAAAz1BMVEX///+hZv+dX//Rtf8jLz6eYf+gZP+/mf+ZVv+fY/8AACAeKzsYJjedXv8gLDzz8/S6kP8OIDL59v+coKaob/8ADyfKqv9DS1YAFCqBhYv8+v/17v9sdH3W19kAGS0wPErn5+hTWmO/wcTu5P/l1f/dyP9XYGqufP8AAACzhP/17f/VvP+ocf8IHC/n2f/Eof+vs7jaxf9ianS7kv+1if/h0P+XUf+seP/Cnv/f4eOJjpWjp62Wm6EAABw5RFHKzM8AABSCh47Lrv/q3/9xeYIzevFKAAAOzklEQVR4nO2cC3uiOhPHQQFFAhQvxbuora4XWqV2Wy+r69bv/5nemSQoal23fdzteSX/85xVIITkx2QmGbCSJCQkJCQkJCQkJCQkJCQkJPRRVcbJC2tc+eo+XVZ3eTNxYZn5u6/u1SXVl3X54tLl/lf364IamJcnJMvm4Kv7dUElE38DUSL51f26oASisxKIzkogOiuB6KwEorMSiM5KIDqrc4g0M51O703AddhhagLRlkd+LEntnrrbo/bakjTO/37ZEh9EWnryhoWySZMj0c1kFve8TdK/M6TYIEoM78Ni/QmOLc2cbNen98PfnRkPRLr61N6Vyw50VdUH2d2e9pN6crTFA1Hi5ZkWyA44qf7TEzOh9hMn9fxy8uQYINK1FEsdgqtW8+Myfi2zf8d5lbpsUCWlvW9I149IM4cP7PBzQsfNm+2Qa9+gU9L1X8yQHobvxv+rR6TJt6HPuWWHdXnATGjAk5Sa2mUQs7fyO4yuHZE23KWeb2FGpOmarCV6uNlLbHno2i2lJt0NjxldOyJzTI88YzcBkZafdAHCd9z3PUpSHTKHPj7O7V45Ik3GUVa+Td9KFJF5J2UnupzG0mlqP6bJjElPUEPKHg+1a0eUB0RZM5FgiLQufNyZO0SJyeA5mTep0mksm48lor4pqxzRi7SHSO+hkb0NmJLxRVQ5iUh+OKxCINpHpOXbh1UIRIdWdPQwOqaI0Bc9wuEn/X1fdJdieoqlL9JpREvrWv6uMobNQytSu8nxrcqV7iOio4XadSPiE8KHLiy+sO8mTqujiGA6pG6zkCYudp+H6kElV43I7L6xA9mUqWuamr7FDMgeor3ilOdb92CCfc2I9NfdoeehKb+yFNH4FCKdp0Ve98fa9SLS0mx59saiVv+RLcKkfpcvQL7Lh1JfmNWN93LZV4tI591NmuZrJAPbv8WnRBRR6jgXq5sMx9uLHgNEJh005VddAyfNXZJUHrM8PkUk3b2o4KH2GGn6K82KtM3rR6RPcEcbXC9A0M1f2PHyc5hWNPmgG7zk8weZRrNL2U7060d0A9tvsg4zo6EMhoTdHCTCfmt53u1sJTs4SH/oMtrcTUwQjU3dTLWzD7rMkiE8Matqsmb2nsOzDt+QpFm4uCC6T0/oUj6l8zUaPdJ77aqY1A+frJUPor+JzyTjguiZ5fHBsewQqU+wrn3EsKbq/PlsnBExZWF3BBHlcteD0aV36WwgHGgaj27xQ3TXg70mrvRvcUao/qJ7s49oR49lnHdTMpopv8hmHBE99GBMaSZ9PF1OYtA3U2wmiTalmoCFEcqj+06asUNUecSniSp/tghz66SmamqXLkkqaTa69jhM1JghekskML7fRH4MlE3mdd18wq97XjrNyjzkE/FChM8NNfmZmdADB/WQ19ijxn1EfAbQT8npOCG6B0QqW++3e2k5ySD19HeSITTkUd114zR1vIN5NM3gl5N5VdbUPH1x711EsvxYqTCEZfyICyLpOa9iYv9hYmq6CZC+I68TiBJ6Xv5VDquKASJZpSbRn6j6sKfpsNwYvEKwwvVIT9eOfRFK09ThPYNUiSSwrxfRhDLKvqaBj0lnPTc6Q2TqtNNHiDBTmaKIKpM4IJJVjT2NvpfNF9bJsUkRTR7Z3PEYkS6zVduDHn0Kcr2IINyzvt3d8peHuRWFrxKnw2LbE/jrWsn9DNIVI4JJYyqStb7rqnI6+oCaIlJVOXxTXU5QG8qmDvKQ14wIetcL32uAKaEOUT98rob/fAcnpT62+89hLt9E+2r3jiq5akSyOqQ0sre6qiXyPKaXByp+jO/v72nqsfLCsyDg4LNHD2OvHRF97UEavJhgQfxJo/Tc1dP757F0JEMUu9ce2MszaR2mknyMtVMJPnU8Oi/GiPomf2aEr+jLaDEUUblc5pNp/kQoxojwFSyaaywnhwldCxHdpFJPKXTnSV44xoi4FWUH+YSuvnTDB9bfdRX+671uHbTZjy2iSlrVtMnjxNRVM9mvDPbeDMGnakxqOr5WhLl8mALB/480hT3U3lnpw0FaNHaIZJ0nXLuqqvbY3BooHCHa/lKmcvyDq6tHNOHz6/ENSz/iDxgP80WaOQwPTuKHSNZZqhHGF/0X0/symzpuf46uyreV3cH4IQITedm+4VC+h3k27KDrVfyODNNP4U/6XuL5kz2EEL7ESF+dTQz5jxil7K9hQjN7/Ml+u6fH9YeffCgxLNlfiVTkRw2wGuG8srfy0fo1VoggYoVPZPma440v2cK1v6y+N8bihAggJSZv24LZV02LvCT6NkmcBBQjRNQvs3RINolv7KsqD3X9p/T7Tih+iPCPYmBvn/nvhrUEfZkv+bs/hhE7RPgS0TC/zVXLupkfyuf+Nk/MEO1eRXt/UyD6nAQigUgg2pNAdFYC0VkJRGclEJ1V8u/8SfBrQtT+3Wr0s9ISR38S4v9ZAzOhXliJq/q78qC3x9SF9fh2/qpCQkJCQkJCQkJCQkJCQkJCQkJCQkJCQkJCQkJCQkJCQn9fNuov1u82m8HFK53m5vPc9OLVvqvV2m00Gu5m/vHrraCZc2+7OYJGt94p9sMg7ufbd0LrguMUZhev9h3Za+IYlmUZpLD48MmLjOMXc+FWy/GdQumdYhnFuDgie2koUO3fNP5Q67qiOPVise4XP35Lco6iWI2wmVWiKORfIWoVFWBUXF263mPVDEshs1Wttppv5h8+GxEpPre+WkH5h4iqxOhA0zeXrvdYI0choSv9uNFSRKG1b8g/ROQ1LL9VJVbDY9tBNfDseTOTKVRtaVUlmR/LEe63W6VGAfY26dYoqIai7qFWUjKZTHPEOrCoBiM418hklKi15HyF7Pkgb1TF0+oBN2F7BpuNkV2tBsyd10pOJlNkh+lAUxxa4Qq+hYimowArcXglISJs4Qb71GoWoR0zj3duKtVmy4/FvBHQmY6g8Tw8/CR+0PQJNMGpbgwH/ZSDh+YFQohhKMRHJosi4fKr2IyGA04YSnYoo6rvdEoKO3cUuZQDzqQWuXa1iFWCCRv04na1bikGcQJCMrTYCOqAEkRpMUSWaxgNPLAhlts0GKKAVWIRZRVB1FIIqQNOe+MQrMNZerRzxdyo4ZDGhxDhOLOnDSscaRm4O0XiKugO/WLDhXtHAhsDir/sdFyiGNjL2c8CqAggCRhbq24ojtL04V/KCHypUS8ul85+HEBfZNWDlhfu6GSI2+ksiUJoqY2vWKTZUXxwjYioVbdIY7NpGIbvUUR+y1Cw39MCfAQckVvAShpw85o7RFOFlZTWvuU0S4FhOQE9aDUQ2YcQeY7iQHQJiGXYHJHVGHn2NICGBzXbbkF38Q60YCdoRqChcHM8FJC10PqaBCrx7BrERjJiiMgGzh0ZkRjEGABT4pa4KeVaWKcHlyrCFaZgJsoKtuF0RGQ3DQp4qlj+nCIqeiW8odLMMVyvwxHlVrSSjqEU7BCR3SFsGNaA6wJ2zwm9sxkcq26z0/kIormvFODchaPURxyRQe8GtMjBIeW5xtZP4TXBDrYzNugLDrsVDI8lbsNNJh22v4Db0Mk9RPasgCMYxtI66q5hmBc85s03/NKICByOQcfOhuB+2Fvw4PKkhTY/skNEYUecCCK4Fw46AIBpKdQSlgbeS7j/y+hI/yN1CK3DK4bBJooIfavX3CKy4XbVGjtEJeCaY10kdJ4zXVqWwxFhc6Ebe4ig29UGuijFD/hurLPFEOFtolUvGKKRby1X3tTzAFHAEYG5G+6aUEPZIYJKKGeGyHIBFxu6Ehhi4E2nXs2lzf5MuIMekyqOGRgyzJOeRDRdNF23U1WUEBGWqPIu+SzquYaS+S0iuOJ8CZ5L8WlkqpWaSzcIDIoIAnlxGkGE/rmOLo9AG0NEq7oCMaM4iiBalZqNZrAbaAqdHLCQCA0yqNc0LP+TiOhkw8KoovB4egpRy3AINBhiDkc0KgIh2v9ZePv/BBGoBcWozebqhBQLBfBQIaJaBNGaKKHQSBkiOq02mvYO0YJVAh2JIAL7Cxu01epziKAKiwVvhaM5gchuGNZytFrNQysCT8GNGW2c4cUW/TiPCCYaCgZviHDEba1WwIIPND860OYw0Fo1Jm+LqFV3SHEubRGtwMaaUEmJ7AYaVGA0woHW4VXU7E8hgnm8tawGqIaiZKanEcEyhQ6mKfdFNR9a5rFaQi+Nvpz67XOIMEq6zJey4L511wG/NCKCUiSylueIpMV6PZN2iNYO8xA7XwRVV6GqJpt+WCRy4U8gmtGwRTM4EHlpBDuBKPSl3F1jnFPC2ADYFAc3SoTOIE4hqoWTaIyEC9r+5VTaRjQPiBkL8N5NgyJCP9k8RsQVIgoilWwReTB/Q/8lzevc630WEQRlpc4zN3AJHOKnEK0KOE2ajuDaiAg+rGYVVyEBFJqBD23MRlX8mJ5GNMoU3GAzgzkfK4cLkvW0lgPCtPPoGB1wrYRPHddwXFm3WvOSOz+JCO4dmUElMOHZIaJTR3+GaQy4G+681Vps3NpnEK3I7hQbnKa1Ou2L6Lx66RDmizCBYm0XIHYA6w/HJ+F64xQixzLwFFhx0HI16AdZNuoKR4SLBUKcpWsxRJ4L1ZJ63SeF0UlEK4tWUtxHhKNUIXO6EIFW1euOgzfl44g2Pws/t4mbTqbwcy1J3woZWssCjlFEy0wG5/+1RpE4BbflZr4BIitT4PqBMxx7TaARPhymVQU/Ct8oIheWl5GB1oSmAgOfL0zBbfvEzwSrTOEb6/yo1Alm3tzhoc0uYbVQHuMTNOhbFJGb+bFh4GklrQy7JrSfLi9yP2HRDc1ZBQUf6qjXMfqGB/9ce2lknlQO99nRL/RztJ61bIlt2RHRs73RfDZf2Qf1HuSpba8132xmu6ysN1/napIUKYXf0O9xPwfVLuajqX1c1257ulfJ3rXpt9o8t5izheFfzpv/M+HajK7LhY6Uy01hOeLBNMlZf3Vb/qPaFJxls9kA/5rxvrot/1HNisRA1d1/kEj//5S9ChrEcdyc99Ut+W/L++oGCAkJCQkJCQkJCQkJCQkJCQkJCf2Z/gchophjVcTFXAAAAABJRU5ErkJggg==;" vertex="1" parent="1">
          <mxGeometry x="2723" y="995" width="290" height="174" as="geometry" />
        </mxCell>
        <mxCell id="HSzltY3X0y76gQs0_PpO-12" value="" style="endArrow=classic;html=1;rounded=0;" edge="1" parent="1" target="HSzltY3X0y76gQs0_PpO-5">
          <mxGeometry width="50" height="50" relative="1" as="geometry">
            <mxPoint x="320" y="-580" as="sourcePoint" />
            <mxPoint x="820" y="-710" as="targetPoint" />
          </mxGeometry>
        </mxCell>
        <mxCell id="HSzltY3X0y76gQs0_PpO-15" value="" style="shape=image;verticalLabelPosition=bottom;labelBackgroundColor=default;verticalAlign=top;aspect=fixed;imageAspect=0;image=data:image/png,iVBORw0KGgoAAAANSUhEUgAAAOEAAADhCAMAAAAJbSJIAAABgFBMVEX///80qFP7vARChfTqQzUac+j7uAD7ugD/vQD7vQAAbecupk8Aa+cAaecUcec+g/Qbo0QlpEn8wgAtfPPpMR7pNiUXokI5gfQqevMAdO++0vtIifUneenqPzBBg/dWkPUzqkJArV3pNTb0+vaOypz+9d/o9OtMsGby9/6rxvX2+f+Dq/fp8P7R3/z3wb6RtPjzPx71sq7znZeg0qy73sPP6NXpKhP+6sJzofb+8NB+w4792IhetXPrSTv4zMlqu377xDf8yU794aX80GwVp1m23L/c6PuXufNckuzH2PuqxfpfZsWRbK385uWuZJLOWWzwiYLgUU9hcszsU0h+eMOhbaXBZ4Y+nKfWWGRIl8lLd9pJkN/2PxWUcK64ZYxHqIfubmZMm8FJpJtJnbe5s9fxhG1JjubtYTJAqHT3oQD0lCbveXLxgTPvcTbsWDn5sB/0kjLtYFX81X47oYl9tsbvbzaXxoa4x3XVwUNlr1OJskmvtz/lvCH5vnmatUq8uDkzowy/AAAKtklEQVR4nO2d63cbxRmHtZIs674Wsi2hixXLcSJHFkoISUQSJ3Hc2A4QCIQ20HJp0zYplIbeaCGl5V/vjFYr7WVmdt4Zz+yu2OccDgc+7PFzZub3vjM7a6dSCQkJCQkJCQkJCT8nBsej1t7JGHNystca7Yf9A50h+w9PJu1ipVIpl4sW5TL6r0rndLw3uhT2TyfL/t6kU6kUq9Xqio9qtViuFNvjGFuOxp1KmeTm1qyUT1txlDweFtHYMe3mlp1GfRI3yb0Orx4WbGcyZr0xPA77p+ZmMEaTk1MPgwQxjXrvYdg/Ohf7w3IRoLdSnQlm8EC2W2H/+IEMhhWQn1MQE3nHE9j4IcGMl3pvFLYFnYcd0PpbmaWMB7M5jGiuDiYVoB9REGdOI5JTtVUETlAMURBHziR6wwgfQLrgdBgjVjmOOwIDWKULIponYUs52RMZQLYgCtXT6MzUcQXuh1KGLYhmajsqm8hTMcGAIczgwIlGaeyVBQRZKeOcqREoG5dEMoZXECm+E1PBoJRZ0AxZUblg6KMoKJgBGGaaYa7FUzFBjhh1jWJ47c1EKEWhgqhohHW+8ea7r4sY8saok3C6mzeuX35PQBGSMjaN0zAEH61ns5ffb+oQREtxHILhk24WKX6wAuu5/acWfDT1p83jjSxm48NfQ2YqOGVszIbuLvzOetaim/2IX1FYECn2NBt2szZdSN4IC2rvbWZz1OLy+5yKYikzV9Q5T+9czzrhzBs5wYw50Wj4pOsyRHnTCVYUjdHFIOrL0yvrWQ/dg8C8kUgZm7Y2w65XEOfNx2zFMxDUFzZvbvgN0WL8JVtRXhC14JoMfXN0pvgrxYKZ+tPzWgTJQ4hY/4SaN5IxarH16bnajg5DmiCK1CeUFu5sBH9zzqhd1SB4hW6Y7XaJeRN8+MuB2TNKhmFoMKT7YcXPPvcrzmLUbDTqiCb6p2HCBc2LWHDtLeWCdyg5M8+bL7xbRuuuRaPeG7dGx/uDwf6odTJp1Bsww60va0jQKF1UbvhbQjF0K37gzZu22WhOWgP3c0bjTB0wks2n54wpmxcUCz66HiDo2zJW2436mNg0t3p17hH83UzQqKkuGKycmS/GrqOFq2aawwHtaa0231zFMTpHsaG35yYrLraM1U6PeRQ45pmq5vNSaS64dk2p4KOAnLGxt4zV4jDgiaPgXDXbFxeCRkntNOWZpJbidMtYLe8FPnI/cKbOYtSmptQwMEnnoC3j6ysVnh3dpR5bsfnsnFNQcZoGJ+mcbvajCuc7lR5rotZ/7xZU27kFlXu34vU/cD52wDBE7bZb0CjdVmhI3VYQDf/I/dzjJlXwuVdQ7UL8G/cyRLwAPPiEUvvN3nbJZ6iyXkAEL9+APJmyFLf+VPMJGrUHqvy4q+F0jh6BHk2ep1vP1vyCRummIr9U6g3+Zdj/ahf27AlhEOtP/YsQG26r0UtBgqb/9SHw2cf+leiPUXshKrHD/Jl3Hfa/KbwNffipdxBd7bbbUFnN52q7Md+9dg/88IeeQZydWhANlYUpb0fzsrB6C/50t6FpkmJUdZjyGuYKOWDOYNxZ42m33Yaq+jbOYtH/tpBeFXj8O84GnBKjFsrKBV9X2v/6tXQamqSYkWOaLk4tiIZ3z9zNgsuw/w0SFFmGqcFiDOkxahmq6r15Cn7/L0gwnbsv8nzTXojmaYkWo5ahqiNFng3+SyyYzoF6Uhv76N/MXGQKqmtqOAwPcoWpIbjeY+yaz4rRsA1xjEob1p8xFyEmNMNpjMoa+k4tImTY/+tMUHAd9pjtdgRmqRWjlqFQlqKIyWw9r7FTZmqoKksDqsWLuaB4PTTbhFMLfYbsin+QLiwMYRt8C7xDJJ5a+A1VVXxmX2rHqEVB4PF7jcxWcIxODVV1bSzD/ldOwbTI3mLYYLbbTkNVnTfDcBGj4lHT4InRKereIVL3h9N228U98MNHTXa77TRUdq5PzdIXXkGBaTqkn1r4DJVdV6Adeb8sFLyGq38HPntQ54rRKerOaR6TDQ++9QmiQQTeXhr/g1tQ4Vkb+by0TxKElsR9zhi1ZqkiP0pTM2+3pVbiPwGCCu/UkMqFP0ZF4vQC6f0E1VDdewvSu6fvaILpHH9zusO/Bg21L4H9YfqSKgjZQwWcWnhQ+f7wsXchHqySUmauyLkRvgsaQmNN4SVTb9SQYxSq+C+YoNLLe55bbbQYhSn+Gyao+GbbgXMhetttomJQC777PVBQ8RVTZ1fjOLVgKR4yV839H4F+hrGp9K63c5vvb7eJrDKGcfdwFSyo9DpNyrm9cJ5aBAxjmuy4e5TL/wA2VH2Zff6iOyhGPY63vD3czo17udX8q1+ADdW13RZ2vfCcWnDM1fTR/bdnmrs3bh2i/5HO/wcuqP6i9zp3jPolMbN/4/+R/x4uqOGLi2ma8sVoAPkfBQTV32S30pQzRtmCaQE/5UmKQUWfP0ZZhvAYNbR8UZK6skE8tQALvhIR1PJVUGrjTAQFYtTQkTOY/56F4E9Cgko3Tgt2c/KCQjGq4YOZGYersoJCMWroKBUW8oO4LSao8gjKjeQgitUJjUMoO4j5/4ktQm2rEHMkMYiiMaorSC0kBlE0RnXVQptboop5+KnFDIX314kIV/1tUcNNDR2pkxtigygco1o2FW6EKoZwjKo/vPAjEjaC7TZGb8xY3AcrCp1aWOiOGYt7UEHhOqGzm3ECnKfC7bYRzhzFwOapeIzq+FURFCB5mn8FegvqQn+O2uzyG0rEqLGm7ovKQLjrvkSMqruJyMURn6JMjBoljVsKAnyC4t0oKhRqfw9GIFwlQyJGjbWQCsUCjpIhI6i/4fYTuBQl2u3QF6FFQPcmfmphhL8ILdhLUSpGw1+EFqyqKH5qgaiFWgmdsE5ttsUFw9kykaE2qPkfxLvRkLZMFGiCMjG6GWI76oecNlIxqvOEmwdS2si025Eo9W78aSMVoyUjCqXejTdtpNrtaKWMjS9GZQQjlTI27rQRubI2J2opY+NMG5lTiwimjM0ibeRiNBIbCjJ22ki12xHZUFAozGJUwi/Uo7VgrLSRitGatgsXYuBDDdEra1PCO9/m5SgnFaMhnm9zk5Zpt7W/yxZhF/KhnZeolno3b20KC0Z/EVrchH7nM0fnnSApYJ8TLojDIrQAffO6IOqV0InQUozLIrQQWYqR3PTS4flFOm6i3Y76AS/FcN/0inAVqBjhPSENWMmI9J6QAmiexqlQLHjArxildzAQbnPP0zjOUQz3PI3HjoIE5zwtafkgTQ188zSucxTDNU/jmaM2Vzn6Uz1/D08Zwf1p3PpRL9eC9lHRfUfBy92AQYzZnolAQNjo+6RQHeeZYRObsycGO6yVGN9uxglrEJdhCJm/jC2s7yjOGvogLscQojilrUTFf+hPI7SaGP9aaHONXBPjd7xGh3wqpfjvbWrlASlr4no4Q2SHNE2XpVRY3CRM0+XJGQwha+K/bXLjH0OFf8UwFPzTNOaHFz5803SZiqGFbwhj886eF+80VftbSMPAM02Xb5KmUu62ZtmSFOOepsuyM3TimqbLVu4tSks+SVOp8w7FZSv3Fo7DjOU4RPSzuCi1jDmD2bH/pFo0v/k5Cy5sr5VKpdrmUm19PTy4efvu1aXa+SYkJCQkJCQkJCQk/Dz4P/1UgAubsZ4iAAAAAElFTkSuQmCC;" vertex="1" parent="1">
          <mxGeometry x="30" y="-289" width="140" height="140" as="geometry" />
        </mxCell>
        <mxCell id="HSzltY3X0y76gQs0_PpO-16" value="" style="shape=image;verticalLabelPosition=bottom;labelBackgroundColor=default;verticalAlign=top;aspect=fixed;imageAspect=0;image=data:image/jpeg,/9j/4AAQSkZJRgABAQAAAQABAAD/2wCEAAkGBxQHBhUQBxAVEBUWGBUbGBUXFxcXHBgSHBcgIiAXGRkeKColHh8nIBgfIzElMSwuLjEuIyIzODYsNyg5Ly0BCgoKDg0OFxAQFS0lGCUrMistKzc3Ly0tKy0uNzUrMTArLS01LS03NSstLy0tLSstKzcrLTItLSstLi0rKys1K//AABEIAMgAyAMBIgACEQEDEQH/xAAcAAEAAQUBAQAAAAAAAAAAAAAABgMEBQcIAQL/xABBEAACAQMBBAcFBgMGBwEAAAAAAQIDBBEFBhIhMQcTQVFhcaEiMoGRwSNCUmKxwhRysjQ1NnOCohYlQ7PR0vEV/8QAGQEBAAMBAQAAAAAAAAAAAAAAAAIDBAUB/8QAJhEBAAICAQIGAgMAAAAAAAAAAAECAxEEEjEUISJBUWETQqGx8P/aAAwDAQACEQMRAD8AhAAOy4QAAAAAAAAAAAAAAAAAAAAAAAAAAAAAAAAAAAAAAAAAAAAAAAAAAAAAAAAAAAAAAAAAAAAAAAAAAAAAAEy2M2Bq7QJVbtuhQ/Fj2p/yLu/M/Uje8VjcpVpNp1CH0qTrVFGjFyb5JLLfwJPpvR7f36TVDqk+2q1D/b73obp0PZ230Kju6bSjB9s+cpecuf0MqY7cqf1hupw4/aWnaPRHcNfbXFGPlvy/VI9q9Edwl9lc0n5qS+jNxAr8Rf5W+Fx/DQuodG9/ZrMaUay76c0/R4foRe6tJ2dbcu6cqcl92cXF/JnUJZ6lpdHVLfc1GlGrHuks48U+x+ROvKt7wqtw4/WXMgNk7X9GMrSDrbP5qRXF0Xxkl+R/e8ufma3aw8PgbKZK3jcMeTHak6l4ACasAAAAAAAAAAAAAAAAAL/QdLlrWr07ehznLDfdHm5fBZZ5M6jcvYjc6hLejXYz/wDbrfxOpR+wg+EX/wBSa/au3v5d5umEVCKUFhLkl3FDT7OGnWUKNrHdhBJRXgircV421CVSvJRjFNyb5KK5s5eTJN7bdfFjjHUuK8bai53ElCMVlyk8JLxZrraDpaoWc3DR6buGvvv2Y/Bc36EE2820qbS3rhbtwoRfsQ5b355+P6EXhRx73Eux4N91GTka7JnddK1/Xn9jKnS8IwT/AKt4p0OlHUKUszqRn4SpxX9KRFEscj0v/BDP4iWztG6YcyUdZt8d86T/AGS/9jY2ia9b67Q39LqxqY5rlKP80XxRzU455oq2N1U026VXTqkqc48mngrvxo9llOVPu6B242kjs1ocquU6kvZpx759/kuf/wBOeXXlc1JTrNtybbb5tvi2ZDabaOvtNdwlqDWYRUUksLxeO9mPSwsIngx9KPIydT0AGlkAAAAAAAAAAAAAAAADZ3QrpincVrqa91KnF+L4y/SPzNYm8+iO36nY6Ml9+dSXye7+wz8m2qNPFrvImhrTpp112emQtKDw6vtT/wAuL4L4v+k2WaB6V7p3e29SL4qmoRXlupv1kzHhruzdntqqJUobsePMqAHTiNQ5NpmZAfdCk69ZQpLLbwl4lxqOnT06oo3KXFZTTye6R3G9LQAB6AAAAAAAAAAAAAAAAAAAAABvzotedh6GOzrf+7M0Gbr6G7vrtmJU2+NOrJY/LJJr1bM3Kj0NXEnV09Od+kSDhtzc734k/nFM6INJdMenO22njXS9mtTXH88eD9N35mbjT62rlR6EEL/RLNX2pRp1W8PLePBFXZ7To6leuNdtJRb4dvFL6l/pVorHat04NtJPDfc4Z+p1K17OPe/eI7vmpYR0/aelChnDcXx445/+C42xh1l3RjyzleqPrVP8W0fKH6sbV/3jQ8/3InMeUqYmZtWfpZ7SaPDTqEJW2eLw8vPZzMC4NRTaaT5Ml22v9jh/N9CptLBLZ+OEuG5j5Hk17pUyTqN+6GAAraAAAAAAAAAAAAAAAAAAACe9D+rKy1+VvUeI148P8yGWvTe9CBFW2uJWlzGpbvdlBqUX3STymQyU6qzCeO/RaJdRkV6RNnntBoDVBZq0/bp+L7Y/FeqRkdlddhtDo0K9Hg+U4/hqLmvqvBozJy4maW+4deYi9fqXOOy91Gy1GX8U9zMWsvhxyuD+ReWNxG62vc6LzFp4flDH0Jv0hdH7v6srvQ4rrHxqUuW+/wAUfzd67fPnq6zuJ6TqG9KDUotpxkmvBp9x1cWaLxDi5+PNJn7Z/VP8W0fKH6sbV/3jQ8/3Ix1DUHqO0VOpUSj7UUl4F7tnPcuqTjzSk/VF+9xMs0VmLVifhcba/wBjh/N9Chrup07nRIxozTk932e1Y55MXrGtS1SnGM4qKjx4ccsyOy2xVxtFUUqceqpdtWa4Y/IvvP08Su+WK7lZiwTbUe8I0Dc+v9HFGWzPVaRHFanmUZv3qku2Mn444di+ZpqpB05uNRNNNpp8MPuKceWL9mrJitj7vkAFqoAAAAAAAAAAAAAAAAAAGe2P2oqbMal1lPMqcsKpT/FHvX5kb70fVaWs2Ma2nzU4v5p/hkuxo5mMhoWu19nrvrNLm4596D4xku5ozZsHV5x3asGfo8p7OlzEa3s1ba4v+ZUIzl2TXsyX+pcfoRbZzpTttQio6qv4ap3vLg35818fmTm0vKd7S37OpCpH8UZKS+aMUxakt8WreEAuuiS3lPNnc1afhJRnj9D4XRNCpUzeXtWp/pSfzbZskEvz5PlHw+Pv0otpGwFlpclKNHrpL71V7/8At930JQlurgfFevG2p71xOMIrm5NJL4sh2v8ASZZ6VFq1l/FT7oe7nxnyx5ZI+q8/KXopCY3FeNtRc7iShGKy5N4SXe2c+beatb6ttLOppEd2L4Sly35rnNLsz9M9pb7UbZ3O01XFxLcp54UocIrxfe/F+hg6dLd4vmasGOaztk5GWLRpUABsYQAAAAAAAAAAAAAAAAAAAAB8ygpcz2hUqWtTetakoPvTcX8z0EZpEpxeYZSltbf0FiF5W+M5S/VirthqFVYld1l5TlH9DFgr/DCf5rPLq6rXs83dSdR98pN/qUo0PxMrAlGOEZyzLyMd1cD0AsQAAHgAAAAAAAAAAAAAGS0XQbjXKjjpdF1N3m+EUvOTwjGk42fcdX2JnY2dxC3rqtvtTluKrT3cY3vp4IryWmsbhZjrFp80er7MXVvqsbWtQlGrPO5HMcSwsvEs7r4LvMppezDoXFanrtCrvRtpVYxhOnmK7JT4+nPwL7Q7Z6NtxaR1C9pV91Sy1Uco0luS9hyfBHzs1eRWs6lK4qRW/QulFuS9qTnwSzzbK7XtpZWld+bCaZshearbQq2Nu5wnvbst6CXsvD5vhx7z7/4KvlbzqO1mo0872XFPhz3VnMvhkyt/qHV7CafTt6yUo1aspRUuKaqycXJdnPgSSOrwl0synK4j1XVbqlvrcx1aeM5x73qJyX/v+HsY6f77a60XQLjXJNaXRdTd955jFLzlJpFDU9KraVedTqFKVOfD2Xxyu9NcH8Cc7G3tK62RnaQjbzqqs5unXm4RqQa4STXNrHLwLLavVlHV7Wnc/wAO40FzoSlUUVLHsty/DjsJVyWm+teSF6VinVHdFa+j1reh1lam1Hv4PHmuw8tdKq3dNSt6bkm2s5SM3TSsrqrXuK8JwmpYipZc88lgx1Svu7MwjCWH1rbSfHGGadQxxeyitDrtS+yfs8+Xp3/AtrOxqXs2raDk1z7MebZIp3iltPSk6i3VDDe9w91lDSa8J2lWl9m5ObaU3uqUe7I6YOu2mJWmVIX8aVeDTk1w4cV24fIrappUrfVOqtot5w49ra7/AJ5LvVLnFajTl1SUGn9nJvdy+TbLmlewp7S1XKUcSjuxk3wzhdq7BqDqt3+mDvdMq2MU7mDin25TWfgLnTalrRU7iG7FtJPK45WTL6nVdtpkqe7QiptezCUpPhx3iz2kqqreQ3JKSVOC4PPeeTEQlW0zpiQARWAAAAAAAAAAAAAAAAAAAAAAAAAAAAAAAAAAAAAAAAAAAAAAAAAAAAAAAAAAAAAAAAAAAAAAAAAAAAAAAAAAAAAAAAAAAAAAAAAAAAAAAAAAAAAD/9k=;" vertex="1" parent="1">
          <mxGeometry x="179" y="-286" width="140" height="140" as="geometry" />
        </mxCell>
        <mxCell id="HSzltY3X0y76gQs0_PpO-18" value="&lt;div&gt;&lt;b&gt;&lt;font style=&quot;font-size: 16px;&quot;&gt;Realtime Neighborhood Safety + Traffic&lt;/font&gt;&lt;/b&gt;&lt;/div&gt;&lt;div&gt;&lt;font style=&quot;font-size: 16px;&quot;&gt;&lt;b&gt;Data&lt;/b&gt;&amp;nbsp;&lt;/font&gt;&lt;/div&gt;&lt;div&gt;&lt;span style=&quot;background-color: transparent; color: light-dark(rgb(0, 0, 0), rgb(255, 255, 255));&quot;&gt;&lt;font style=&quot;font-size: 16px;&quot;&gt;(Data Ingestion)&lt;/font&gt;&lt;/span&gt;&lt;/div&gt;&lt;div&gt;&lt;br&gt;&lt;/div&gt;" style="text;html=1;align=center;verticalAlign=middle;resizable=0;points=[];autosize=1;strokeColor=none;fillColor=none;" vertex="1" parent="1">
          <mxGeometry x="27" y="6" width="320" height="90" as="geometry" />
        </mxCell>
        <mxCell id="HSzltY3X0y76gQs0_PpO-116" style="edgeStyle=orthogonalEdgeStyle;rounded=0;orthogonalLoop=1;jettySize=auto;html=1;entryX=0;entryY=0.25;entryDx=0;entryDy=0;" edge="1" parent="1" source="HSzltY3X0y76gQs0_PpO-26" target="HSzltY3X0y76gQs0_PpO-110">
          <mxGeometry relative="1" as="geometry">
            <mxPoint x="2512.818181818181" y="-563.545454545455" as="targetPoint" />
          </mxGeometry>
        </mxCell>
        <mxCell id="HSzltY3X0y76gQs0_PpO-26" value="" style="shape=image;verticalLabelPosition=bottom;labelBackgroundColor=default;verticalAlign=top;aspect=fixed;imageAspect=0;image=https://www.unimedia.tech/wp-content/uploads/2023/11/AWS-Lambda-e1701195645609.png;" vertex="1" parent="1">
          <mxGeometry x="2127" y="-374" width="285.31" height="100" as="geometry" />
        </mxCell>
        <mxCell id="HSzltY3X0y76gQs0_PpO-29" value="" style="shape=image;verticalLabelPosition=bottom;labelBackgroundColor=default;verticalAlign=top;aspect=fixed;imageAspect=0;image=data:image/png,iVBORw0KGgoAAAANSUhEUgAAAScAAACrCAMAAAATgapkAAAA6lBMVEX///8tcrgaR29SlM8fW5gAAAAZRWwjYqM4e74dTnsscbgYRGkoZ6Usb7OzyeIYarTv9PoOQmvn5+eRkZFcdpHx8fG3t7fV1dX39/cLCwt6enqLi4vf39/AwMCcnJxpaWmtra1VVVXJyckATZFFjcyXl5dEREQAMWFvb28dVY09PT0iIiJNTU1gYGArKyu7ytwAO2caGhrO1982bJ1HhbwdVo8bT4CKnK80NDSwsLCgutk/bqIAV51IdKaBpc/W4vCntMNplchQbIl0iZ8mV4MAY7G9yNJBYYJEgLVKcpwuYpEtUneEl6lrgpoyq0bUAAAKiklEQVR4nO2dC3eiSBaAgQQmGtOOMAgC4mOj7QsTO4lt0pPd2R47nU16/v/f2XoKGkBE0QTvd06OD5BYn1WXS1EUggAAAAAAAAAAAAAAAAAAAAAAAAAAAAAAAJAhVw+f4nj4ZB76G74Hrr79WY5HPPl06C95cK6+/ev0NzGes5PLy+M2hS2dJvB0cnJ5crytj1pK5omY+v3Q3/gQXD1SS0k9HWed8i0l93R8pniL29QTMXXoL783li1t5ul4TK1a2tTTcbS+YFxK6yn/psIspfGU89b3V5ildJ6Qqf8eujhZ8fQ5VFNKTyfivw9doGxQP0s79XRWfjh0kbLg94qyY0/ij6tDF2r3mD8r0o49FcXyfw5drJ3zz7W0e09FMW+Hxl+xpp17Eotnhy7Ybvnrs5SJJ7Gcq+zgC9WUgSexnKPsQGWaojwVYzUVYz2JP3KTmOuvlRhPd9PCOm5uYzyJ5ZxkB+b3aynKE5KkKNIaFKVSeHmO9FTMSXbw90LTiqf+VFovibuqSKuquCeUHeSh8+CrrynoqV9ILolXK2n+eBviSSzfHrqQO+CPil9UX9KGjha1SvGDle9JLOcg3Vz1dLdBawt3Jb3c5t3TtpJ8Vc/oODi3nnYhiatS+mIxoScV8e5D/ZKn0CIr52sIt6sUStxUvCdVRrj7Km9aYj0hA4XpXWkNj3OpUnnrSlFOE3lysafBvsqblkhPiqIgR+T4LvbAhRy33D6+SJXzVVfnhSSextiTrO6rwCkJ86TgetS/2/Q4+PkF5RNLjVBRSms9ObI8RKo6eytxOlY94XJO+6n7C55v5lLQ1TkK58VYT5os92zkir6qu64hOPZo6NUFwbBGw1aVvK82rdZ41uro6LnpLjDwMsMeTbpWnayHljVNoW51h412Zp5IOFpylKpfBTXCgsIb4XnhIr4+obpUbaOGR4os9GTZs0hDlF2PPWIVMqOG2qcuL2iiZTZ77uHP42XNEX1jp6KCnqZ3q45SeSKunl9YrULhPM4TNqDqQ1m2yUvqaMiKTh6HqA4hkZPZbIJe9VY9dRYresJiGYl5o116+luqRPcXpPeE8vGLOalTlevX/8V4ssi+rsEbHvbkqqY6QI8d1dTxo4OCmOvopmmiGjZBmZZBGJLoj7OKoWOqLfRYp57GVd0kFXCXnhBP15l4EsXS/Fy6/hX7v00awqu8mViseDbbBdrUEwOvxjNSj7ZVl/rBuwNcobAnmy/esacva/ozU3rC51tKheuvsf+bRSZcKyzuyQz3pKpC3fdkMbMN7qOLKpJJPJENNT6QJ9z3VIr31MMeDMMZ0DgU6cnxeBiinjosiAsoZtfIOy2yhQw9Pf2M6/fd8jwCSkMfYqKTPvFjMmk+EZ5IuBnXZO7pHj3RhH16+vLHdSWbOM6z+PJZ9KmEekAT3pVFeUJRbOToepMtbXMb+2t338P7M3foSSz+iKxRuDQkYWyiilXTozzh8FVlWk0as1tsCx0Wp1Q/jmfiKaw/c8eeovNM0y+wRVVEe3IFvlRFTickNWirxNlQFfQW/Xw+PTV5NKZNyYtsdyTDtFh8qvpN1fbTcZpX5tNTV/Y7CmTyvLfiyaKe2iyChXhiKTzSZAY97Tp/OqgnW9MW/QRNTbMNoappGi5v3dZsnCfU0Wv8aDQGg54hdPBSA32MYpODX8PqDro9dhyM3iVHzvfoSW48bUJsz3D23cYfxtOBAU/JAE/JSODpIp7j89S/62OmGDJih3W0rUWSCoX5fP7y8nJzc/P4+Pz8fHt7cYEV4cGH8f2+H4R/Xl9feXf2ctE3ZPHJSqVC/pC86bxfKpXO8jCc1TTNp8/rLaQDWbv+ZZo50IT5kpknxJp+uo8EeEoGeEoAik/ZeWLx6d0PRkkA3t9V/GKl3uMtPnZ+TnZ3aH9XKEynd6elb2dnOQjkwfzpDsHzJ5pBvbUXlT+tpk+3ZxdikaZPgfxJrRLqRkalMfn2df6OQd9pbzvOY7/5+KI/fLjTTo8FKt9+rcfELLrxrO22vN/jO+TJ6zUaeADATI/7WilRa3IXbR93ArPhBZosa7ZtDbY9jb53Tw7/+lkMDUOe6Mi8qsz+k8ZOWzUXPczp2LsnFprc6O+t62bguW6GLTODb6OV2LOFJ3zGjwxg4Z6EmtxIqYhwKE/CQB6jX7nX4+fBex1B7fUE3W0NJzPaG9y2RsPapNshq2gNQ7j3hpNBE22mMZ6MbfbJJvrA2KuveMLd5mrQU5d6+3CeNFyONj0LTALwPa4DnRqNulgUGaMz5KeuRrI3oMvcUSAym17glELQk4G3uFSftorkB/NUJ4oGrDU05ZpJzsX1DDIoZ4wqi263ddPUbRqSUWxuoNcGEjmo6qY+k2U2IMHVTdWizTjgSaXquKdOcNzLR/JkkPOSLhswMMC/tsNjVic4rlWfkLK3mFGLDIEikdohH6FiGuQ0VMCTPiYn4lG19Vqt1kQebpezHcyTQ9qFSluHQ9536NlxsnMK5IVd0gq5pw6ueQI5pecQz3TNNql1AU/mjLRXbZGxbTdEfb/jC97UJ1QPcF7jyjMhzJNqGKq+7Elb8tSTBzScU0PB+jRk9ammOo5juPJ2cXy/41WW41ObFlfHVaYZ4qmNzxfLk1qMJ4+PT0Ct016NT5oQiONtWnPT8/R9f+OfAp5sGoeFMVLk0Ci14gmVbNS516x4T6OFJ23JU5tubOFJoPVrCzIcTyeKp0v9T74ncyx3yRMXPXZoEVY8jZiDuHZnyWOaY9LPBjz16O/gexps1/Ay9VRa6afzPdncCcqSnBE9GFvxxIfMxXmq8t39PXnie2qz/Mr3tPWhcEaexGKpcC5Vlsb7ck8q+rX5YYQn90gUD/FEapkxifFk1miAQlEbHy9yTyYK2xN9yVNvu4H3v35KGcXxiykdP14JjB9HnkYom8HD4Bv8AK0t8xxoxRPKHe12s8Gy83BPuELN3GZnQl8hTzO0fZy4zxYH3A3Pa3g8Y09LZtcjzNmVG4r029v+pxq7bIUw5lmAsexJJ7u72r1H2h8/PrNZZso8Cfd0KOyM1lOeLXVd9jMs+p+6gf+4paddXd9y81JQKqHXt+j0UgJnqXfR4gHWNFg/JFoNF9Os23ZdR0kUXt0xaAVBKVVwHfSkalt23eRbIPjbV9+8s70n5kqa9u/SenpzvdRdce15c34s/K4JvU6RXse5oafLZ3KZ1Mr1d2TWnlhPVXn4AU7IxF/P2T9NeD0nqkYh13NOi3TSnmhPhlN//9coYtZcH6xI668Pvpkrbx0luz5Y5+N03z1ZXm9eXH8dtdZqaR+g1WU3f4GUfP6CD0F282Hkdzwd2b0lmfIpXtJN7udXYWw+qRFzpOR3vp6o+Z82boFk/qe3/SpiTuZ/ip5PbJNghVbM+XxiMD9dUtbMd9iH+Q4ZMH9mQmA+1oTA/L4JgfmiEwLzjycD5rNPCNwfISEO3G8jGXD/loTA/YASAveXSgrcrywpcP+7pMD9FJMC9+dMCtzvNSlw/+CkwP2okwL3N08KNrXe0+XlcUXvMK6+/VmORzyyfVwUVw+f4ng47hYHAAAAAAAAAAAAAAAAAAAAAAAAAAAAAMCR8X/nc3eNeFPI2QAAAABJRU5ErkJggg==;" vertex="1" parent="1">
          <mxGeometry x="3731.99" y="-315" width="276.03" height="160" as="geometry" />
        </mxCell>
        <mxCell id="HSzltY3X0y76gQs0_PpO-31" value="" style="shape=image;verticalLabelPosition=bottom;labelBackgroundColor=default;verticalAlign=top;aspect=fixed;imageAspect=0;image=data:image/jpeg,/9j/4AAQSkZJRgABAQAAAQABAAD/2wCEAAkGBw0NDQ0NDw0NDQ8NDQ0NDQ0NDg8NDQ0NFREWFhYRFRUYHiohGBolGxUVITEhJikrLi4uFx8zODMsNygtLisBCgoKDg0OGBAQGislHx0rLSstKystKy0tLS0tLS0tLS0tLS0tLS0tLS0tLS0tLS0tLS0tLS0tLS0tKy0tLS0tLf/AABEIAOEA4QMBEQACEQEDEQH/xAAbAAEAAgMBAQAAAAAAAAAAAAABAgYABQcEA//EAEkQAAEDAgEHCAUJBAkFAAAAAAEAAgMEEQUGBxITITFxMkFRYYGRobEiU3KCwRQzQlJikqKywiNDc9IVFyRjg5Oj0eI0VGSE8P/EABkBAQEAAwEAAAAAAAAAAAAAAAABAgMEBf/EACwRAQACAgECBAUEAwEAAAAAAAABAgMRBCExEhNBURQiUmFxMkKBkSMz8aH/2gAMAwEAAhEDEQA/ANWvAeSUCgUEggQUUqBBQSQKBUCgxBJFIQKgkECgxAoEIJBQKBQKBBRUggUCgrwK2sCoEIFAoJBFKBUCCgkgQgVAoG6KUCCgQVAhBJBiBQSBUCEEkGIFBK6KQUCgrq2sEgUCgQVAoFBIIpQKgkCgUCECoFBl0EkUhAgqBCCSDECgkCoEIJXQYgUCCilBXltYFBIFAoEFQKBQSCKUCoEFA3QN0ErqBQN0UoG6BBUCEEkCgxBIFQIKCV0GIFBl0FfW3TEoFBIFAqBugUEmAk2AJJ3NAJceAG9FbqgyWxGexbSyMB+lN+xHc7b4LdXj5Ldo/tsrivPo3tLm5qXfO1MMXSGMdMfNq3RwrT3nTbHGme8tpT5uaYfOVM7/AGQyMeR81trwq+ss440esvazIfDG8oSO63TOHlZZ/CYoZeRSExkzg7d7Ivend/MpGHBH/Ty8cJf0Dgv1Kb/O/wCSy8rB9jWL7A5N4O7cyL3Z3fzLGcOCfWDwY5RdkVhruSHjrbM4+d0+ExT/ANPJpLyz5vqY8iednHQePJY24NfSUnjV9Gsqc3s7fm6mKToD2OiPeCVqtwbR2lhPHn0lp6zJbEIbk07pAOeEiXwG3wXPbjZK94/prnDePRqXNLTZzS0je1wLXDiDtC0zGu7XMTDFEKBQYgkCoEFBJBiBQV9bmLFAhAoJAoPVh1BNVSCKCN0r7XIbuaOlx3AcVa0m06hlWs2nUL7g2bloAdWS6R54YCWsHUX7z2WXdj4X1uqnG+pu5K/B8KBY3UxOG+OJusmPG1zfit02w4ujZ4sePo0ldnJbtFPSuPQ6dwb+Ft/Nabc2P2w1W5PtDQ1eXOJS30ZWQA+qiZfvfdc9uVkntOmq2e8tZPjdbJy6uod/iOaO5tgtU5Lz3lh5lp7y8b5Xu5T3O9pxPmsNz7puUdEHmHcom2atv1W9wV2JBo6B3BQfVkjm7Wuc3g4jyTc+67l7IMXq4+RUzt/xXEdx2LOMl49WUXtHq2dJlniMe+Zso6JY2X72gLZXlZY9ds4z3hvKLOFuE9Met0LgT911vNdFed9UNteT7w3cWK4ViIDHGJ5dsEc7dCS55hfn4Fb4yYcvSW2L0u1mK5BROBdSyGI80cpL4+AdvHitOTgxPWktduPH7VLxHDp6V+rmjMbjyTva4dLTzrgvS1J1ZzWrNe7zLBixAhAoJAqBQKCvraxKoxQN0G0yewiSvqWU7Dog+lI/foRi13dZ2gDitmLHOS2oZ46eK2nUaqsw/AqZsYFieRG30ppnc7nH4nZ5L0ZtTBXTtm1cUOfY3lhW1mk3T1ER2CKEltx9p+8nuHUuHJyL3cl81rNALDds4LnaigUCEVJAqCQKBQN0CFAoEIMO1FbrB8pqujsGSayMfupbubbqO9v/ANsW7Hnvj7NlMtqr7h+KUWLwuhe0aVrvhfym/baefiF6NMmPPXUuutq5I0oOUWDuoagxE6THAvied7mX3HrHOvNzYpx205MlPBLWLS1sQKBCCQKgUFfW1iUCqMUF1zVShtdMz1lMbe48fzeC6+H+uXRxp+bT75zMGnFR8tAdJC9jGOsCdQWi23oad9+lZcvHbxeL0XkUnfiUcFcTmKgQgUCgldAopUEgUCgQUCoFBgQSRVpyDwmaSqjqgHMhgLyX7QJSWFugOkelc8F18THabxb0hvwUmbeJ7c5st5qRn1Y5nH3nMA/KVnz5+asMuT3hTVwOYoMQKCQUDdBXgVuYJKKUCqLHm+n1eKU/94JY+9hPwW/jTrJDbgnV4dTxfG6akkiiqHaDZw/RkcLxXba7XHm38NhXo3yVrOrertvetektFi2QdDVDW07vk7ni4MXpwO69HcOyy034tLdatdsFbdYVDEchsRguWxsqGjc6B13EdbXWI7Lrktxclfu57YLwr1VBJCdGVj4j0StMfmue0TXu1TEx3QCiFAoJAopQKgkCgUCEE6eN0p0Y2ukPRG0vPgkRvssRMt9QZH4hPb9kIW7PSndo7PZFz5LfXi5bemvy21w2la8KyGpYbPqHmocNpB9CEcRz9psuynDpXrbq31wVju3eHYvSzSvp6ch4hYC50YGqbtsGg852cy348tLW8NfRtreszqFCzgTaWIOb6uKJvbtd+pedzJ/y6cmefnVu65GlJAoMQKBQV8LcwIKgkopQe/AJ9VW0cn1aqnvwdIGnwctmOdXj8sqzq0fl0POzDekppB+7qtE8HRP+IC7ebHyxP3dfKjdYc+wrGaqjN6eZ8QvcsBvGT1tOxcNMlqfplyVvavaVuw3OVO2wqaeOT7cJMbvuuuPFdVOZP7ob68mf3QsFPl5hcw0ZXPivvbNC5zPvNBat8crHPdtjkUnpL6iiwGr2tbQvJ543MjdfsIKvhw369F8OK3s+UuQWGSbWiVn8OYkeN1jPFxT2PIpPZ45M2tKeTVVTeo6hw/JdY/BV95YTxazPeXxdm1ZzVj/eiafIhYfBe0nw0e6P9W3/AJn+h/zV+C+6fDT7ptzbs56x/uxNHmSp8F7yvw0e77R5t6Ycqqqj1AQtH5FlHBr7yfDV95eyLITDWbXa5/8AEmsPw2WXwmKO8s/IpHd9v6OwSl2ubRtI9Y9rz+IlZeXgp7L4McIzZaYXANGNxktubBE4N7yA3xUnlYq9knPSOzSV+cOQ3FPTtZ9uYl5Hutt5rRfnT+2P7a7cj2hWMTxqqq/npnPbv1Y9GP7o2d65L5b3/VLRbJa3dcM2EXoVcvS+OLubpfqXbwI6Wl0caOkyq2VE+sxCrd0TOYPcAb8Fx57byS05Z3aWsC1NZUEggUGIFBX1uYMCCQKgkoqTHlpDhvaQ4dRG1WJ1O1dgy9YJ8HkeOYQTj7zT5Er0+RHixbdueN49uPry3CUCCgVB9Y5ns5D3s/hvcz8pWXin0ldzHZ7IsZrWcmsqx1fKJbeasZLx6z/bKL2j1ehuUuIjdW1Ha4O8wr51/qlfNv7pjKnE/wDvZv8AT/lV8/J7ynmX95BylxE762o7HAeQU87J9Ur5t/d8n4zWu5VZVn/2JQPAqTkvP7p/s8dvd5ZJ5H8uSR/tvc/zKw8U+7GZme6It1KIkgUCFB0/N3Fq8O0zs1k00h4CzfJq9XidMUy7sEao5tUy6ckj/WSySfeeXfFeXbrMy47d5QUQgoEFQIQSQYgr4W5gUGIJAqBUHY4P7Vk8Ol+Hke81lvML1v14f4ehHzYnHgb7eleS4CkhQKCQKBQerDaKSqmjp4gC+Q2bfYBYXJJ5gACVa1m0xEerKtZtOoXv+rUav/qzrberGq0ui172Xb8D079XT8N07qNiNFJSzSU8os+M2dbaDcXBB5wQQuK1ZrMxPo5rVms6l8AsUKBUEgUCgQg6thZ+T4I124to3ydrml3xXrY/lwfw76/LjcqC8hwG6CSKQgQVAhAoK+tzEhEKDEEgoOw5tZNZhEbDt0JKmI+yZHOA7nBenxp3i07+P/r1LkJiMZMZ3xkxni06J8l5kxro4YjRQYoFAoJAoLFkHXx02IxOlIayRj4dM7mOdYgno2i3at/HtFckbbsNoi3V2O4te+zffmsvW29BV8p8kYsRcKhkxjl0AwO2Pie0Xtcb+feCuXNxoyT4onq0ZMMX6w57i+TdbREmWElg3TR+nGeJG1vaAuDJgvTvDkvitXvDUgrUwSQKgkCgHXsbbTY2HSeZJ+w6xliRT4PLGPVwQDgXtafC69Xkz4cP9O/L0xuV3XlOAqBuilAgoEFQN0FfW5iUCEQoMUHUs0c96aqj+pO144OYB5tK9Hhz8su3iz0lRMp4NViFYzdaokI4OOkPNcWaNXmHNkjV5hrQtTAqjFNBCBQSCD0/L6jV6r5RUau1tXrpdXbo0b2t1blfHb3lfFPu9mD4/WUR/YzODeeJ93wn3Tu7LLOmW9O0sq5LV7SveD5waeWzKqP5O47NMXkhPHZdvjxXbj5dbdLdHVXkRPSz21+SmG4gzXQlkZf6QmpS0scTzlo9E+aytx8eTrX/AMZTipeNwp2LZEV1NdzGiqYPpQgiS3Ww7e4lcmTi3r93PbBavZW3NIJaQWkb2uBa4cQdoXNMa7tLFB7cHh1tVTR/WniB4aYPwWeON3iGVI3aIdbymwc19MYBJqjpNe12jpNLhuBHQvXz4pyV8O3oZKeKunKcXwioopNCZhbe+g8bY5B9l3w3ryMmK1J1LgvSa93iBWtgUCCgUUgoFBXgVuYJBFIUCEQoL9miqLVNXF9eBkgHsPsfzhdfDn5ph1cWfmmGpzjw6vFZ/wC8jhm7C3R82Fa+VGry1541eVbC5mooFUYoFBIIEFAoG6g9VBiE9M7TgmfC7eSw7Dxadh7Qsq3tXtLKtpr2XPCM4sjbNqodYNxlgs1/EsOw9hC7MfMmP1Q6K8mf3LK2XCMXbonUzOtyXXiqG8Nzh2Lo3hzQ3f48jR4pm6Bu6ln0eiOe5bw0xtHaCtF+F9MtduN9LwZN5M1lPiVOZoCGMc9xkaQ+O4YbbR123gLXhwXrkjcMMeK1bxtusucoKiiqKQQuA9CR8kbgCyRtwAD47Qt/JzWpaNNubJNZjTYYVi1HjMD4ZGDS0RrYHnaPtsI5r842jqWdMlM9dSyreuSNOe5S4M6gqTFfSjcNOF53uZ0HrB2dy87NinHbTky08E6asLS1lAhFKDEFfW5gQUElFKBCC1Zs5tDFYtuySGeLiSGvH5CujizrI28edZGyztwaNZTS2+cpnMJ6Sx5P61nzI+aJZ8mPmifsowK43MkFFKBVGKBugQgkCgVAhAoHo6jcdR6Qg32F5XYhTWDZta0W9CcGQW6Abhw71upyMlfVtrmvVfskcqjiLpI3Qap8TA9zmu0ozc2sOcLvwcjzJ1MOvFl8b2YnJhc0phqTSulYANGbRD2tO0WJ5tqzvOK06t3ZWmkzqXypMLwqmeKiPURuaDZ+u2AEbeeylceGk7jSRWlesKVl7jUNZPG2E6bIGvbrByXucQTbpA0Rt4ri5WWL26ejmz3i09FZuuRoIUCgQgxFV9bWBVCCgkim6g3GSNRqsSon7v7Qxp967f1LbhnWSGeOdXhec70F4aSW3JlkjJ6nMv8ApXVzI6RLo5UdIcwXA40gVBJRSgVRigboFBIFAqBCBQKDomaqD0KuXpfFGOwE/qXocGOky7OLHSZVXK2fWYjVu3gTFv3WhvwXJyJ3ks0Zet5aiw6B3LS1pBBJAgoFQKDEFfC3MCopVCCgkivpDPqnsl3ap7JL+y4O+CR3N66uv50ItPCnSAX1c1O8HoDnhh8Hr0eV1x7d3JjePcOPrzXAxBIFQSUUoFUYpIUCgkCgVAhAoOrZtItHDjJu1s8zuxp0P0r0+H/r27uPGqbcxqp9bLLL6yWST7zifivNtO5247TudvmsUKCQKBQIQIUCgrq3sErqBUUqhBQJFwQdxBB4FB2jE71eTz3b3Pw9knvtaHebV6d/nw/w77bticauvLcBQIQIKgkopQKoxSQoFBIFAqBCDruCk0uBMfuLKOSb3nBz/Ny9XH8mB30+XE5GwBoAG5oAHYLLynBEaTCBBRSoEFBJAhBl0FeW5gUEgoFRSqEFB2nIZwqMDjjO20U8BHAubbusvTwzvE9DFO8TjNiNh3jYeIXmT0l5+tFQKDEEgVBJRSgVRimgoFBIFA2vsG87BxQ1t17K13yfBpGDZ+xhgHaWtsvVzzrD/DvyTrG5GvJcBugkEUoFQIKCSDEFeC3MCgQVBIIFRSqOtZoKjSoaiM/uqt1h9l8bHfmLl6PEndJh28Wd1n8uaY3Bqqysi+pV1LR7Otdo/hIXBkjVp/LktGrT+XkCwQhEKBCBBUElFYgkqMUkIQKD24PDraqlj36dTTtPsmRul4XWVI3aPyyr+qHR86k+jRQR+tqmX9lrHu8w3vXoc2dUiPu6+TPyx+XLwV5jiKBQSCKUCoJAoMQV5bmBQKBQSBUDdRXSMzlRZ9bFfe2GQDrBc0/Bd3DnvDq4s9ZhXs4lI6HFaklpDZi2ZhO5wLGgkdoWnkV1eWrNGryri52soEIhQYEEgoJKKxBJUYoFBYsgaV0uJ05DSRCXTPI3NAaQCe0rfxq7yQ24a7vCwZ2J/To4r7myyEdZLQPit/NnrEN3JntCgrhchBUCgUEgilAqDEFfW5iUQoFAhBIFQbLJ/GZcPqWVMW0tu18ZNmyxnew+BvzEBZ48k0tuGdLzSdw67S4jhOPQiN4je8DSMEtm1ELjztO/3mr0ItjzR1d0WpljqruLZrjcupKkW9TUNvbhI34grVfifTLVbi/TKq1+RuKU99KkkkA+lBaYdw2+C5rYMlfRpthvHo000EkZtJHJGeiWN8R7nALXNZjvDXqXzDh0hYpuEkCE0EKKdIdIUTb6wwvkNmRySHojY6R3c0ErKKzPaGXVuaDJHE57aNJIwH6U1oR3O2+C21wZLejOMV57QtGFZtDcOqqgW9VAN/F7vgF0U4f1S3V431SsNViGF4JCY2CNryLiGOzp5XDncd/a5brXx4Y6Ns2pijUOW45i0tdUPqJdhdYMYDdsbBuaP9+ckrzcmSb23LjvabTuXhBWDAqBugUCECCipIMUFfC3MEggxAoFAgoJAqCTHEEEEgg3DgbEHpB5k2qyYXlzilNYCfXsH0Khoktwdsd3krdTkXr6ttc16+qz0edUbNfROPXBI0+D7ea6K8z3hujle8NzBnFwmYWfro7800BcO9tws45OOe7P4jHPd9ji+T05u59ASfWRsafxBZ+PFPsy8zFPsiKLJuTaG4aeDox8Vj4cG/RPDhsn/QmT3q8P/wAxn+6y8vEvl4gcPycj2luHDi+M/FYeHBtPDhhIYpk/Dta+gBHq2McfwhZePDHsvjxR7PnNl/hMOxhkktuEMBAPAmwWM8nHXsnn447NTWZz27dRRv6jPI1vg2/mtc82PSGueV7QreJ5bYlU3Gv1DDvZTtDL8XG7u4hc9+Te3q1WzXt6q85xJJJJJNySbknpJ51zzMtTEEggQUCoG6BQKBugboqvgrawIQKKUQoFAhQSBQKilUIKCQKgxAho6B3JpUgiG6BCgkFFKBVGKBugQgkCgVAhAoFAoK+FtYEFFKCQQYgUCECFBIFNBUUqhBQSRTdQIKIUGIJAqCSilAqjFA3QKCQKBUCECgUFeC3MCgkFFN0EkGIFAhAoJBQKilUIKCSKVA3RCgxBIFQSUUoFUYpIUCgkCgVAhAoK8tzAhAoJBRSgUUohCBQKCQUCopVCEEkUqBRCgQgQVBJRSgVRikhQKCQKBUCgr63MGBBIIHnUVJAhAoFBgQSCBCgQoJKqQgUUoFRCECgQoJKKUCgVZCoFAoJBBiD/2Q==;" vertex="1" parent="1">
          <mxGeometry x="3777.5" y="-515" width="185" height="185" as="geometry" />
        </mxCell>
        <mxCell id="HSzltY3X0y76gQs0_PpO-33" value="&lt;div&gt;&lt;font style=&quot;font-size: 20px;&quot;&gt;&lt;b style=&quot;&quot;&gt;Feature Engineering&lt;/b&gt;&lt;/font&gt;&lt;/div&gt;&lt;div&gt;&lt;br&gt;&lt;/div&gt;" style="text;html=1;align=center;verticalAlign=middle;resizable=0;points=[];autosize=1;strokeColor=none;fillColor=none;" vertex="1" parent="1">
          <mxGeometry x="2167" y="-252" width="211" height="50" as="geometry" />
        </mxCell>
        <mxCell id="HSzltY3X0y76gQs0_PpO-43" style="edgeStyle=orthogonalEdgeStyle;rounded=0;orthogonalLoop=1;jettySize=auto;html=1;startArrow=classic;startFill=1;" edge="1" parent="1" source="HSzltY3X0y76gQs0_PpO-39" target="HSzltY3X0y76gQs0_PpO-42">
          <mxGeometry relative="1" as="geometry">
            <Array as="points">
              <mxPoint x="510" y="1052" />
              <mxPoint x="510" y="1052" />
            </Array>
          </mxGeometry>
        </mxCell>
        <mxCell id="HSzltY3X0y76gQs0_PpO-39" value="" style="rounded=0;whiteSpace=wrap;html=1;" vertex="1" parent="1">
          <mxGeometry x="63" y="833" width="380" height="450" as="geometry" />
        </mxCell>
        <mxCell id="HSzltY3X0y76gQs0_PpO-40" value="" style="shape=image;verticalLabelPosition=bottom;labelBackgroundColor=default;verticalAlign=top;aspect=fixed;imageAspect=0;image=data:image/png,iVBORw0KGgoAAAANSUhEUgAAAScAAACrCAMAAAATgapkAAAA6lBMVEX///8tcrgaR29SlM8fW5gAAAAZRWwjYqM4e74dTnsscbgYRGkoZ6Usb7OzyeIYarTv9PoOQmvn5+eRkZFcdpHx8fG3t7fV1dX39/cLCwt6enqLi4vf39/AwMCcnJxpaWmtra1VVVXJyckATZFFjcyXl5dEREQAMWFvb28dVY09PT0iIiJNTU1gYGArKyu7ytwAO2caGhrO1982bJ1HhbwdVo8bT4CKnK80NDSwsLCgutk/bqIAV51IdKaBpc/W4vCntMNplchQbIl0iZ8mV4MAY7G9yNJBYYJEgLVKcpwuYpEtUneEl6lrgpoyq0bUAAAKiklEQVR4nO2dC3eiSBaAgQQmGtOOMAgC4mOj7QsTO4lt0pPd2R47nU16/v/f2XoKGkBE0QTvd06OD5BYn1WXS1EUggAAAAAAAAAAAAAAAAAAAAAAAAAAAAAAAJAhVw+f4nj4ZB76G74Hrr79WY5HPPl06C95cK6+/ev0NzGes5PLy+M2hS2dJvB0cnJ5crytj1pK5omY+v3Q3/gQXD1SS0k9HWed8i0l93R8pniL29QTMXXoL783li1t5ul4TK1a2tTTcbS+YFxK6yn/psIspfGU89b3V5ildJ6Qqf8eujhZ8fQ5VFNKTyfivw9doGxQP0s79XRWfjh0kbLg94qyY0/ij6tDF2r3mD8r0o49FcXyfw5drJ3zz7W0e09FMW+Hxl+xpp17Eotnhy7Ybvnrs5SJJ7Gcq+zgC9WUgSexnKPsQGWaojwVYzUVYz2JP3KTmOuvlRhPd9PCOm5uYzyJ5ZxkB+b3aynKE5KkKNIaFKVSeHmO9FTMSXbw90LTiqf+VFovibuqSKuquCeUHeSh8+CrrynoqV9ILolXK2n+eBviSSzfHrqQO+CPil9UX9KGjha1SvGDle9JLOcg3Vz1dLdBawt3Jb3c5t3TtpJ8Vc/oODi3nnYhiatS+mIxoScV8e5D/ZKn0CIr52sIt6sUStxUvCdVRrj7Km9aYj0hA4XpXWkNj3OpUnnrSlFOE3lysafBvsqblkhPiqIgR+T4LvbAhRy33D6+SJXzVVfnhSSextiTrO6rwCkJ86TgetS/2/Q4+PkF5RNLjVBRSms9ObI8RKo6eytxOlY94XJO+6n7C55v5lLQ1TkK58VYT5os92zkir6qu64hOPZo6NUFwbBGw1aVvK82rdZ41uro6LnpLjDwMsMeTbpWnayHljVNoW51h412Zp5IOFpylKpfBTXCgsIb4XnhIr4+obpUbaOGR4os9GTZs0hDlF2PPWIVMqOG2qcuL2iiZTZ77uHP42XNEX1jp6KCnqZ3q45SeSKunl9YrULhPM4TNqDqQ1m2yUvqaMiKTh6HqA4hkZPZbIJe9VY9dRYresJiGYl5o116+luqRPcXpPeE8vGLOalTlevX/8V4ssi+rsEbHvbkqqY6QI8d1dTxo4OCmOvopmmiGjZBmZZBGJLoj7OKoWOqLfRYp57GVd0kFXCXnhBP15l4EsXS/Fy6/hX7v00awqu8mViseDbbBdrUEwOvxjNSj7ZVl/rBuwNcobAnmy/esacva/ozU3rC51tKheuvsf+bRSZcKyzuyQz3pKpC3fdkMbMN7qOLKpJJPJENNT6QJ9z3VIr31MMeDMMZ0DgU6cnxeBiinjosiAsoZtfIOy2yhQw9Pf2M6/fd8jwCSkMfYqKTPvFjMmk+EZ5IuBnXZO7pHj3RhH16+vLHdSWbOM6z+PJZ9KmEekAT3pVFeUJRbOToepMtbXMb+2t338P7M3foSSz+iKxRuDQkYWyiilXTozzh8FVlWk0as1tsCx0Wp1Q/jmfiKaw/c8eeovNM0y+wRVVEe3IFvlRFTickNWirxNlQFfQW/Xw+PTV5NKZNyYtsdyTDtFh8qvpN1fbTcZpX5tNTV/Y7CmTyvLfiyaKe2iyChXhiKTzSZAY97Tp/OqgnW9MW/QRNTbMNoappGi5v3dZsnCfU0Wv8aDQGg54hdPBSA32MYpODX8PqDro9dhyM3iVHzvfoSW48bUJsz3D23cYfxtOBAU/JAE/JSODpIp7j89S/62OmGDJih3W0rUWSCoX5fP7y8nJzc/P4+Pz8fHt7cYEV4cGH8f2+H4R/Xl9feXf2ctE3ZPHJSqVC/pC86bxfKpXO8jCc1TTNp8/rLaQDWbv+ZZo50IT5kpknxJp+uo8EeEoGeEoAik/ZeWLx6d0PRkkA3t9V/GKl3uMtPnZ+TnZ3aH9XKEynd6elb2dnOQjkwfzpDsHzJ5pBvbUXlT+tpk+3ZxdikaZPgfxJrRLqRkalMfn2df6OQd9pbzvOY7/5+KI/fLjTTo8FKt9+rcfELLrxrO22vN/jO+TJ6zUaeADATI/7WilRa3IXbR93ArPhBZosa7ZtDbY9jb53Tw7/+lkMDUOe6Mi8qsz+k8ZOWzUXPczp2LsnFprc6O+t62bguW6GLTODb6OV2LOFJ3zGjwxg4Z6EmtxIqYhwKE/CQB6jX7nX4+fBex1B7fUE3W0NJzPaG9y2RsPapNshq2gNQ7j3hpNBE22mMZ6MbfbJJvrA2KuveMLd5mrQU5d6+3CeNFyONj0LTALwPa4DnRqNulgUGaMz5KeuRrI3oMvcUSAym17glELQk4G3uFSftorkB/NUJ4oGrDU05ZpJzsX1DDIoZ4wqi263ddPUbRqSUWxuoNcGEjmo6qY+k2U2IMHVTdWizTjgSaXquKdOcNzLR/JkkPOSLhswMMC/tsNjVic4rlWfkLK3mFGLDIEikdohH6FiGuQ0VMCTPiYn4lG19Vqt1kQebpezHcyTQ9qFSluHQ9536NlxsnMK5IVd0gq5pw6ueQI5pecQz3TNNql1AU/mjLRXbZGxbTdEfb/jC97UJ1QPcF7jyjMhzJNqGKq+7Elb8tSTBzScU0PB+jRk9ammOo5juPJ2cXy/41WW41ObFlfHVaYZ4qmNzxfLk1qMJ4+PT0Ct016NT5oQiONtWnPT8/R9f+OfAp5sGoeFMVLk0Ci14gmVbNS516x4T6OFJ23JU5tubOFJoPVrCzIcTyeKp0v9T74ncyx3yRMXPXZoEVY8jZiDuHZnyWOaY9LPBjz16O/gexps1/Ay9VRa6afzPdncCcqSnBE9GFvxxIfMxXmq8t39PXnie2qz/Mr3tPWhcEaexGKpcC5Vlsb7ck8q+rX5YYQn90gUD/FEapkxifFk1miAQlEbHy9yTyYK2xN9yVNvu4H3v35KGcXxiykdP14JjB9HnkYom8HD4Bv8AK0t8xxoxRPKHe12s8Gy83BPuELN3GZnQl8hTzO0fZy4zxYH3A3Pa3g8Y09LZtcjzNmVG4r029v+pxq7bIUw5lmAsexJJ7u72r1H2h8/PrNZZso8Cfd0KOyM1lOeLXVd9jMs+p+6gf+4paddXd9y81JQKqHXt+j0UgJnqXfR4gHWNFg/JFoNF9Os23ZdR0kUXt0xaAVBKVVwHfSkalt23eRbIPjbV9+8s70n5kqa9u/SenpzvdRdce15c34s/K4JvU6RXse5oafLZ3KZ1Mr1d2TWnlhPVXn4AU7IxF/P2T9NeD0nqkYh13NOi3TSnmhPhlN//9coYtZcH6xI668Pvpkrbx0luz5Y5+N03z1ZXm9eXH8dtdZqaR+g1WU3f4GUfP6CD0F282Hkdzwd2b0lmfIpXtJN7udXYWw+qRFzpOR3vp6o+Z82boFk/qe3/SpiTuZ/ip5PbJNghVbM+XxiMD9dUtbMd9iH+Q4ZMH9mQmA+1oTA/L4JgfmiEwLzjycD5rNPCNwfISEO3G8jGXD/loTA/YASAveXSgrcrywpcP+7pMD9FJMC9+dMCtzvNSlw/+CkwP2okwL3N08KNrXe0+XlcUXvMK6+/VmORzyyfVwUVw+f4ng47hYHAAAAAAAAAAAAAAAAAAAAAAAAAAAAAMCR8X/nc3eNeFPI2QAAAABJRU5ErkJggg==;" vertex="1" parent="1">
          <mxGeometry x="114.99000000000001" y="1083" width="276.03" height="160" as="geometry" />
        </mxCell>
        <mxCell id="HSzltY3X0y76gQs0_PpO-41" value="" style="shape=image;verticalLabelPosition=bottom;labelBackgroundColor=default;verticalAlign=top;aspect=fixed;imageAspect=0;image=data:image/jpeg,/9j/4AAQSkZJRgABAQAAAQABAAD/2wCEAAkGBw0NDQ0NDw0NDQ8NDQ0NDQ0NDg8NDQ0NFREWFhYRFRUYHiohGBolGxUVITEhJikrLi4uFx8zODMsNygtLisBCgoKDg0OGBAQGislHx0rLSstKystKy0tLS0tLS0tLS0tLS0tLS0tLS0tLS0tLS0tLS0tLS0tLS0tKy0tLS0tLf/AABEIAOEA4QMBEQACEQEDEQH/xAAbAAEAAgMBAQAAAAAAAAAAAAABAgYABQcEA//EAEkQAAEDAgEHCAUJBAkFAAAAAAEAAgMEEQUGBxITITFxMkFRYYGRobEiU3KCwRQzQlJikqKywiNDc9IVFyRjg5Oj0eI0VGSE8P/EABkBAQEAAwEAAAAAAAAAAAAAAAABAgMEBf/EACwRAQACAgECBAUEAwEAAAAAAAABAgMRBCExEhNBURQiUmFxMkKBkSMz8aH/2gAMAwEAAhEDEQA/ANWvAeSUCgUEggQUUqBBQSQKBUCgxBJFIQKgkECgxAoEIJBQKBQKBBRUggUCgrwK2sCoEIFAoJBFKBUCCgkgQgVAoG6KUCCgQVAhBJBiBQSBUCEEkGIFBK6KQUCgrq2sEgUCgQVAoFBIIpQKgkCgUCECoFBl0EkUhAgqBCCSDECgkCoEIJXQYgUCCilBXltYFBIFAoEFQKBQSCKUCoEFA3QN0ErqBQN0UoG6BBUCEEkCgxBIFQIKCV0GIFBl0FfW3TEoFBIFAqBugUEmAk2AJJ3NAJceAG9FbqgyWxGexbSyMB+lN+xHc7b4LdXj5Ldo/tsrivPo3tLm5qXfO1MMXSGMdMfNq3RwrT3nTbHGme8tpT5uaYfOVM7/AGQyMeR81trwq+ss440esvazIfDG8oSO63TOHlZZ/CYoZeRSExkzg7d7Ivend/MpGHBH/Ty8cJf0Dgv1Kb/O/wCSy8rB9jWL7A5N4O7cyL3Z3fzLGcOCfWDwY5RdkVhruSHjrbM4+d0+ExT/ANPJpLyz5vqY8iednHQePJY24NfSUnjV9Gsqc3s7fm6mKToD2OiPeCVqtwbR2lhPHn0lp6zJbEIbk07pAOeEiXwG3wXPbjZK94/prnDePRqXNLTZzS0je1wLXDiDtC0zGu7XMTDFEKBQYgkCoEFBJBiBQV9bmLFAhAoJAoPVh1BNVSCKCN0r7XIbuaOlx3AcVa0m06hlWs2nUL7g2bloAdWS6R54YCWsHUX7z2WXdj4X1uqnG+pu5K/B8KBY3UxOG+OJusmPG1zfit02w4ujZ4sePo0ldnJbtFPSuPQ6dwb+Ft/Nabc2P2w1W5PtDQ1eXOJS30ZWQA+qiZfvfdc9uVkntOmq2e8tZPjdbJy6uod/iOaO5tgtU5Lz3lh5lp7y8b5Xu5T3O9pxPmsNz7puUdEHmHcom2atv1W9wV2JBo6B3BQfVkjm7Wuc3g4jyTc+67l7IMXq4+RUzt/xXEdx2LOMl49WUXtHq2dJlniMe+Zso6JY2X72gLZXlZY9ds4z3hvKLOFuE9Met0LgT911vNdFed9UNteT7w3cWK4ViIDHGJ5dsEc7dCS55hfn4Fb4yYcvSW2L0u1mK5BROBdSyGI80cpL4+AdvHitOTgxPWktduPH7VLxHDp6V+rmjMbjyTva4dLTzrgvS1J1ZzWrNe7zLBixAhAoJAqBQKCvraxKoxQN0G0yewiSvqWU7Dog+lI/foRi13dZ2gDitmLHOS2oZ46eK2nUaqsw/AqZsYFieRG30ppnc7nH4nZ5L0ZtTBXTtm1cUOfY3lhW1mk3T1ER2CKEltx9p+8nuHUuHJyL3cl81rNALDds4LnaigUCEVJAqCQKBQN0CFAoEIMO1FbrB8pqujsGSayMfupbubbqO9v/ANsW7Hnvj7NlMtqr7h+KUWLwuhe0aVrvhfym/baefiF6NMmPPXUuutq5I0oOUWDuoagxE6THAvied7mX3HrHOvNzYpx205MlPBLWLS1sQKBCCQKgUFfW1iUCqMUF1zVShtdMz1lMbe48fzeC6+H+uXRxp+bT75zMGnFR8tAdJC9jGOsCdQWi23oad9+lZcvHbxeL0XkUnfiUcFcTmKgQgUCgldAopUEgUCgQUCoFBgQSRVpyDwmaSqjqgHMhgLyX7QJSWFugOkelc8F18THabxb0hvwUmbeJ7c5st5qRn1Y5nH3nMA/KVnz5+asMuT3hTVwOYoMQKCQUDdBXgVuYJKKUCqLHm+n1eKU/94JY+9hPwW/jTrJDbgnV4dTxfG6akkiiqHaDZw/RkcLxXba7XHm38NhXo3yVrOrertvetektFi2QdDVDW07vk7ni4MXpwO69HcOyy034tLdatdsFbdYVDEchsRguWxsqGjc6B13EdbXWI7Lrktxclfu57YLwr1VBJCdGVj4j0StMfmue0TXu1TEx3QCiFAoJAopQKgkCgUCEE6eN0p0Y2ukPRG0vPgkRvssRMt9QZH4hPb9kIW7PSndo7PZFz5LfXi5bemvy21w2la8KyGpYbPqHmocNpB9CEcRz9psuynDpXrbq31wVju3eHYvSzSvp6ch4hYC50YGqbtsGg852cy348tLW8NfRtreszqFCzgTaWIOb6uKJvbtd+pedzJ/y6cmefnVu65GlJAoMQKBQV8LcwIKgkopQe/AJ9VW0cn1aqnvwdIGnwctmOdXj8sqzq0fl0POzDekppB+7qtE8HRP+IC7ebHyxP3dfKjdYc+wrGaqjN6eZ8QvcsBvGT1tOxcNMlqfplyVvavaVuw3OVO2wqaeOT7cJMbvuuuPFdVOZP7ob68mf3QsFPl5hcw0ZXPivvbNC5zPvNBat8crHPdtjkUnpL6iiwGr2tbQvJ543MjdfsIKvhw369F8OK3s+UuQWGSbWiVn8OYkeN1jPFxT2PIpPZ45M2tKeTVVTeo6hw/JdY/BV95YTxazPeXxdm1ZzVj/eiafIhYfBe0nw0e6P9W3/AJn+h/zV+C+6fDT7ptzbs56x/uxNHmSp8F7yvw0e77R5t6Ycqqqj1AQtH5FlHBr7yfDV95eyLITDWbXa5/8AEmsPw2WXwmKO8s/IpHd9v6OwSl2ubRtI9Y9rz+IlZeXgp7L4McIzZaYXANGNxktubBE4N7yA3xUnlYq9knPSOzSV+cOQ3FPTtZ9uYl5Hutt5rRfnT+2P7a7cj2hWMTxqqq/npnPbv1Y9GP7o2d65L5b3/VLRbJa3dcM2EXoVcvS+OLubpfqXbwI6Wl0caOkyq2VE+sxCrd0TOYPcAb8Fx57byS05Z3aWsC1NZUEggUGIFBX1uYMCCQKgkoqTHlpDhvaQ4dRG1WJ1O1dgy9YJ8HkeOYQTj7zT5Er0+RHixbdueN49uPry3CUCCgVB9Y5ns5D3s/hvcz8pWXin0ldzHZ7IsZrWcmsqx1fKJbeasZLx6z/bKL2j1ehuUuIjdW1Ha4O8wr51/qlfNv7pjKnE/wDvZv8AT/lV8/J7ynmX95BylxE762o7HAeQU87J9Ur5t/d8n4zWu5VZVn/2JQPAqTkvP7p/s8dvd5ZJ5H8uSR/tvc/zKw8U+7GZme6It1KIkgUCFB0/N3Fq8O0zs1k00h4CzfJq9XidMUy7sEao5tUy6ckj/WSySfeeXfFeXbrMy47d5QUQgoEFQIQSQYgr4W5gUGIJAqBUHY4P7Vk8Ol+Hke81lvML1v14f4ehHzYnHgb7eleS4CkhQKCQKBQerDaKSqmjp4gC+Q2bfYBYXJJ5gACVa1m0xEerKtZtOoXv+rUav/qzrberGq0ui172Xb8D079XT8N07qNiNFJSzSU8os+M2dbaDcXBB5wQQuK1ZrMxPo5rVms6l8AsUKBUEgUCgQg6thZ+T4I124to3ydrml3xXrY/lwfw76/LjcqC8hwG6CSKQgQVAhAoK+tzEhEKDEEgoOw5tZNZhEbDt0JKmI+yZHOA7nBenxp3i07+P/r1LkJiMZMZ3xkxni06J8l5kxro4YjRQYoFAoJAoLFkHXx02IxOlIayRj4dM7mOdYgno2i3at/HtFckbbsNoi3V2O4te+zffmsvW29BV8p8kYsRcKhkxjl0AwO2Pie0Xtcb+feCuXNxoyT4onq0ZMMX6w57i+TdbREmWElg3TR+nGeJG1vaAuDJgvTvDkvitXvDUgrUwSQKgkCgHXsbbTY2HSeZJ+w6xliRT4PLGPVwQDgXtafC69Xkz4cP9O/L0xuV3XlOAqBuilAgoEFQN0FfW5iUCEQoMUHUs0c96aqj+pO144OYB5tK9Hhz8su3iz0lRMp4NViFYzdaokI4OOkPNcWaNXmHNkjV5hrQtTAqjFNBCBQSCD0/L6jV6r5RUau1tXrpdXbo0b2t1blfHb3lfFPu9mD4/WUR/YzODeeJ93wn3Tu7LLOmW9O0sq5LV7SveD5waeWzKqP5O47NMXkhPHZdvjxXbj5dbdLdHVXkRPSz21+SmG4gzXQlkZf6QmpS0scTzlo9E+aytx8eTrX/AMZTipeNwp2LZEV1NdzGiqYPpQgiS3Ww7e4lcmTi3r93PbBavZW3NIJaQWkb2uBa4cQdoXNMa7tLFB7cHh1tVTR/WniB4aYPwWeON3iGVI3aIdbymwc19MYBJqjpNe12jpNLhuBHQvXz4pyV8O3oZKeKunKcXwioopNCZhbe+g8bY5B9l3w3ryMmK1J1LgvSa93iBWtgUCCgUUgoFBXgVuYJBFIUCEQoL9miqLVNXF9eBkgHsPsfzhdfDn5ph1cWfmmGpzjw6vFZ/wC8jhm7C3R82Fa+VGry1541eVbC5mooFUYoFBIIEFAoG6g9VBiE9M7TgmfC7eSw7Dxadh7Qsq3tXtLKtpr2XPCM4sjbNqodYNxlgs1/EsOw9hC7MfMmP1Q6K8mf3LK2XCMXbonUzOtyXXiqG8Nzh2Lo3hzQ3f48jR4pm6Bu6ln0eiOe5bw0xtHaCtF+F9MtduN9LwZN5M1lPiVOZoCGMc9xkaQ+O4YbbR123gLXhwXrkjcMMeK1bxtusucoKiiqKQQuA9CR8kbgCyRtwAD47Qt/JzWpaNNubJNZjTYYVi1HjMD4ZGDS0RrYHnaPtsI5r842jqWdMlM9dSyreuSNOe5S4M6gqTFfSjcNOF53uZ0HrB2dy87NinHbTky08E6asLS1lAhFKDEFfW5gQUElFKBCC1Zs5tDFYtuySGeLiSGvH5CujizrI28edZGyztwaNZTS2+cpnMJ6Sx5P61nzI+aJZ8mPmifsowK43MkFFKBVGKBugQgkCgVAhAoHo6jcdR6Qg32F5XYhTWDZta0W9CcGQW6Abhw71upyMlfVtrmvVfskcqjiLpI3Qap8TA9zmu0ozc2sOcLvwcjzJ1MOvFl8b2YnJhc0phqTSulYANGbRD2tO0WJ5tqzvOK06t3ZWmkzqXypMLwqmeKiPURuaDZ+u2AEbeeylceGk7jSRWlesKVl7jUNZPG2E6bIGvbrByXucQTbpA0Rt4ri5WWL26ejmz3i09FZuuRoIUCgQgxFV9bWBVCCgkim6g3GSNRqsSon7v7Qxp967f1LbhnWSGeOdXhec70F4aSW3JlkjJ6nMv8ApXVzI6RLo5UdIcwXA40gVBJRSgVRigboFBIFAqBCBQKDomaqD0KuXpfFGOwE/qXocGOky7OLHSZVXK2fWYjVu3gTFv3WhvwXJyJ3ks0Zet5aiw6B3LS1pBBJAgoFQKDEFfC3MCopVCCgkivpDPqnsl3ap7JL+y4O+CR3N66uv50ItPCnSAX1c1O8HoDnhh8Hr0eV1x7d3JjePcOPrzXAxBIFQSUUoFUYpIUCgkCgVAhAoOrZtItHDjJu1s8zuxp0P0r0+H/r27uPGqbcxqp9bLLL6yWST7zifivNtO5247TudvmsUKCQKBQIQIUCgrq3sErqBUUqhBQJFwQdxBB4FB2jE71eTz3b3Pw9knvtaHebV6d/nw/w77bticauvLcBQIQIKgkopQKoxSQoFBIFAqBCDruCk0uBMfuLKOSb3nBz/Ny9XH8mB30+XE5GwBoAG5oAHYLLynBEaTCBBRSoEFBJAhBl0FeW5gUEgoFRSqEFB2nIZwqMDjjO20U8BHAubbusvTwzvE9DFO8TjNiNh3jYeIXmT0l5+tFQKDEEgVBJRSgVRimgoFBIFA2vsG87BxQ1t17K13yfBpGDZ+xhgHaWtsvVzzrD/DvyTrG5GvJcBugkEUoFQIKCSDEFeC3MCgQVBIIFRSqOtZoKjSoaiM/uqt1h9l8bHfmLl6PEndJh28Wd1n8uaY3Bqqysi+pV1LR7Otdo/hIXBkjVp/LktGrT+XkCwQhEKBCBBUElFYgkqMUkIQKD24PDraqlj36dTTtPsmRul4XWVI3aPyyr+qHR86k+jRQR+tqmX9lrHu8w3vXoc2dUiPu6+TPyx+XLwV5jiKBQSCKUCoJAoMQV5bmBQKBQSBUDdRXSMzlRZ9bFfe2GQDrBc0/Bd3DnvDq4s9ZhXs4lI6HFaklpDZi2ZhO5wLGgkdoWnkV1eWrNGryri52soEIhQYEEgoJKKxBJUYoFBYsgaV0uJ05DSRCXTPI3NAaQCe0rfxq7yQ24a7vCwZ2J/To4r7myyEdZLQPit/NnrEN3JntCgrhchBUCgUEgilAqDEFfW5iUQoFAhBIFQbLJ/GZcPqWVMW0tu18ZNmyxnew+BvzEBZ48k0tuGdLzSdw67S4jhOPQiN4je8DSMEtm1ELjztO/3mr0ItjzR1d0WpljqruLZrjcupKkW9TUNvbhI34grVfifTLVbi/TKq1+RuKU99KkkkA+lBaYdw2+C5rYMlfRpthvHo000EkZtJHJGeiWN8R7nALXNZjvDXqXzDh0hYpuEkCE0EKKdIdIUTb6wwvkNmRySHojY6R3c0ErKKzPaGXVuaDJHE57aNJIwH6U1oR3O2+C21wZLejOMV57QtGFZtDcOqqgW9VAN/F7vgF0U4f1S3V431SsNViGF4JCY2CNryLiGOzp5XDncd/a5brXx4Y6Ns2pijUOW45i0tdUPqJdhdYMYDdsbBuaP9+ckrzcmSb23LjvabTuXhBWDAqBugUCECCipIMUFfC3MEggxAoFAgoJAqCTHEEEEgg3DgbEHpB5k2qyYXlzilNYCfXsH0Khoktwdsd3krdTkXr6ttc16+qz0edUbNfROPXBI0+D7ea6K8z3hujle8NzBnFwmYWfro7800BcO9tws45OOe7P4jHPd9ji+T05u59ASfWRsafxBZ+PFPsy8zFPsiKLJuTaG4aeDox8Vj4cG/RPDhsn/QmT3q8P/wAxn+6y8vEvl4gcPycj2luHDi+M/FYeHBtPDhhIYpk/Dta+gBHq2McfwhZePDHsvjxR7PnNl/hMOxhkktuEMBAPAmwWM8nHXsnn447NTWZz27dRRv6jPI1vg2/mtc82PSGueV7QreJ5bYlU3Gv1DDvZTtDL8XG7u4hc9+Te3q1WzXt6q85xJJJJJNySbknpJ51zzMtTEEggQUCoG6BQKBugboqvgrawIQKKUQoFAhQSBQKilUIKCQKgxAho6B3JpUgiG6BCgkFFKBVGKBugQgkCgVAhAoFAoK+FtYEFFKCQQYgUCECFBIFNBUUqhBQSRTdQIKIUGIJAqCSilAqjFA3QKCQKBUCECgUFeC3MCgkFFN0EkGIFAhAoJBQKilUIKCSKVA3RCgxBIFQSUUoFUYpIUCgkCgVAhAoK8tzAhAoJBRSgUUohCBQKCQUCopVCEEkUqBRCgQgQVBJRSgVRikhQKCQKBUCgr63MGBBIIHnUVJAhAoFBgQSCBCgQoJKqQgUUoFRCECgQoJKKUCgVZCoFAoJBBiD/2Q==;" vertex="1" parent="1">
          <mxGeometry x="160.5" y="883" width="185" height="185" as="geometry" />
        </mxCell>
        <mxCell id="HSzltY3X0y76gQs0_PpO-48" style="edgeStyle=orthogonalEdgeStyle;rounded=0;orthogonalLoop=1;jettySize=auto;html=1;startArrow=classic;startFill=1;" edge="1" parent="1" source="HSzltY3X0y76gQs0_PpO-42">
          <mxGeometry relative="1" as="geometry">
            <mxPoint x="1236.8235294117649" y="1056.4999999999995" as="targetPoint" />
          </mxGeometry>
        </mxCell>
        <mxCell id="HSzltY3X0y76gQs0_PpO-42" value="" style="shape=image;verticalLabelPosition=bottom;labelBackgroundColor=default;verticalAlign=top;aspect=fixed;imageAspect=0;image=https://cdn.prod.website-files.com/627ca6f747706dac04ccaba1/63c14fc134c432153431a0aa_logo-aws-header.png;" vertex="1" parent="1">
          <mxGeometry x="713" y="908" width="266.07" height="299" as="geometry" />
        </mxCell>
        <mxCell id="HSzltY3X0y76gQs0_PpO-44" value="" style="shape=image;verticalLabelPosition=bottom;labelBackgroundColor=default;verticalAlign=top;aspect=fixed;imageAspect=0;image=data:image/png,iVBORw0KGgoAAAANSUhEUgAAAYQAAACCCAMAAABxTU9IAAAAYFBMVEX///8A2P8J2f4A1v8p3P5d4f7T9v/u/P9m4v7h+f/6/v/q+//k+f/1/f/Y9//H8/+K6P7O9f+y7/+78f9T4P6a6v+A5v+p7f/I8/+h7P6r7v+/8v9D3f9z5P+D5/6R6f4P91H4AAAS+UlEQVR4nO1dibaiuhIVggqIOIHKEY7//5dPSFXGyoA93PNs9lr3drcSwOykUmOyWsXh8MybvsmP5yKygUB1/l5nSZI2x8PcpgsU7K+MJRyMsfwR37I4JqLp62/tn3vHT8dZdCN25rWKa5iZLZO4hgtMXI2enHpzHRZLt4RqWP+FN/48HImunGjYeZtdKArGdstcmI+DItL1bmVXd6uiV69lTG379979Y4D9mD0vj0s76OP74mikzp7XSt4d6vrepvDv4199/0/Ak3cnExpR0So8sHVJtCkSZfYMJ/E5LC5s+zde/INQQr9py/CpUWiwlf9WUpC0GknAgkeMLSBwm7qN3YyPi7XsaKNLS7ka2GYBl0jsD77wJyKbei21v9gIE4D1e+XzQs6RwRZVd87p+c+98Adiyzvti/ruJmWS1P2FXcdS0iDgU2H9h173M8H7lFGr72q1F0uDGNpCK3KpQB1b5NFcDFOPNq6vv4w+z8XkcNnFFSdhMZtngC8JbrdblYoF4PUvXJKZkzUwO2j5toAGH7cnzxW57PgeCXn6rl+U1JnYcRK8xpWwCsSfXk936xdwCyxsYpbRg+bISBK/e/XCr/6NL/npeET1WKFxEPBJRPG6QAHXUPvQZVtJQUZrsxKVT+ldQIDbY2EBvhcSKfLSxYcXD25ahe3bRsyEIXQp9wgyf0BogYJIEqSNFg4WLCTMRRwJWvzTcrgaWEiYi6g1AX0X+Mfde/VCwlxwpT7zXrPBeYCaqj+SD37Zve+aBSq4HUZEEyR2yMF2VeBfffrnoqLORYRlhcN/tJPvwILPsFiMtbnYBWUHKKcQaYblwZcL8whPrgUaYBV1e4MwF6ODf2M+hSsVBtf6oBG+QEId5gRA/jBpouHMcC7Ox+n7/De/50ej18a5iS2xBqC94Lojjyf4Ig4LDPDwpssXgVEcVdWpgBjXWJ9CcUu6xRx0PgmOC4C+ZID729XPfJXZvPEuhQvVh3sD7x6F8uDo7SMsC6RRXLxvq6V0lvd4O5au28/NHdi6kyNK7JP2OuTr9bppXv/Lh+H6TDzWwi8E1rLUg1HtbT/VAiQGe3X4eg69o/pAG6BZc23PG01YXKdv3kr+8pIwEeHNMPg/Rq6szGV9Pq4TZpYpBJh4IcvbB+isfC1/q7OCJLxoSGeXNf4/oAMD99TlVpHIHLza9t/nCtblt8o4I0hIU3+qx4/A9nwZ4Xc2a6gZ9uHb/a8xwf98y4eKJNj31VhwG+s/BCc+EGeI5Htc5zNAJBu/QkL2POr4HsbMP8nCT1eTNtO7RjsNLnmoW7M+H67HZ9vdbrev139d+zxeh3WfBTjL2vnCm5NAL+r3nAkafnpO0xwSHjQD43BHS9kX1Uep0TsmCEvbmdE1Hwkvna1HFsLJBv8tokmovm0V9NWZad5e6j0q+94hV4j6tO3p67tJCCZYP0t++0lYrb6RhR9epBtJwqG3eyy7ftVgDEGWkTdPWHi50WTbHtq1TUPyjF8eQiQIFn74VIgi4UzZYWqceR0WRiOgPk3Ngqcq/IdYqRQkYYUS6WevChEkXHQXDUu4uaZM8XuEMBqB2q10JoC3qdFFExviHHBhEioGJPxoYyFIwkbbEeSlxFQ4fGWhCIzwsDwfzBkzIHuPQeMhrrw8TMLLvufXfMfc779CgIRSSaUb1Rc++nNdHkE9QkyFAdxIKO68JfdZPNbadIhYoiNIOAAJPzp66ifhoVKQi2WX60Ioj/ZC6wkDtCjk76G7ZPfa1gBNcIWOIKFEeeS8ojo9Lo/TDCNlX5wOh8OpmOGhLYv743E4uXQ0LwmDmlGq9rE6gGFeRO4exQ0KdMLm1lryUNSwoEMpgoQVKqlkl9VP8TiWfUf4bqpuLeuP0uEcocmV5yFVHqIpkMVmRH3mJDT1hkMZEXvpk2GGY17tvNq5Ku+IAFelXl1qZAJOSv1/YGWIIQH0I2qefmWqc2P8tU//6DYapKO/J+ASqXOzSaqMVhzl4gVABogLlEL8q/luB6V8sCdHbX3MJtdR3xq/nocPkql7b5pYE7jLkeP3acWQ0LhIuKSamw+6wZXBML5tYjdIX1LaQ1zVMOohIhgzEHdU5VItOqIn1Hb+1XjxQ7fAOJS9jZi5l4KygmREU/57RXPvghpDAjj5TDftviF/f5pkjqWtyOgGqackryUomF4G3zhAgsgipcPzfDyPghau0kZzq6k5RlY2dHCOPJMVzHJrAB8LMSTAzzSC4rUY1eItxb/JlIOOqd2eaJPClQrX6HJIlXwZHxN+Evb4ao6BAdH5G3apZivnOgdmP4NVUYCR4MgEFlsDeLo4goQKf6b26R279CV/n5f76X5+SsFBOV8G0eA1LPLr9zVXlwcy37mUU2dcxJumyRSq04mFQeNfDAj4QeAVZU4jjl+Q4kRQJ/tgcmDYcXc0Kwj+FIi8erfaFUFCl+gzfMIG9dakky9e3nCRsEf2WiydTzFPykcjmKG6KZMdLhoVHT6Da+nPZkLPP8saALcsQZ4wt50Je7dwp5EWTr/YHBjZLsAwtHWqF6iduV2gESRgR6gL7g46z8pSfiI55shGCgzRvBG02T9CeK2MRhcY+KomU1N2wj7IgeF5Uz4vKQ500V6ol3jqTcrUbqshTMIX9pJKJIxRIvhcJ/Qdi5EdRsxZ6Gp7Oj+RA3uSTEuFluxGGmvfmmiicVWGuVqU1tIkaA/Nlc996Y+wMjk95EEStigSVKrBv03edWcP0wmvPqVdY6h8GR8XONkoWTr+fG12kyTEOEUrpbPVz0kKEj0TdSfb+mtDoPDK1cshEkqx4ilUg2PVwX4NvWc9yiE24frEYBRnCJ3J06S6ukORAKZYwPsrKpW1n7OhJ4LR23IaBfKNvApUiIRCmmPaezvEBAeXI5b7sHblysLtdCPv4BBrgL1htFAk8KzFUOmM3EVE/bRzkqCOJFHvH0p12XmzkrwklEeh2quSBwSFu4rOll9e8FXHcJXjRIi8B0VCZMEAKi+aEXClCJguu1CXBcOO3nKIzLX2raqLmmyh9hC3jzy/jnvTPLVIOijNBomOTfenSGjsTiPfllo6BicJ2huh/hUMwA++AeFM/hrvngoOtEAHrLyeGRhiSceO6MBjQi8sLrhJCNIIBoH+qEgSoKInXJUQRYIXurTi0tqr+PG5EiuPuNGh3xAeHH00BEUC/+HB/dAyqne/nSRoch25Cga8eFvHxgwxJBjucK6fegXFJfHOlVJfTQgSwBiM36OAIqElxIyNE7kwm6dbSBJUySN01JDorb1lPOHU+CSrqSbegzO4uykhQjxVl6dT5lqWd3hfgoTLTGlEklCjd84LkTOkTYXKRYJGlRRagYQnrge7jAk/CaMX3lKzYZB6H8q71VIGLorPbpKRk7JPkABabnyuE2msQed61cedw1hz5ZyqGorClD8yffH7+KiFWVCQ5p0tD8Cp6hf4vEsMcVxb8QTu1iFIyCnTwQeShI4K1Bg4KpJGnTMOeaQJSDXxzqeFVGQdogRmZY+1WYAce4g2NU/oS/IhtbpVjycoc21DkcCthBmpTnSgP0JWuBx4K1thHKGOq9rZVgdupOd8DcpYO6PnjLTGHo7wGNHB2hCUht8YG8gyVILZeW+TAK8VX49KkwBigPIb4m+FoAC/TlXGCnIqqG0hKs3nklsV3uEkcopF0mJuqAiC+GHRJGgi60tEDrIbn5Zl3fWjOciets4Ll8ZXRThSXsDP6Q60Q0wAlw912BECSVONMPUR2rqEHnqhPFYjScIWHZiUOHiPBAxAJKmmMlVjvI3wEv0uEoRQcYQ3YY+iDsOb2ipmsaALdRHe7NzVuNIJ5dsfhvYddR6BdIhZE2BlkK1wclk5hiL6T4kjf4q6ChcJYmNTeiAehaBI7aH+uqmWV6odaaFEpUuCQMBe7HTus20dDjxYrymBtIHuLLdhiEboCqLyPBtiJjS0I9YNZwaeUCPZmpDJ/Kux1YXUpFolT01/GTySZ7wpOKrt29/kw30v7yBBRFRs5+suxk4wcUTmqC8be00AH2H8gZbuNEhcFyknJuytMElIOvlrdTg2r2XM3tsAkmUmzRT2/DKHzEmeC+M3eFyubHSgEZoXmyuvV0LG03r/ziahi6n5UOHJRd3LPE1zaomM9pUvDZKClgYJE0qf5rU8qCqU3+qMJ6ROgQRN5pzWsIfZQytphJ1wnxdNiE4INoQK/xxcY7kytoPQE4JbKZoA6llhQU3bScLJKZC+w15UE7XXyiZI2M+dbv7UeCV9haXSLoaM9gKfyS+IcRoaqfFbw0ulnlFLn5qnwR1ZG1wCCdSjOXtPHryuIMqV3ZOODzcCRSJ79RA7dgVu+dgXOlwb4eUAwJ3EGOmVlvVVK9aJsPrdJJRIgtV1iU/Ak3h4u5QiofOt5ASC5VIPVd2EWh2zXAq+DOtkENWUT4Ozqvar4qmrtb9aLnVBgWR6pIe5AvuNmYDyKPZI0YjCQT2T6MVDZ2a0Y2ghxLxdOFii90N/Rv7rhYMiG9f4vJjZQWJNcEx0igSslIsN68SU0Jbk+cvqQpWbI5wGd3NrTle7kvlFQWzpt4+EvUsgYcFCtH8NtSN6iJEkoKXiWMxrw5iOKyYvn3b5fd8exHjFtdlfcNTqq/Kquhx7866vhSd+bwVvyssNPRTGL8YOcp4yszXjbl61lrATVrJo1DE+DK0NSAhXXn5lFg2Mseb6dRo7LWZbhZ3UoqpDN/TEDhcvFWzOhmn+5K/eIZDEZgs02xsr5QrzSsnLCYt5pcxD4t32aWLk/9Xx61Q9UPuCTL6uBkM8vhkFoz5dp/QOI1L7ikVggxEc8qZAEl43Kqfsm1ktwNdB/ri1Y8g/8OGZKVtPPBChqmcQ74t0+Tn2eVGQNetpp532JrbaaY/XIW8swWMyMMzf/CuQBvl0CCSRJmwrAFCXZih6KFwsBWlHelEnyM1NrupDtlhuoj3CWEKCdu/BmWNnz5D4Xafe250rlBCcIozPaxGjYYOyjN2vCd2nQrj02rDevxQWKp7AgYUlYzUQ7MRSnNeMfAL6ffuXKCgPfXjHONQz47gIc/UHSahdAkkrWeuvz657DkouhRXDOOCNWH6ARWvLEy1Z5/SD5DLpgHeXkhdoLMKimgGuCi7R3N+THo7Uyjqr+1nSPA8lj5C+dfRmsD5hcAik1VbJnYD3Uf5tjwgZ3xy3Fc3X0/6j440fRIwZIQPTJszLt8aVwd0RuGY/ja3q0Q7ZzA05uaBK+qG78ydxUqOzoFWEK3VE11rfHB3lrS/hQfXAhWmswV/SgrYTACeiVHp6hCX0n/qFwVgE70hFxdpuLt11HBthLthY+tg9atUr7Nv3OYAwCUJJsWdataYKvVnvUFHkZm56X/pImPbZIh5BpPCsteu8hWorUTFApQKJkOhxkNs0r/Ph+oQpT2rae1+k2Q8IFfsk6Br1A0L3qr4NMfSSip7XsDLwpqG0879D2aVMewZraC1Q0pVYBYoWHp6BCz4kK4sFIv+OjqbbxKAExFxDh2Q27Wi1TCJSyS91oX5Oa8G0mIkJs91PcLcqpgzWSQ5nni1Jts9sepNkHe4KLsId3qwj2du4A6FD0PFFJt6h9tux31W76I33tlWxe2Mb9LFZ+Bm7oop6Ef854miSabeCz1zxBl6d9daO5f8qJk+oM2Mbi9HUDsdDdVwcc2H1lnr0r4IvCU4vBy4L0jzC46acHtbT++rRP4q9GdAx0RoLAJ7l4pb5FfNOlAUWiuCwhTAN+D8KQj4ZKEO8LjAAW7T4LsHS2lFFElv2+BQKb0nUAhsRp9DiWWujAwSLC72ladxv9dYxFv8m+F5Q/uwWsbVCiYqR30eaRVyzQEHUyeSYG49/BAyxfiFhHrjBHEqreGq+vJAdxklYjhyMBjdvg9Wh6hZswcy8hYSZiCRBbsQTTglbxNFcxImjlay3ishCSxW7YkEEeA1NOE1JpgP0wZkQ8IQsMBHpbdN24Q85JNxhogUk4oKRxgk8/v5dfEdzEXNwr6h2E+VWXmv4sHhR5yLs6BGb47EaYzze4jNvrG4BBd6pnm14ZB59JeWSrxT2FxKP/lUMfiN4K5eDSWTJzcudUXS6jnaBB19eCS52VGAoXsTEcJV3wgE9cbU5CyZA3hHpZNjJymdpU0teMlJL4uvGEmKeBR4ioPK45GqgcVQLVdU+F0bkF8fvQbBghc5se2m+OQ2DUjncxSpdheryRRrNAu4QonW0ekIacfKFdG2zpNNmwzfzL/QLaEBplOJxe2jnElKeuFo5LowN0k10pRhdEAGhALWH8TSaXk3Hdp54dVUvYuv2sdk8xGaGP/uk3h8JuV+8WZvAUrcvtNDLP7Wmf/HlPwZ69FL2a2AHG/JY50UYvYsr0ZssCWwpvBo1KKrhknH0Huy9Bvs4v8PZrEln6ZJ69y72SmU540dlR6I4pkzVWP/gS34+ysdx3WdZM7SHufGY3eXVNE37vF1img78D8R2vxZ4MEyLAAAAAElFTkSuQmCC;" vertex="1" parent="1">
          <mxGeometry x="1261.9972727272725" y="882.004545454545" width="388" height="130" as="geometry" />
        </mxCell>
        <mxCell id="HSzltY3X0y76gQs0_PpO-45" value="" style="shape=image;verticalLabelPosition=bottom;labelBackgroundColor=default;verticalAlign=top;aspect=fixed;imageAspect=0;image=data:image/png,iVBORw0KGgoAAAANSUhEUgAAATAAAACmCAMAAABqbSMrAAAAgVBMVEX///8Ae9AAdc70+/4Aec8AgM8Afc77/v+Rw+gAf89In9sAfM4ZitUAgtAAd88Afc9hqt90tuPe7/nr9vzP5/ZsseIdj9WZy+vo9Pu+3/N8uuXX6/gNitM+mtnI5PWiz+2t1e+52vFTpt6Lweg+nNo2ldgAcc2v2PCAueWYxulkr+FbdwYKAAAKBUlEQVR4nO2bi3aiOhSG5ZJgCBEBQRQQBOlMff8HPDvh6rVibWdOZ39r1poWQoCffcuGzmYIgiAIgiAIgiAIgiAIgiAIgiAIgiAIgiAIgiAIgiAIgiAIgiAIgiAIgiA/kHz+Kt6tP30v34GVvemv4Y0Zf/pmvgPLNrXXYDooGAp2CQo2ERRsIijYRFCwiaBgE0HBJoKCTQQFmwgKNhEUbCIo2ERQsImgYBNBwSaCgk0EBZsICjYRFGwiKNhEvkQw64JPX+Yun1fzwn/8gM+e8ebEXyCYl0bn2J+yvmCeUk4Z5+RQPDbRNo0eF3cSXyCYlRFxjvaZy99HVBBKuUsE4Vn8yF2lhOc398ZV9cgkN6b+AgsrTcIALnXj8ifmiuevcFYwwTRnWVVeZApBogdszIruCVZyc/301XyFYJYfxJKMEZYb8EPgf0KvGERiVTN3RYmg3gMHLbU0ubmzZPTvEqzD4yL9fOYsOOH9/a1BMSd44Lb8O4NK/vcK9oj/fEBIx7IfqdA2n5zxSNn86YO/SzBjNXaReAVJwEgSSP5+vt2udyeHxkX1u9p0JrIk1B72+Yya1WggHNxNbCUysxibCvzXCJoZ/QSCgbHfbqsi7kYlNRP1LnkySny1Swb9z+TY79g4PLJmIaPvRigopAcW5X3hFHhyE3WjNmovKRk7dr6sVq12R5VSKLN36vc5o79kRuUkmS2jSNrhjpA6WEdUpiAnVBJ5DHKtEMytH/DsbxeMiO6qZCTadztqSivpa8SOOKOaRglZHNqjdykVsIlDBRGqDVtIkuEVz94LLqA045QwXsgNITOLSqZmLbFSpuLehgunhjPDfESwVGqYcVAM0ogrnqt0LgUzb3IyZrE42XLDwnrBjEi4YftzAncKfuRRWXbU8yL3HCb4stmXMka8vNg6LuFbpSCBzBjNk7PZV4QQbq83+VHay0oJRmoilbBjqyYqrq+UOGKbF1UEVZwDGu3tUsChke09txi4FMx1VRUlT6T+df8RtxtpvrlOXZZZKkC1BwUDQyGdf1aM2e1uzVMH+REjmjJAmxFHuVxQcqIpXws1OD+Ew3CdjO7RBj9rnLaAq10qweABMG8TwKisF4zQWpmSBaejTVQoKQufXjqdC2bWxi1i0QzVRd5Z8y4cFLvvktKsGklmRiZUVQkWxpbt3sARKrSDD5EuiJfMbaL9uwN+J4TLzTTslkYbU/TFBlRnbqIEI6LNoL1gQqTdxR6ZGgZR0eWvKyvM+uZQw5FDzcVxHC13bPGYhc1s0vrkijbJUwq26vbOQVxfHsI6x5V324oXr0FjGZ2Iy6O1Mg6I3VFnJcZBZI1gtCsXQLBcTUF4X0H4lDQVfklfWIeZ9U1jbQTTzwptv148JlgBzqZ+qygNm91sqBcSIZOCVQv+y2otOoD1TdGfpvh9ABuD0NAEu4zwvrqYGSr/QQxLu1ohE1TamtS8fybykSmffK1g2X3BFuH55qT11A9cchakTdAxQBR1Ex5l22FyCNPv4JkQMvsWB0Sk7Wg6y9hVKURx7kkXJnQ/OyWk7NANjQhrBBvsUIVRZQ4vtrCbQ6VgJrlMxr8WD1nYbAtlxExlveaheBQk6skIqJMIlV4UTKbB83WjAfFK+q5/TTDWh0QrFW5rYaP7WVOhBHtxDDPanp/RPhqr2xCAYHpnYP5+v2kGxOFtCzsRbCWYDFNb1jYSPE5HK5SMEG/mywZHOuAUs6Da7saTbqFMW0PBL64IRrurs1JCWgu7IljovnItyRynaWG1SXsWti0tx4G9izYLFUzX9VpGjFzoD2VJpQk8WbiXttcDLjkU/+CSEJQCh9G91edlC2YsTH6ygo+FgKo3FqP4BkerC2X9A5B1WGtho9XsljFl294rXXIoXN/aSZf6ULiaZuORTfxfpEFc9nXFhxY2yzWRzXZa5zgeHT3+RClgRYIOOhg+3F6hkSGXzjrBIDsM6dQ6OqWvXLK32KwTjIyCPmSCsjnxl3Qr9E6wxbDN1BrjWDVF/qJ27tdhp4IZKVT4HuWbfjfrvW3uKl3AKPvMGRy0KJHO544jWUJUiVWOehgJ1AubM8GEWoiBhfE+byS87Sp6X9PeuS5YY2FdDXuyXPrQJSH+cC8idTsO6jDS5WTfEewAP+80wYpuNFdlQsmGTfJyYEEFRdcvSmhXV4REZb8zC+uXRt1DWcJEzfqb0q9o71wVrHXJ2fbt4rCPLUz6HRP9fYJLEnepBiQ1LI2U4R1gY3PinDWl1opDuty2501ssBnpV0YGdXszsIJjZbq9Kphc1qmJLSgq2qQLJ7ZftjQaCfZ+KZi2KNrDcqKfHfiAYLIZSPouAewmsOQJ8/cSQo3Z3IwP63Aabd8rEKRt6+RycStqL8/nNqGwXFdz7mTVkVXv2xQ8TRnqSDAIcY1g8u2JgGG5BxUcbW1bxgInLV+1+L5nYdqi7A70586pZFcE08jZy4+CC7efAR50GGqUUSkI70L4KgUdGaVgD11bPnc4gyEulUtpbrfPYC/gdxgHK/hGwiXri3/51qh1yRQcEIYRQUy7vZiNSeUpXtXeuWthmj4knSDP9LsxrBDi7DH6kAv7BjOUFdVsfxCy+VUPRVVQpVzjJnW8XuwYzEh2vjRT2MPAOBQwUGPRujnxnIr+TZFNVegCl0yt3cGFYVo6/D3n3k5Tkr26gXjVwrTFySvZfXYvS87i8zbwZtw9hbXkb/jP3202p294jNWm2KxOpLZWxbqqil18PnB8bDySoPkZBJNX5e/zYnf66Iz4ySg21cKGWr+h6OrWh76tgCp/WB2Chf1+7qIfZsde8d7qhKkWBtvLk0sIypuV/gVBOnS7vkWw1d8gmLaAFd6Y7dtDgsUzY8noctjQuuRX8ldYmOwh2icLX3vxgGCxY0esa7oqvkewV3+E9YxgYGR6XQwR1lfd/g8E800oWs3xIifU+Pbm8New40w8lwxvMjnod1amp/P+UtSQDwSzDoxFJyuSjV1+9h32RxhH+9XP5DkLayTry56N/rFgkMjjn/CJ4hMWNlReb21lncht//wnmzcszNTSQTHWeGUgULAbFma+pYWR9m/W2vaY6ieiYFcsTNcq+cEN6d6siUYjtLBbgpVNnZ5EuvyyQtfaIckDZcVPYZpgXfPSyG0homPXucjfULCrgpnRUAWOPr43arQw7XrQ15fX5sgfWRr9FCaWFfqVr6o2zasQFOxq4fpmn3d29+6tN98/ksmF60Lzxm3P5Ni9avvnBVss8zWQ1+dvh3SevW/8IAj8zTzT7rz5/pHc+SjYXCgu95vmQn6C4QhQ694nmz+SJ7+ivvhMGAWbriEKhoJdwbJ180X8K4Kxi78GfQ72gj/E+j8Q+y/jT98KgiAIgiAIgiAIgiAIgiAIgiAIgiAIgiAIgiAIgiAIgiAIgiAI8s/yH4D4wnaFN3BGAAAAAElFTkSuQmCC;" vertex="1" parent="1">
          <mxGeometry x="1239" y="1023" width="314.99" height="172" as="geometry" />
        </mxCell>
        <mxCell id="HSzltY3X0y76gQs0_PpO-46" value="" style="shape=image;verticalLabelPosition=bottom;labelBackgroundColor=default;verticalAlign=top;aspect=fixed;imageAspect=0;image=data:image/jpeg,/9j/4AAQSkZJRgABAQAAAQABAAD/2wCEAAkGBxIPDw4QDRANDg0QEBUVEA4NDg8QDxAQFRYXGBUSFRUYHSggGBolGxYTIT0hJSkrLi4uGR8zODMtNygtLisBCgoKDg0OGxAQFy0mHyYrLTItLy4tKystLS0vKy0tLS4tLS8tKy0tLS0rLS0tLS0tLS0vLS0tLS8tLS0rLy0tLf/AABEIAN8A4gMBEQACEQEDEQH/xAAbAAEAAQUBAAAAAAAAAAAAAAAAAQMEBQYHAv/EADwQAAIBAgMDCAcHBAMBAAAAAAABAgMRBAUxIVGRBhITQWFxgaEUIiMyQlKxBzNicoKSwUOy0fBzwvGi/8QAGwEBAAIDAQEAAAAAAAAAAAAAAAECBAUGAwf/xAA3EQACAQMBBQUHBAEEAwAAAAAAAQIDBBExBRIhQXETUYGRsQYyQmGhwdEiQ+HwFDNSorIjYvH/2gAMAwEAAhEDEQA/AO4gAAAAAAAAAAAAAAAAAAAAABshvGoKU8TBayj4O/0Mad7bw1mvX0LqnN8ijPMIrTnPwsYk9r0I+6m/78z0VvJ6lCeZPqil3u5hz21L4YJdeP4PRWy5sozx038Vu5JGHPalxL4sdD0VCK5FzllSUnK7bStq77TY7IrVasp70m0sa8eJ5XEYxSwi/N4YoAAAAAAAAAAAAAAAAAAAAAAAAAIbtqQ2kssFKeKgtZLw2/QxJ39tDWa8OPoeipTfIoTzKK0Un5Iw57aoL3U39P75HoraXMoTzN9UYrvuzDqbcqP3YpdeP4PRWy5sozx038Vu6yMKptS4l8eOnD+T1VCC5FCVVvVt97uYU7iU/ebfXieigloeeeebqFt0jnle0YwRziu+ycEc4jeYwZrKqdqafXJt/wAL6HY7Fo7lspPWTb+y+iya+5lmeO4vDbGOAAAAAAAAAAAAAAAAAAAAAAAAADG5zO3MW+74W/yc7t+o0qce/L8sfky7RZyzGc45zfZm4I5xXeYwRcZJwCAAAARcEi4BMVdpLVuy72TGLlJRWr4eZD4LLNlpw5qSWiSS8D6JTpqnBQjoljyNPJ5eT0XIAAAAAAAAAABjOUOMlRoOVPZOUlFS15t73fBGTaUo1KmJaGFtCvKjRzHV8OhpscwrJ3Vatf8A5JO/ftN06NNrG6vI5yNxWTypvzZd0eUWIjrOM1unCP8AFmeMrKi+WDKhtG4jrLPVfjBfUeVs195ShLthJx8nc8JbNj8Mv79DLhtWXxQXg8fkvqPKui/fjVh2uKkvJ38jwls6qtGmZUNp0nqmi+o53h56Vqa/O3D+6x4StK0dYv19DIjd0ZaTXp6l9TqKSvFqS3xaaPBprVGQmnoeiCQAADE50/Wh3P8Ag5f2gf66a+T+xnWi4MxtznzMFwBcAgAAAgkXAIuAXeV0+dVjujdvw082jZ7Ho9pdR7o5f4+rPC5lu038zPnbGrABZYjNqFP7yvRi9zqR53DU9oW9WfuwfkRlGMxHLDCw92VSr2U6bX91jKhsyvLVJdX+MjJjMRy7X9LDt9tSol5JP6mTDZD+KfkgYzEcs8VL3eipfkhd/wD02vIyobLoLXL8fxgtgxeIzvE1PfxFbujNwXCNkZULSjHSC9fUskbRyEzerUnUoVZSqRjDnwlNuUo2aTjd7Wtq4Gr2pbQhFVIrHHDIkjcjTFS3x+FVanOnLSS13Pqfgz0pVHTmpI8q9GNWm4S5nPMRSlTnKE1aUXZrt/wdFCSlFSWjOTlTcJOMtUUi4SIbBZIi5JdI8gskTGTi7xbi98XZ8Q1ngy8eHFF3RznEQ92tU/U+f/dc8ZWtGWsF6ehkQuKsdJP19S/o8rMRH3lSqLti0/J28jwls6k9MoyI3tVa4Zf0OWUf6lGS7YTUvJpfUx5bLfwy80ZEb5c4lWtmcMTadNSUUrNTSTvr1PtRwntNSlRuYwl/tz5t/g3ez6iqU3Jd/wBilc5wzxcAXAIuALgkXAABABZYvP54WTjRjTcpRTcqik7K7skk1/tju/ZLZcatGdeeeLwvBfl48DWX1VqSijGYjlPip/1uYt1OEI+dr+Z2kLC3j8OepgbzZjMRi6lT72pUqf8AJOUvqzKhThD3YpdESUC5ZIgkskRcFkiCS6R5bJLJHSeRWU9BQ6SatVr2k76xh8MfO/j2HNbSue1qbq0j68zzk+JsRrioANY5YZfsWIgtqtGpbd8Mv48VuNps+v8AtvwNRtO3z/5V4/ZmqNm1NQkQ2SWSIJLpEXBZIgkskQ2CyRBJdIhsFkjPZIvZd8n/AIPmHtdLO0ekI+sn9zp9krFv4svzmDZgAXAFwCLgkXAAAuQ3gGoZjW59WpLq51l3LYvofadjWn+LY0qTXFRy+r4v6s0NeW/Uci2NoeaR5uSWSIBdIi5JZIi4LJEEl0jM8k8p9KxCUlejStKpufyw8WuCZhX9x2NLhq+C/PgRJ4R1I5Y8QAADxVpqcZRkrxkmmn1p6kxk4vKIlFSTT0Oc5ng3Qqzpy22fqyfxQej/AN67nSUKqqwUkc1WoulNwf8AUWh7FEiLgukQSWSPNwWSIJLpEXBZIgkskbDk/wBzDvl/cz5T7UyztOa7lFf8U/udTsxYto+Pqy9OeM8ggC4AuCRcAi4AuAUcZUcadSUdVFtd9jN2bRjXvKVOb4OUU+mdPHTxPOq3GDa7jT4q+yKbe5bWfb5SUVmTwvmaFRzoXFPL6stKcv1Wj9TVV9vbNo+/Xj4Pef8AxyZEbeo9Il1TyKo/elCK73J/74mnr+2ljDhThKXgkvq8/Q942U+bRYY3DOlNwk07bU11pnQbM2jT2hbKvTTSeVh6po8qlNwlustzYEJEXJLJEd12+pLa2wXSOrcmMq9Fw8YNLpZetVf438PclZf+nKXtx29VtaLgv78zHlLLMsYhUAAAAGC5WZb0tLpIL2lK72ayh8S8NeO8z7CvuT3Xo/Uwr2hvw3lqvQ0a5vDTJEXJLpEElkiGwWSIJLpEXBZIgkskbHlatRp91+LPkHtFLe2nWfzX0jFHV2Cxbx/vMurmlMsi4JAAAABFwBcAXBJ5iktEl3Fqk5VHmbb6vPqQkloSVJPNSoopyk7JK7fYj0o0Z1qkaVNZlJpLqyG0llmm4qu6k5TesnpuXUuB9w2fZQs7aFvDSK83zfi+JqJyc5OTKNzMCRBJdI2fkJlPTV+nmvZUHsvpKrquGvfzTWbUuezp9mtZen86eZSpLCwdGObMcAAAAAAAHPOUWXej1moq1KfrU9yXXHwfk0dFZ1+1p8dVqaS4o9nPho9DFGWeSRFwWSIJLpHlsFkiCSyRFySyRs2A+6p/kX0PjG2p720K7/8Ad/R4+x1losUIdEV7msMkXAIAAAAFwCLgC4JFwAAYblFi7RVJay2y/KtFx+h3HsXs3fqyvJrhHhHq9X4Lh4vuMS6nw3Ua+fSDCSIuSWSPVCjKpOMILnTnJRit7exESkoxcpaItodeyfL44ahTox281etL5pvbKXE4+4rOtUc3/UYkpZeS9PEqAAAAAAADG8oMt9JoSivvI+tTf4l1dzWz/wAMm0r9jUy9OZ416XaQxz5HOH27Huep0hqEjySWSIuSXSIBZIgkskQ2C2DaMKrU4LdFfQ+IbQlvXdaXfOf/AGZ11BYpRXyXoVLmIeouAACAAQBcAXBJFwBcA81KiinKWxJXb7EelGjOtUjSprMpNJdWQ2kss07FV3UnKb1k9Ny6lwPuWz7KFnbQt4aRXm+b8XxNVKTlJtlJszAkebklkjdPs9ym7li5rYrxo336Tn/1/caTa1zhKjHq/svv5HjWlj9JvZojHAAAAAAAAAABovLLLeiq9NBezqv1rdVTr468Te7Or78Nx6r0/g19zSxLeXM102RjpEXBdI8klkiLklkiJMItg2uGxJdh8IrS3qspd7b82dfFYikTc8iwuALgEXAFwACQAQALgGH5Q4q0VSWstsvyrRcfod17F7M36srya4R4R6vV+C4eL7jEup8N1GAbPpBiJEElki5y3BSxFanRp+9OVr9UY6yk+5XZ51qsaVNzlyJbUVlnYMHho0acKdNWhCKjFdi39px1SpKpJylqzAby8srFCAAAAAAAAAAAWuZYKOIpTpT0ktj+WXVLwZ60arpTU0VnFSjhnL8TRlTnKE1acG1JdqOphJTipLRmt3cPDKRYskQSWSIBZIJXaW9kSe7FvuLqOXg2s+BR0R1xFyW0gUquKhD3pxT3Nq/Az7bZl5c/6NGT+eHjzeF9TznWpw96SPVGtGa50GpLejxurSvaVOyrwcZdz7u/hwfgWhOM1mLPdzHLEXBIABAAB5qVFFOUtiSu32I9aNGdepGlTWZSaS6shvCyzT8VXdScpvWT03LqXA+57PsoWdtC3hpFeb5vxfE1km5SyykZgSIJLJHQvs/yjo6TxM169ZWp31VLf+p7e5I53a1zvz7KOi16/wAfkxa88vdRtxqDHAAAAAAAAAAAAABqHLjK9MTBbo1bbtIz/jgbjZlx+0/D7r7mNXh8RpxuTxSIBZI83JLJC4aTWGXReSzao1b1V2qO3z2HLU/Y7ZsZNtSa7nLgvlww/Ns2Dv6zWOHkWtXFTl705PsvZcFsN5bbLs7b/RoxT78LPnr9TwlVqT96TKJnlUjP5JC1K/zSb/j+D5T7Y1+02juL4YpeLzL0aNzYxxSz3sv7nKmaLgC4BAAAMPygxVoqmtZbZflWi4/Q7v2K2Zv1JXs1wjwj1er8Fw8X3GLcz4bqMDc+kmKkQSWSMlydyt4vEQpbej96q11U1rt3vYvExru4VCk58+XUipLcjk67CKikopKKVklsSS0SOQbbeWa09EAAAAAAAAAAAAAAFOvRjUhKE1zoSTUk+tPUtGTjJSWqIaycszbAyw9adKW3mv1ZfNB+7Lh53OqoVlWpqa/rMVxw8Fnc9iUiGwWSIJLpENgskQSWSPLZJdI2nBw5tOEetRV+/rPh21rjt76tU75PHRPC+iN/Rju00vkVbmvPUXAFwCLgHmpUUU5S2JK7fYj1oUZ16kaVNZlJpLqw3hZZqOJrupOU3rJ6bl1LgfdNn2ULK2hbw0ivN834viayT3nllIzCUjy2SWSOpcicn9Gw6lNWrVrSnfWMfgh4J372zltpXPbVcLRcF92YFepvSwtEbCa48AAAAAAAAAAAAAAAAAa5y1yrpqPTQXtaKbdtZU/iXhrx3my2bcdnU3Ho/UpOOeJz250J5pEAukRckskQCyRBJdI9UIc6cY75JeDe0xr2v/j21St/ti35LJ6U4b0kjaz4MjoCABcAXAFwDD5/irJU1rLbL8q0XH6HeexOzN+pK9muEeEer1fguHi+4xriXwmCufSjGSIJLJGe5GZR6ViU5q9Gjac76SfwQ8Wr9ye8wNo3PY0sLV8F92eVee5H5s6qcoa0AAAAAAAAAAAAAAAAAAAHL+U+V+i4iUYq1KfrUtyXXHwflY6iyuO2pZeq1/vzKYMQZhZIi4LJEElkiCS6Rd5RC9aP4U3/AB/JzXtbcdlsyazxk1H65f0TMq0hmqvkbCfITcHidWMbc6UY30u0rnvRtq9fLpU5SxrhN48kVcktWejwLC4B5qVFFOT2JK7fYj1oUZ16saVNZlJpLqw2kss1LE13UnKb1k9Ny6lwPu1hZQs7aFvDSKx1fN+L4muk955ZSMwlIJNtJJtt2SW1tvRIcFxZY69yZylYTDQp7OkfrVWuuo9V3LYvA5C9ue3quXLl0NVWqb8smVMQ8gAAAAAAAAAAAAAAAAAAAYjlPlXpWHlGK9rD1qT/ABL4fFbOG4y7K47Gqm9Hr/fkDlz4d+p1JZI8klkiCS6RFwWSKuFxLpS50bXtZp6NGv2nsyjtGh2NbOM5TWqa81o2tD2pTdOWUVK2Z1JfFzVugreepgWfsts2249nvPvn+r6e79D1lcVJcyzk73bu29+1s38YxgsRWEjzxk2ylHmxitbJLgj4Hd1lWuKlVaSlJ+bbNxFYSR6uY5YxOfYqyVNay2y/KtFx+h33sTszfqSvZrhH9Mer1fguHi+4xq8vhMHc+lGOkeSSyRtv2fZP0tZ4iovZ0XaF9JVX1/pW3va3Go2tc7lPso6vXp/P5Ma7qbsd1av0OkHNmtAAAAAAAAAAAAAAAAAAAAAABzvlzlPQ1umgvZVnttpGrq+Ov7jotmXHaU9x6r0/jTyLxNYubQ9EiAXSIbJLJEElkjzcFkitgoc6rTX4lwW1/Q122Lj/AB7CtV5qLx1awvqz1pRzJI2g+FG2PNSainKTskrt9iPahQnXqxpU1mUmkurIbwsmp4mu6k5TesnpuXUuB93sLKFnbQt6ekVjq+b8XxMBveeSkZhKRUwuHlVqQp01zqk5KMV2vf2FZzjCLlLREtqKyzsuUZfHDUKdGGkI7X1yk9spPvd2cZcVpVqjnLmaWpNzk5MvDxKAAAAAAAAAAAAAAAAAAAAAAAs83y+OJoVKM9nOWyXyyW2MvBntb1nRqKa5Ep4ZyLE0ZU5zp1FzZwk4yW5o6+ElOKlHRmSuJSuWLpEElkiLgskQSWSL/JIXqt/LF8Xs+lzkfbW47PZ3Z/75JeC/V6pGVbR/Xkz1z5MZ5ic9xNkqa1ltl3LRcfod97EbL36kr2a4R/THrzfguHi+4x68vhMJc+lngkebklkjfPs4yf3sXUW+FG+7Sc/+vhLeaHbF1pRj1f2X38jAvav7a8TezQmvAAAAAAAAAAAAAAAAAAAAAAAAABo/2g5R7uLprdGtbhCf0j+03mybn9mXVfdffzPejLkaQ2bwyUiCSyRFwWSPJJZIzOQw9WpLfJLgr/yfNPby4zWo0O5OXm8L/qzNto8GzJVJqKbexJXb7EcPb0J3FWNKmsyk0l4mS3hZNVxNZ1Jym9ZPTcupcD7zYWULO2hb09IrHV834viYTeXkpGYSkXeUZfLFV6dGGxzfrS+SC2yl4Lzsus8bitGjTdSXL1K1JqnFyZ2fC4eNKEKdNc2EIqMVuSVkcXObnJylqzRSk5PLKpUgAAAAAAAAAAAAAAAAAAAAAAAAAFLE0I1YTp1FzoTi4yW9MtCbhJSjqiU8PJx/N8vlhq9SjPbzX6svmg/dl4rzudjb1lWpqa5+psIPeWSyuex6JEElkiLgukbFlUObRh27eLuvKx8Y9q7jttqVO6OIrwXH65M+isQLXPcTZKmtZbZdy0XH6G+9h9l705Xs1wX6Y9eb8Fw8X3Fa0uRhD6WeKRFySyR0r7PMm6Gi8RUXta69S+saOq/dr3c05na112lTso6R16/xp5mqvau9LcWi9TbjUGCAAAAAAAAAAAAAAAAAAAAAAAAAAAADVeX2T9NQ6eC9rQT51tZUviXhr+7ebXZVz2dTs5aS9f508jIt54luvmc2udKbBIgkskRrsWr07yG1FZehdI2rZTht2RhHySPgbVS/vHuL9VSb85P+TP8AdRq2JrOpOU3rJ6bl1Lgfc7CyhZ20LenpFY6vm/F8TFfF5KRmFkjLcl8oeMxMKbT6KPrVn+BfD3t2XF9RiXtz/j0XLnouv8HlcVeypt8+R2KKskkkktEtEjjW8mgJAAAAAAAAAAAAAAAAAAAAAAAAAAAAABDW/QA5Jyryj0TEyhFexn61J9XNesf0vZ3W3nX2Nz29JN6rg/z4m2oT7SOeZhWzMMhI9UZ82UZNXUZJ232dzwu6LrUJ0ovDlFpPuysZ8C8eDMhmmZqpFQp3s9sm1buRyHs37LVLCu7i5aclwilx11ei5cF1Z7SnvcEYo7gokeWyS6R1vkVk3omGTmrV61p1L6x+WHgnxbOR2lddvV4e6uC+78fTBorut2lThotDYDXmKAAAAAAAAAAAAAAAAAAAAAAAAAAAAAAADCcrsn9Lw0oxXtqfr0u2S1h4rZ32fUZthc9hVTej4P8APge9vV7OfHTmcjZ15ukiLklkjyCyRBJZI2TkJk3pOJU5q9DD2lK+kqnwR4q/h2mt2pddjR3V70uHhzf2/wDhi3tbs6eFq/6zq5yZogAAAAAAAAAAAAAAAAAAAAAAAAAAAAAAAAAAcv5f5N0FfpoK1HENt20jW1kvH3v3HUbKuu1p9nLWPp/Gnkbiyq78d16r0NVubUzkiCSyRMIOTUYpylJpRitZSbsku1sNpLL0JbSWWdm5N5SsHhqdJWc/eqyXxVH7z7tEuxI4u8uXcVXPly6HO3FZ1ajl5dDKGKeAAAAAAAAAAAAAAAAAAAAAAAAAAAAAAAAAAALDO8sji8PUoz2c5erL5JrbGXHyue9tXdCqqi5eh60arpzUkcXxFGVOc6dRc2pCTjKO6SdmdrCUZxUo6M6OLUkmtCkWLG5/Zxk3SVZYqovUovm0r/FVa2y/SnxfYabbF1uQ7GOr16fz/dTW7Qr7sezWr16HSTmjTgAAAAAAAAAAAAAAAAAAAAAAAAAAAAAAAAAAAAA5/wDaTktnHGU1sdo17LTqhUf9v7ToNj3X7En81919/M22z6/7T8Px9/M0rA4SderTo0lepUlaK6lvk+xK78Dd1akaUHOWiNjOahFylojteV4CGGo06NP3KcbX65PVyfa3d+JxNetKtUdSWrObqVHUk5PmXR5FAAAAAAAAAAAAAAAAAAAAAAAAAAAAAAAAAAAAAARKKaaaTTVmntTW4J44oFtg8to0W3Qo0aTl7zpUoQb77I9alerUWJyb6tsvOrOfvSb6sujyKAAAAAAAAAAAAAAAAAAAA//Z;" vertex="1" parent="1">
          <mxGeometry x="1523" y="1033" width="178.36" height="176" as="geometry" />
        </mxCell>
        <mxCell id="HSzltY3X0y76gQs0_PpO-49" value="&lt;div&gt;&lt;b style=&quot;&quot;&gt;&lt;font style=&quot;font-size: 24px;&quot;&gt;Website Frontend&lt;/font&gt;&lt;/b&gt;&lt;/div&gt;&lt;div&gt;&lt;br&gt;&lt;/div&gt;" style="text;html=1;align=center;verticalAlign=middle;resizable=0;points=[];autosize=1;strokeColor=none;fillColor=none;" vertex="1" parent="1">
          <mxGeometry x="1346" y="1234" width="220" height="55" as="geometry" />
        </mxCell>
        <mxCell id="HSzltY3X0y76gQs0_PpO-107" style="edgeStyle=orthogonalEdgeStyle;rounded=0;orthogonalLoop=1;jettySize=auto;html=1;" edge="1" parent="1" source="HSzltY3X0y76gQs0_PpO-58" target="HSzltY3X0y76gQs0_PpO-104">
          <mxGeometry relative="1" as="geometry" />
        </mxCell>
        <mxCell id="HSzltY3X0y76gQs0_PpO-58" value="&lt;div&gt;&lt;b style=&quot;&quot;&gt;&lt;font style=&quot;font-size: 20px;&quot;&gt;Data Validation&lt;/font&gt;&lt;/b&gt;&lt;/div&gt;" style="text;html=1;align=center;verticalAlign=middle;resizable=0;points=[];autosize=1;strokeColor=none;fillColor=none;" vertex="1" parent="1">
          <mxGeometry x="1131" y="-504" width="161" height="36" as="geometry" />
        </mxCell>
        <mxCell id="HSzltY3X0y76gQs0_PpO-59" value="&lt;div&gt;&lt;b style=&quot;&quot;&gt;&lt;font style=&quot;font-size: 20px;&quot;&gt;Data Streaming&lt;/font&gt;&lt;/b&gt;&lt;/div&gt;&lt;div&gt;&lt;br&gt;&lt;/div&gt;" style="text;html=1;align=center;verticalAlign=middle;resizable=0;points=[];autosize=1;strokeColor=none;fillColor=none;" vertex="1" parent="1">
          <mxGeometry x="1733" y="-251" width="165" height="50" as="geometry" />
        </mxCell>
        <mxCell id="HSzltY3X0y76gQs0_PpO-60" value="&lt;span style=&quot;font-size: 24px;&quot;&gt;&lt;b&gt;XGBoost Evals&lt;/b&gt;&lt;/span&gt;" style="text;html=1;align=center;verticalAlign=middle;resizable=0;points=[];autosize=1;strokeColor=none;fillColor=none;" vertex="1" parent="1">
          <mxGeometry x="2779" y="1177" width="190" height="41" as="geometry" />
        </mxCell>
        <mxCell id="HSzltY3X0y76gQs0_PpO-61" value="&lt;b style=&quot;&quot;&gt;&lt;font style=&quot;font-size: 20px;&quot;&gt;Data Storage&lt;/font&gt;&lt;/b&gt;&lt;div&gt;&lt;font style=&quot;font-size: 16px;&quot;&gt;(Long and Short-Term)&lt;/font&gt;&lt;/div&gt;" style="text;html=1;align=center;verticalAlign=middle;resizable=0;points=[];autosize=1;strokeColor=none;fillColor=none;" vertex="1" parent="1">
          <mxGeometry x="3787" y="-102" width="179" height="55" as="geometry" />
        </mxCell>
        <mxCell id="HSzltY3X0y76gQs0_PpO-62" value="&lt;span style=&quot;font-size: 24px;&quot;&gt;&lt;b&gt;Data Storage&lt;/b&gt;&lt;/span&gt;&lt;div&gt;&lt;font style=&quot;font-size: 16px;&quot;&gt;(Long and Short-Term)&lt;/font&gt;&lt;/div&gt;" style="text;html=1;align=center;verticalAlign=middle;resizable=0;points=[];autosize=1;strokeColor=none;fillColor=none;" vertex="1" parent="1">
          <mxGeometry x="156" y="1288" width="179" height="60" as="geometry" />
        </mxCell>
        <mxCell id="HSzltY3X0y76gQs0_PpO-69" style="edgeStyle=orthogonalEdgeStyle;rounded=0;orthogonalLoop=1;jettySize=auto;html=1;entryX=0;entryY=0.5;entryDx=0;entryDy=0;" edge="1" parent="1" source="HSzltY3X0y76gQs0_PpO-63" target="HSzltY3X0y76gQs0_PpO-11">
          <mxGeometry relative="1" as="geometry" />
        </mxCell>
        <mxCell id="HSzltY3X0y76gQs0_PpO-63" value="" style="rounded=0;whiteSpace=wrap;html=1;" vertex="1" parent="1">
          <mxGeometry x="2135" y="858" width="380" height="450" as="geometry" />
        </mxCell>
        <mxCell id="HSzltY3X0y76gQs0_PpO-64" value="" style="shape=image;verticalLabelPosition=bottom;labelBackgroundColor=default;verticalAlign=top;aspect=fixed;imageAspect=0;image=data:image/png,iVBORw0KGgoAAAANSUhEUgAAAScAAACrCAMAAAATgapkAAAA6lBMVEX///8tcrgaR29SlM8fW5gAAAAZRWwjYqM4e74dTnsscbgYRGkoZ6Usb7OzyeIYarTv9PoOQmvn5+eRkZFcdpHx8fG3t7fV1dX39/cLCwt6enqLi4vf39/AwMCcnJxpaWmtra1VVVXJyckATZFFjcyXl5dEREQAMWFvb28dVY09PT0iIiJNTU1gYGArKyu7ytwAO2caGhrO1982bJ1HhbwdVo8bT4CKnK80NDSwsLCgutk/bqIAV51IdKaBpc/W4vCntMNplchQbIl0iZ8mV4MAY7G9yNJBYYJEgLVKcpwuYpEtUneEl6lrgpoyq0bUAAAKiklEQVR4nO2dC3eiSBaAgQQmGtOOMAgC4mOj7QsTO4lt0pPd2R47nU16/v/f2XoKGkBE0QTvd06OD5BYn1WXS1EUggAAAAAAAAAAAAAAAAAAAAAAAAAAAAAAAJAhVw+f4nj4ZB76G74Hrr79WY5HPPl06C95cK6+/ev0NzGes5PLy+M2hS2dJvB0cnJ5crytj1pK5omY+v3Q3/gQXD1SS0k9HWed8i0l93R8pniL29QTMXXoL783li1t5ul4TK1a2tTTcbS+YFxK6yn/psIspfGU89b3V5ildJ6Qqf8eujhZ8fQ5VFNKTyfivw9doGxQP0s79XRWfjh0kbLg94qyY0/ij6tDF2r3mD8r0o49FcXyfw5drJ3zz7W0e09FMW+Hxl+xpp17Eotnhy7Ybvnrs5SJJ7Gcq+zgC9WUgSexnKPsQGWaojwVYzUVYz2JP3KTmOuvlRhPd9PCOm5uYzyJ5ZxkB+b3aynKE5KkKNIaFKVSeHmO9FTMSXbw90LTiqf+VFovibuqSKuquCeUHeSh8+CrrynoqV9ILolXK2n+eBviSSzfHrqQO+CPil9UX9KGjha1SvGDle9JLOcg3Vz1dLdBawt3Jb3c5t3TtpJ8Vc/oODi3nnYhiatS+mIxoScV8e5D/ZKn0CIr52sIt6sUStxUvCdVRrj7Km9aYj0hA4XpXWkNj3OpUnnrSlFOE3lysafBvsqblkhPiqIgR+T4LvbAhRy33D6+SJXzVVfnhSSextiTrO6rwCkJ86TgetS/2/Q4+PkF5RNLjVBRSms9ObI8RKo6eytxOlY94XJO+6n7C55v5lLQ1TkK58VYT5os92zkir6qu64hOPZo6NUFwbBGw1aVvK82rdZ41uro6LnpLjDwMsMeTbpWnayHljVNoW51h412Zp5IOFpylKpfBTXCgsIb4XnhIr4+obpUbaOGR4os9GTZs0hDlF2PPWIVMqOG2qcuL2iiZTZ77uHP42XNEX1jp6KCnqZ3q45SeSKunl9YrULhPM4TNqDqQ1m2yUvqaMiKTh6HqA4hkZPZbIJe9VY9dRYresJiGYl5o116+luqRPcXpPeE8vGLOalTlevX/8V4ssi+rsEbHvbkqqY6QI8d1dTxo4OCmOvopmmiGjZBmZZBGJLoj7OKoWOqLfRYp57GVd0kFXCXnhBP15l4EsXS/Fy6/hX7v00awqu8mViseDbbBdrUEwOvxjNSj7ZVl/rBuwNcobAnmy/esacva/ozU3rC51tKheuvsf+bRSZcKyzuyQz3pKpC3fdkMbMN7qOLKpJJPJENNT6QJ9z3VIr31MMeDMMZ0DgU6cnxeBiinjosiAsoZtfIOy2yhQw9Pf2M6/fd8jwCSkMfYqKTPvFjMmk+EZ5IuBnXZO7pHj3RhH16+vLHdSWbOM6z+PJZ9KmEekAT3pVFeUJRbOToepMtbXMb+2t338P7M3foSSz+iKxRuDQkYWyiilXTozzh8FVlWk0as1tsCx0Wp1Q/jmfiKaw/c8eeovNM0y+wRVVEe3IFvlRFTickNWirxNlQFfQW/Xw+PTV5NKZNyYtsdyTDtFh8qvpN1fbTcZpX5tNTV/Y7CmTyvLfiyaKe2iyChXhiKTzSZAY97Tp/OqgnW9MW/QRNTbMNoappGi5v3dZsnCfU0Wv8aDQGg54hdPBSA32MYpODX8PqDro9dhyM3iVHzvfoSW48bUJsz3D23cYfxtOBAU/JAE/JSODpIp7j89S/62OmGDJih3W0rUWSCoX5fP7y8nJzc/P4+Pz8fHt7cYEV4cGH8f2+H4R/Xl9feXf2ctE3ZPHJSqVC/pC86bxfKpXO8jCc1TTNp8/rLaQDWbv+ZZo50IT5kpknxJp+uo8EeEoGeEoAik/ZeWLx6d0PRkkA3t9V/GKl3uMtPnZ+TnZ3aH9XKEynd6elb2dnOQjkwfzpDsHzJ5pBvbUXlT+tpk+3ZxdikaZPgfxJrRLqRkalMfn2df6OQd9pbzvOY7/5+KI/fLjTTo8FKt9+rcfELLrxrO22vN/jO+TJ6zUaeADATI/7WilRa3IXbR93ArPhBZosa7ZtDbY9jb53Tw7/+lkMDUOe6Mi8qsz+k8ZOWzUXPczp2LsnFprc6O+t62bguW6GLTODb6OV2LOFJ3zGjwxg4Z6EmtxIqYhwKE/CQB6jX7nX4+fBex1B7fUE3W0NJzPaG9y2RsPapNshq2gNQ7j3hpNBE22mMZ6MbfbJJvrA2KuveMLd5mrQU5d6+3CeNFyONj0LTALwPa4DnRqNulgUGaMz5KeuRrI3oMvcUSAym17glELQk4G3uFSftorkB/NUJ4oGrDU05ZpJzsX1DDIoZ4wqi263ddPUbRqSUWxuoNcGEjmo6qY+k2U2IMHVTdWizTjgSaXquKdOcNzLR/JkkPOSLhswMMC/tsNjVic4rlWfkLK3mFGLDIEikdohH6FiGuQ0VMCTPiYn4lG19Vqt1kQebpezHcyTQ9qFSluHQ9536NlxsnMK5IVd0gq5pw6ueQI5pecQz3TNNql1AU/mjLRXbZGxbTdEfb/jC97UJ1QPcF7jyjMhzJNqGKq+7Elb8tSTBzScU0PB+jRk9ammOo5juPJ2cXy/41WW41ObFlfHVaYZ4qmNzxfLk1qMJ4+PT0Ct016NT5oQiONtWnPT8/R9f+OfAp5sGoeFMVLk0Ci14gmVbNS516x4T6OFJ23JU5tubOFJoPVrCzIcTyeKp0v9T74ncyx3yRMXPXZoEVY8jZiDuHZnyWOaY9LPBjz16O/gexps1/Ay9VRa6afzPdncCcqSnBE9GFvxxIfMxXmq8t39PXnie2qz/Mr3tPWhcEaexGKpcC5Vlsb7ck8q+rX5YYQn90gUD/FEapkxifFk1miAQlEbHy9yTyYK2xN9yVNvu4H3v35KGcXxiykdP14JjB9HnkYom8HD4Bv8AK0t8xxoxRPKHe12s8Gy83BPuELN3GZnQl8hTzO0fZy4zxYH3A3Pa3g8Y09LZtcjzNmVG4r029v+pxq7bIUw5lmAsexJJ7u72r1H2h8/PrNZZso8Cfd0KOyM1lOeLXVd9jMs+p+6gf+4paddXd9y81JQKqHXt+j0UgJnqXfR4gHWNFg/JFoNF9Os23ZdR0kUXt0xaAVBKVVwHfSkalt23eRbIPjbV9+8s70n5kqa9u/SenpzvdRdce15c34s/K4JvU6RXse5oafLZ3KZ1Mr1d2TWnlhPVXn4AU7IxF/P2T9NeD0nqkYh13NOi3TSnmhPhlN//9coYtZcH6xI668Pvpkrbx0luz5Y5+N03z1ZXm9eXH8dtdZqaR+g1WU3f4GUfP6CD0F282Hkdzwd2b0lmfIpXtJN7udXYWw+qRFzpOR3vp6o+Z82boFk/qe3/SpiTuZ/ip5PbJNghVbM+XxiMD9dUtbMd9iH+Q4ZMH9mQmA+1oTA/L4JgfmiEwLzjycD5rNPCNwfISEO3G8jGXD/loTA/YASAveXSgrcrywpcP+7pMD9FJMC9+dMCtzvNSlw/+CkwP2okwL3N08KNrXe0+XlcUXvMK6+/VmORzyyfVwUVw+f4ng47hYHAAAAAAAAAAAAAAAAAAAAAAAAAAAAAMCR8X/nc3eNeFPI2QAAAABJRU5ErkJggg==;" vertex="1" parent="1">
          <mxGeometry x="2186.99" y="1108" width="276.03" height="160" as="geometry" />
        </mxCell>
        <mxCell id="HSzltY3X0y76gQs0_PpO-65" value="" style="shape=image;verticalLabelPosition=bottom;labelBackgroundColor=default;verticalAlign=top;aspect=fixed;imageAspect=0;image=data:image/jpeg,/9j/4AAQSkZJRgABAQAAAQABAAD/2wCEAAkGBw0NDQ0NDw0NDQ8NDQ0NDQ0NDg8NDQ0NFREWFhYRFRUYHiohGBolGxUVITEhJikrLi4uFx8zODMsNygtLisBCgoKDg0OGBAQGislHx0rLSstKystKy0tLS0tLS0tLS0tLS0tLS0tLS0tLS0tLS0tLS0tLS0tLS0tKy0tLS0tLf/AABEIAOEA4QMBEQACEQEDEQH/xAAbAAEAAgMBAQAAAAAAAAAAAAABAgYABQcEA//EAEkQAAEDAgEHCAUJBAkFAAAAAAEAAgMEEQUGBxITITFxMkFRYYGRobEiU3KCwRQzQlJikqKywiNDc9IVFyRjg5Oj0eI0VGSE8P/EABkBAQEAAwEAAAAAAAAAAAAAAAABAgMEBf/EACwRAQACAgECBAUEAwEAAAAAAAABAgMRBCExEhNBURQiUmFxMkKBkSMz8aH/2gAMAwEAAhEDEQA/ANWvAeSUCgUEggQUUqBBQSQKBUCgxBJFIQKgkECgxAoEIJBQKBQKBBRUggUCgrwK2sCoEIFAoJBFKBUCCgkgQgVAoG6KUCCgQVAhBJBiBQSBUCEEkGIFBK6KQUCgrq2sEgUCgQVAoFBIIpQKgkCgUCECoFBl0EkUhAgqBCCSDECgkCoEIJXQYgUCCilBXltYFBIFAoEFQKBQSCKUCoEFA3QN0ErqBQN0UoG6BBUCEEkCgxBIFQIKCV0GIFBl0FfW3TEoFBIFAqBugUEmAk2AJJ3NAJceAG9FbqgyWxGexbSyMB+lN+xHc7b4LdXj5Ldo/tsrivPo3tLm5qXfO1MMXSGMdMfNq3RwrT3nTbHGme8tpT5uaYfOVM7/AGQyMeR81trwq+ss440esvazIfDG8oSO63TOHlZZ/CYoZeRSExkzg7d7Ivend/MpGHBH/Ty8cJf0Dgv1Kb/O/wCSy8rB9jWL7A5N4O7cyL3Z3fzLGcOCfWDwY5RdkVhruSHjrbM4+d0+ExT/ANPJpLyz5vqY8iednHQePJY24NfSUnjV9Gsqc3s7fm6mKToD2OiPeCVqtwbR2lhPHn0lp6zJbEIbk07pAOeEiXwG3wXPbjZK94/prnDePRqXNLTZzS0je1wLXDiDtC0zGu7XMTDFEKBQYgkCoEFBJBiBQV9bmLFAhAoJAoPVh1BNVSCKCN0r7XIbuaOlx3AcVa0m06hlWs2nUL7g2bloAdWS6R54YCWsHUX7z2WXdj4X1uqnG+pu5K/B8KBY3UxOG+OJusmPG1zfit02w4ujZ4sePo0ldnJbtFPSuPQ6dwb+Ft/Nabc2P2w1W5PtDQ1eXOJS30ZWQA+qiZfvfdc9uVkntOmq2e8tZPjdbJy6uod/iOaO5tgtU5Lz3lh5lp7y8b5Xu5T3O9pxPmsNz7puUdEHmHcom2atv1W9wV2JBo6B3BQfVkjm7Wuc3g4jyTc+67l7IMXq4+RUzt/xXEdx2LOMl49WUXtHq2dJlniMe+Zso6JY2X72gLZXlZY9ds4z3hvKLOFuE9Met0LgT911vNdFed9UNteT7w3cWK4ViIDHGJ5dsEc7dCS55hfn4Fb4yYcvSW2L0u1mK5BROBdSyGI80cpL4+AdvHitOTgxPWktduPH7VLxHDp6V+rmjMbjyTva4dLTzrgvS1J1ZzWrNe7zLBixAhAoJAqBQKCvraxKoxQN0G0yewiSvqWU7Dog+lI/foRi13dZ2gDitmLHOS2oZ46eK2nUaqsw/AqZsYFieRG30ppnc7nH4nZ5L0ZtTBXTtm1cUOfY3lhW1mk3T1ER2CKEltx9p+8nuHUuHJyL3cl81rNALDds4LnaigUCEVJAqCQKBQN0CFAoEIMO1FbrB8pqujsGSayMfupbubbqO9v/ANsW7Hnvj7NlMtqr7h+KUWLwuhe0aVrvhfym/baefiF6NMmPPXUuutq5I0oOUWDuoagxE6THAvied7mX3HrHOvNzYpx205MlPBLWLS1sQKBCCQKgUFfW1iUCqMUF1zVShtdMz1lMbe48fzeC6+H+uXRxp+bT75zMGnFR8tAdJC9jGOsCdQWi23oad9+lZcvHbxeL0XkUnfiUcFcTmKgQgUCgldAopUEgUCgQUCoFBgQSRVpyDwmaSqjqgHMhgLyX7QJSWFugOkelc8F18THabxb0hvwUmbeJ7c5st5qRn1Y5nH3nMA/KVnz5+asMuT3hTVwOYoMQKCQUDdBXgVuYJKKUCqLHm+n1eKU/94JY+9hPwW/jTrJDbgnV4dTxfG6akkiiqHaDZw/RkcLxXba7XHm38NhXo3yVrOrertvetektFi2QdDVDW07vk7ni4MXpwO69HcOyy034tLdatdsFbdYVDEchsRguWxsqGjc6B13EdbXWI7Lrktxclfu57YLwr1VBJCdGVj4j0StMfmue0TXu1TEx3QCiFAoJAopQKgkCgUCEE6eN0p0Y2ukPRG0vPgkRvssRMt9QZH4hPb9kIW7PSndo7PZFz5LfXi5bemvy21w2la8KyGpYbPqHmocNpB9CEcRz9psuynDpXrbq31wVju3eHYvSzSvp6ch4hYC50YGqbtsGg852cy348tLW8NfRtreszqFCzgTaWIOb6uKJvbtd+pedzJ/y6cmefnVu65GlJAoMQKBQV8LcwIKgkopQe/AJ9VW0cn1aqnvwdIGnwctmOdXj8sqzq0fl0POzDekppB+7qtE8HRP+IC7ebHyxP3dfKjdYc+wrGaqjN6eZ8QvcsBvGT1tOxcNMlqfplyVvavaVuw3OVO2wqaeOT7cJMbvuuuPFdVOZP7ob68mf3QsFPl5hcw0ZXPivvbNC5zPvNBat8crHPdtjkUnpL6iiwGr2tbQvJ543MjdfsIKvhw369F8OK3s+UuQWGSbWiVn8OYkeN1jPFxT2PIpPZ45M2tKeTVVTeo6hw/JdY/BV95YTxazPeXxdm1ZzVj/eiafIhYfBe0nw0e6P9W3/AJn+h/zV+C+6fDT7ptzbs56x/uxNHmSp8F7yvw0e77R5t6Ycqqqj1AQtH5FlHBr7yfDV95eyLITDWbXa5/8AEmsPw2WXwmKO8s/IpHd9v6OwSl2ubRtI9Y9rz+IlZeXgp7L4McIzZaYXANGNxktubBE4N7yA3xUnlYq9knPSOzSV+cOQ3FPTtZ9uYl5Hutt5rRfnT+2P7a7cj2hWMTxqqq/npnPbv1Y9GP7o2d65L5b3/VLRbJa3dcM2EXoVcvS+OLubpfqXbwI6Wl0caOkyq2VE+sxCrd0TOYPcAb8Fx57byS05Z3aWsC1NZUEggUGIFBX1uYMCCQKgkoqTHlpDhvaQ4dRG1WJ1O1dgy9YJ8HkeOYQTj7zT5Er0+RHixbdueN49uPry3CUCCgVB9Y5ns5D3s/hvcz8pWXin0ldzHZ7IsZrWcmsqx1fKJbeasZLx6z/bKL2j1ehuUuIjdW1Ha4O8wr51/qlfNv7pjKnE/wDvZv8AT/lV8/J7ynmX95BylxE762o7HAeQU87J9Ur5t/d8n4zWu5VZVn/2JQPAqTkvP7p/s8dvd5ZJ5H8uSR/tvc/zKw8U+7GZme6It1KIkgUCFB0/N3Fq8O0zs1k00h4CzfJq9XidMUy7sEao5tUy6ckj/WSySfeeXfFeXbrMy47d5QUQgoEFQIQSQYgr4W5gUGIJAqBUHY4P7Vk8Ol+Hke81lvML1v14f4ehHzYnHgb7eleS4CkhQKCQKBQerDaKSqmjp4gC+Q2bfYBYXJJ5gACVa1m0xEerKtZtOoXv+rUav/qzrberGq0ui172Xb8D079XT8N07qNiNFJSzSU8os+M2dbaDcXBB5wQQuK1ZrMxPo5rVms6l8AsUKBUEgUCgQg6thZ+T4I124to3ydrml3xXrY/lwfw76/LjcqC8hwG6CSKQgQVAhAoK+tzEhEKDEEgoOw5tZNZhEbDt0JKmI+yZHOA7nBenxp3i07+P/r1LkJiMZMZ3xkxni06J8l5kxro4YjRQYoFAoJAoLFkHXx02IxOlIayRj4dM7mOdYgno2i3at/HtFckbbsNoi3V2O4te+zffmsvW29BV8p8kYsRcKhkxjl0AwO2Pie0Xtcb+feCuXNxoyT4onq0ZMMX6w57i+TdbREmWElg3TR+nGeJG1vaAuDJgvTvDkvitXvDUgrUwSQKgkCgHXsbbTY2HSeZJ+w6xliRT4PLGPVwQDgXtafC69Xkz4cP9O/L0xuV3XlOAqBuilAgoEFQN0FfW5iUCEQoMUHUs0c96aqj+pO144OYB5tK9Hhz8su3iz0lRMp4NViFYzdaokI4OOkPNcWaNXmHNkjV5hrQtTAqjFNBCBQSCD0/L6jV6r5RUau1tXrpdXbo0b2t1blfHb3lfFPu9mD4/WUR/YzODeeJ93wn3Tu7LLOmW9O0sq5LV7SveD5waeWzKqP5O47NMXkhPHZdvjxXbj5dbdLdHVXkRPSz21+SmG4gzXQlkZf6QmpS0scTzlo9E+aytx8eTrX/AMZTipeNwp2LZEV1NdzGiqYPpQgiS3Ww7e4lcmTi3r93PbBavZW3NIJaQWkb2uBa4cQdoXNMa7tLFB7cHh1tVTR/WniB4aYPwWeON3iGVI3aIdbymwc19MYBJqjpNe12jpNLhuBHQvXz4pyV8O3oZKeKunKcXwioopNCZhbe+g8bY5B9l3w3ryMmK1J1LgvSa93iBWtgUCCgUUgoFBXgVuYJBFIUCEQoL9miqLVNXF9eBkgHsPsfzhdfDn5ph1cWfmmGpzjw6vFZ/wC8jhm7C3R82Fa+VGry1541eVbC5mooFUYoFBIIEFAoG6g9VBiE9M7TgmfC7eSw7Dxadh7Qsq3tXtLKtpr2XPCM4sjbNqodYNxlgs1/EsOw9hC7MfMmP1Q6K8mf3LK2XCMXbonUzOtyXXiqG8Nzh2Lo3hzQ3f48jR4pm6Bu6ln0eiOe5bw0xtHaCtF+F9MtduN9LwZN5M1lPiVOZoCGMc9xkaQ+O4YbbR123gLXhwXrkjcMMeK1bxtusucoKiiqKQQuA9CR8kbgCyRtwAD47Qt/JzWpaNNubJNZjTYYVi1HjMD4ZGDS0RrYHnaPtsI5r842jqWdMlM9dSyreuSNOe5S4M6gqTFfSjcNOF53uZ0HrB2dy87NinHbTky08E6asLS1lAhFKDEFfW5gQUElFKBCC1Zs5tDFYtuySGeLiSGvH5CujizrI28edZGyztwaNZTS2+cpnMJ6Sx5P61nzI+aJZ8mPmifsowK43MkFFKBVGKBugQgkCgVAhAoHo6jcdR6Qg32F5XYhTWDZta0W9CcGQW6Abhw71upyMlfVtrmvVfskcqjiLpI3Qap8TA9zmu0ozc2sOcLvwcjzJ1MOvFl8b2YnJhc0phqTSulYANGbRD2tO0WJ5tqzvOK06t3ZWmkzqXypMLwqmeKiPURuaDZ+u2AEbeeylceGk7jSRWlesKVl7jUNZPG2E6bIGvbrByXucQTbpA0Rt4ri5WWL26ejmz3i09FZuuRoIUCgQgxFV9bWBVCCgkim6g3GSNRqsSon7v7Qxp967f1LbhnWSGeOdXhec70F4aSW3JlkjJ6nMv8ApXVzI6RLo5UdIcwXA40gVBJRSgVRigboFBIFAqBCBQKDomaqD0KuXpfFGOwE/qXocGOky7OLHSZVXK2fWYjVu3gTFv3WhvwXJyJ3ks0Zet5aiw6B3LS1pBBJAgoFQKDEFfC3MCopVCCgkivpDPqnsl3ap7JL+y4O+CR3N66uv50ItPCnSAX1c1O8HoDnhh8Hr0eV1x7d3JjePcOPrzXAxBIFQSUUoFUYpIUCgkCgVAhAoOrZtItHDjJu1s8zuxp0P0r0+H/r27uPGqbcxqp9bLLL6yWST7zifivNtO5247TudvmsUKCQKBQIQIUCgrq3sErqBUUqhBQJFwQdxBB4FB2jE71eTz3b3Pw9knvtaHebV6d/nw/w77bticauvLcBQIQIKgkopQKoxSQoFBIFAqBCDruCk0uBMfuLKOSb3nBz/Ny9XH8mB30+XE5GwBoAG5oAHYLLynBEaTCBBRSoEFBJAhBl0FeW5gUEgoFRSqEFB2nIZwqMDjjO20U8BHAubbusvTwzvE9DFO8TjNiNh3jYeIXmT0l5+tFQKDEEgVBJRSgVRimgoFBIFA2vsG87BxQ1t17K13yfBpGDZ+xhgHaWtsvVzzrD/DvyTrG5GvJcBugkEUoFQIKCSDEFeC3MCgQVBIIFRSqOtZoKjSoaiM/uqt1h9l8bHfmLl6PEndJh28Wd1n8uaY3Bqqysi+pV1LR7Otdo/hIXBkjVp/LktGrT+XkCwQhEKBCBBUElFYgkqMUkIQKD24PDraqlj36dTTtPsmRul4XWVI3aPyyr+qHR86k+jRQR+tqmX9lrHu8w3vXoc2dUiPu6+TPyx+XLwV5jiKBQSCKUCoJAoMQV5bmBQKBQSBUDdRXSMzlRZ9bFfe2GQDrBc0/Bd3DnvDq4s9ZhXs4lI6HFaklpDZi2ZhO5wLGgkdoWnkV1eWrNGryri52soEIhQYEEgoJKKxBJUYoFBYsgaV0uJ05DSRCXTPI3NAaQCe0rfxq7yQ24a7vCwZ2J/To4r7myyEdZLQPit/NnrEN3JntCgrhchBUCgUEgilAqDEFfW5iUQoFAhBIFQbLJ/GZcPqWVMW0tu18ZNmyxnew+BvzEBZ48k0tuGdLzSdw67S4jhOPQiN4je8DSMEtm1ELjztO/3mr0ItjzR1d0WpljqruLZrjcupKkW9TUNvbhI34grVfifTLVbi/TKq1+RuKU99KkkkA+lBaYdw2+C5rYMlfRpthvHo000EkZtJHJGeiWN8R7nALXNZjvDXqXzDh0hYpuEkCE0EKKdIdIUTb6wwvkNmRySHojY6R3c0ErKKzPaGXVuaDJHE57aNJIwH6U1oR3O2+C21wZLejOMV57QtGFZtDcOqqgW9VAN/F7vgF0U4f1S3V431SsNViGF4JCY2CNryLiGOzp5XDncd/a5brXx4Y6Ns2pijUOW45i0tdUPqJdhdYMYDdsbBuaP9+ckrzcmSb23LjvabTuXhBWDAqBugUCECCipIMUFfC3MEggxAoFAgoJAqCTHEEEEgg3DgbEHpB5k2qyYXlzilNYCfXsH0Khoktwdsd3krdTkXr6ttc16+qz0edUbNfROPXBI0+D7ea6K8z3hujle8NzBnFwmYWfro7800BcO9tws45OOe7P4jHPd9ji+T05u59ASfWRsafxBZ+PFPsy8zFPsiKLJuTaG4aeDox8Vj4cG/RPDhsn/QmT3q8P/wAxn+6y8vEvl4gcPycj2luHDi+M/FYeHBtPDhhIYpk/Dta+gBHq2McfwhZePDHsvjxR7PnNl/hMOxhkktuEMBAPAmwWM8nHXsnn447NTWZz27dRRv6jPI1vg2/mtc82PSGueV7QreJ5bYlU3Gv1DDvZTtDL8XG7u4hc9+Te3q1WzXt6q85xJJJJJNySbknpJ51zzMtTEEggQUCoG6BQKBugboqvgrawIQKKUQoFAhQSBQKilUIKCQKgxAho6B3JpUgiG6BCgkFFKBVGKBugQgkCgVAhAoFAoK+FtYEFFKCQQYgUCECFBIFNBUUqhBQSRTdQIKIUGIJAqCSilAqjFA3QKCQKBUCECgUFeC3MCgkFFN0EkGIFAhAoJBQKilUIKCSKVA3RCgxBIFQSUUoFUYpIUCgkCgVAhAoK8tzAhAoJBRSgUUohCBQKCQUCopVCEEkUqBRCgQgQVBJRSgVRikhQKCQKBUCgr63MGBBIIHnUVJAhAoFBgQSCBCgQoJKqQgUUoFRCECgQoJKKUCgVZCoFAoJBBiD/2Q==;" vertex="1" parent="1">
          <mxGeometry x="2232.5" y="908" width="185" height="185" as="geometry" />
        </mxCell>
        <mxCell id="HSzltY3X0y76gQs0_PpO-66" value="&lt;span style=&quot;font-size: 24px;&quot;&gt;&lt;b&gt;Data Storage&lt;/b&gt;&lt;/span&gt;&lt;div&gt;&lt;font style=&quot;font-size: 16px;&quot;&gt;(Long and Short-Term)&lt;/font&gt;&lt;/div&gt;" style="text;html=1;align=center;verticalAlign=middle;resizable=0;points=[];autosize=1;strokeColor=none;fillColor=none;" vertex="1" parent="1">
          <mxGeometry x="2242" y="1318" width="179" height="60" as="geometry" />
        </mxCell>
        <mxCell id="HSzltY3X0y76gQs0_PpO-71" style="edgeStyle=orthogonalEdgeStyle;rounded=0;orthogonalLoop=1;jettySize=auto;html=1;entryX=0.5;entryY=0;entryDx=0;entryDy=0;" edge="1" parent="1" source="HSzltY3X0y76gQs0_PpO-67" target="HSzltY3X0y76gQs0_PpO-63">
          <mxGeometry relative="1" as="geometry">
            <Array as="points">
              <mxPoint x="3343" y="805" />
              <mxPoint x="2325" y="805" />
            </Array>
          </mxGeometry>
        </mxCell>
        <mxCell id="HSzltY3X0y76gQs0_PpO-67" value="" style="shape=image;verticalLabelPosition=bottom;labelBackgroundColor=default;verticalAlign=top;aspect=fixed;imageAspect=0;image=https://www.unimedia.tech/wp-content/uploads/2023/11/AWS-Lambda-e1701195645609.png;" vertex="1" parent="1">
          <mxGeometry x="3207" y="1031" width="285.31" height="100" as="geometry" />
        </mxCell>
        <mxCell id="HSzltY3X0y76gQs0_PpO-68" value="&lt;div&gt;&lt;span style=&quot;font-size: 24px;&quot;&gt;&lt;b&gt;Scoring Engine&lt;/b&gt;&lt;/span&gt;&lt;/div&gt;" style="text;html=1;align=center;verticalAlign=middle;resizable=0;points=[];autosize=1;strokeColor=none;fillColor=none;" vertex="1" parent="1">
          <mxGeometry x="3248" y="1151" width="194" height="41" as="geometry" />
        </mxCell>
        <mxCell id="HSzltY3X0y76gQs0_PpO-106" style="edgeStyle=orthogonalEdgeStyle;rounded=0;orthogonalLoop=1;jettySize=auto;html=1;" edge="1" parent="1" source="HSzltY3X0y76gQs0_PpO-72" target="HSzltY3X0y76gQs0_PpO-104">
          <mxGeometry relative="1" as="geometry" />
        </mxCell>
        <mxCell id="HSzltY3X0y76gQs0_PpO-72" value="" style="shape=image;verticalLabelPosition=bottom;labelBackgroundColor=default;verticalAlign=top;aspect=fixed;imageAspect=0;image=data:image/png,iVBORw0KGgoAAAANSUhEUgAAAOEAAADhCAMAAAAJbSJIAAAArlBMVEX///8AfsYmP3gAKm4AImocOXXd4OeqsMMQMnEAKG1rd5oXNXMMMHAAe8UAG2gABWI5TYAAEmXHy9eKk63v8PP4+foAccGlxeRIWYcAC2NNXYlkcZYAGGdAUoPi5Opmc5i6vs1capItRHuwtcaaobgAdsOWnrUAAGHE2Oza5vN1gKBjoNMlhck+jsxZmtEAar+2z+iGstuUu9/k7fbN0NsAAFeRud6AiqcAX7sAYrwgP81yAAAd7ElEQVR4nNVdbWOqONOmJLwmomBoFSuCWjy155zu2ba79/P//9gzkwCiIqBi270+tJaicJlh3jKZaNqNEZpxwHVdp5pl2xYccA1iwq8EDzri1pe/KSwLCZlT39N1QjbIcKUVDAOPEULYCMkGcKZlfvHdXoKpPYWf5kcScBKbJjDU53HOMDDIODbjiI1ieM0J4aP/4HBS3Ujli5hQ/AUMnVizCCPw03HVOQ4w5yPX5fpG08QIWH/dDZ8NythEyp5ZMmRjbeWsyRh4ztQ5MJ4W2WramME5M0acuRV+4T23IZi5blr+5a9TJmXPfCwY6l44p4L4muUroZQM+TLQ4s0QBJhxypzoS+69A8LIc0B58Cgfg5SsgECCL1eSD0hjRAInRaGtMgwMm2/kCQ5QTSMOX9LH+GtInIYp8AFzV9Yq4gt18669TWx9iC+VTII0JjYqHWSopBR1kBUHY8+g8K4ViquWEBeOT7+Zbk1HcXHTqUHVzbnMJozbaw25ufLndkVA2UiGOFx4jh/7IMlxBO+K58ZoJsScpZpL5BhGwVcROsKEbbRgSdD+aT5P5DF36S7W70tqlQwfZ5rrgLp8BCviEk4pZUag+VKSQVxjR+fEd9i04K89+t9gJENp1mOP4k2jQQetKCXTnEt7MLNB/KwpDq9pJVoCll3gW5KxBw+tH0gtujLfOTAkNkj51LW0FY/QaATcMzVz/WXcFCaE4i1kTqalDA26JoiH/7CcBf4SH+NQE3VWzkTg7w1zJjqIa2psNPlEi7luT9xMyqoYOe7Xympk6GyYAJ80BPONRDaGVPeWn3X9jGzhurNAG5L8e0gI304cRhnI6kZnnG/iL3F4hHxGYk83QMySyLG0IRh0c2V78kbPl67xJn/q1OeAS4RKlWWZ0rSfjnGqPMmMLzLHiebGXCQcv3vnYlNm5pZUyULCwekDJzYGTUsfv0DlZFynaNxBPrV1CqEQSWJwSPD5OYIwFeKxTxGbOD9Q+8kR6FsNGYLrQ3SewB8iiuOP5LPHkeo6W4SaOQH5DBfwl6+l46MgCCOjlUuJAtMV8j+9rC5uStQRkNUQhrDwVMeMjD55IKlODBahuzwH9RcPQROKfacZ3dQlt23b0E+AwT/5BPRMzfB4TiwoiePIoxNU1jZlk/T4tBuCkjAFinFuskVUuUshBZIbxkluVcBpDh0m8d4Q4XM+1NFlF7NUC1NnpUXc/lSKQ5atGTc8+Dnc/09ggViydmb74Ci0FZKgq4e6vZJHxAJ9gNDNw7FPQsKZMwx8nc+8PYYpSGanoTsG4/uKKhmC6sJhi6kxcoWW2M5ai5ObshpSECf1OiZsjWE53d2TMOGEbpJ5CmBcq/Y9Sx0MxzbGgtgOtcFCis3mhuMo00fsQ/2RR+4Vyw7Cya9hV4C6VumohdZ8aL1zT1guA9cuMEfMvZ3VkOmj+N9VztCh1X+KmUuuGr0KDL7cadc4thh6EWHKMxOccmrdjGCZPtKUvzaf7v4Fbsd10nlEkkalt56k+CCAOrW0hMKjIf2Fmwyk5b3L3/9OpWNm/Vv8A4P0Pukpjt54L6iwnAlq16FmjhyP0kXfCSvUYBZVzxz6U4DCvovZ8mzT0AmsIqsgMmymrW0vCUfMz1LKe05YxRsvD5G0Mv+pEIJ83oQfwqBFXkuLR0NtDLF/uJHcxJz3a/0TT/cCc8IXykXcGUBUcbcEcwvFYlqxZ8y0me1K0ivi9sgvCoAic8EFRUd07agcISDoT3+egkHKGN/cbITm5rq0VHu9EATpl6ZCiwijlBVzDCK5gYKp4ehV4qa1t82/XDbrj2GAIgo/MRs/d8ij8hVBp5FP4IeoxE3mpHBNk6Q/hvgUGiCoxFG2SB1MJ58xgArGLm5ybZSgHlPiKk0WGDqIysjYZSji6LYa5hCscAAyR3coJb3ZCrHw5ivwEt+57r2LkV4k229h4psBDkBx6TzR2g/Mja7bRHe3QMh4D4sJk7XzyfwQTu7j72d4MD6+CiCfxiKlBDMRRdgCYdsXEASK48O4yUR/+NrAHyKmTJPZpCJpCar1i8D2hdNcPRLCdeNas5F4UjxE4c4Hn/0EVmHsKGbuhOs0eOf04jADZ9UVpWqSN/myEZQA30Mihlic2xBKTY3L1eqMgXHHXKW09Tm+TkQLivkomsuVtaJkzeQkQri+ZCBTQ+fESRfgzlCqKEKg9MUEdb0IqWRenDKGd5al/kU1HD5/dyNmcG+2niuCm698BgsYm4qbivNTEFUxY3jJII6Zr20NTMargNocfTW5HKWbKuOpYEzIZMsvyfmbj8aMTWMz/pABC3htX00th1EUUEXGMAwMCH2ETIqfNXwb1FArbpCdfG++mlgFG3VLE1+oqAAeRXbWDNyYSJUFYknKtwW95EJ7AlcaNQR1WmhXSs5gmGEUn8Ao4uRPQfC7iKhCYfpnRl76sT5nDMMUSwbHWH6lqge0Lzf0x8hNf+YohmOHd38OxYJDHK0ENSOK4Zcb+mPkwinvE9QpKthw3S2JanrGVlOzguvHLHfcvppPDXJBHTv6dknQSGZpx6q/eMQNSlEjW3SZf8rXhEvNYLkrmaXUcRdhPHYMfdjAqzqIoKD0SGiha89ySWi9HCc7GHXHOx/s/mUW3jLWZcWrR7Y70o5kaI/cMGLKFcraI3oeFOUVJkalxWGGc9fnHYzHfrdHwjCMj/KGxchhTOedCI59irH8mtqOQaWpCNP2S5I9x7fwfti65qCzd3CuHx/slOQiaaW+IaU8XVu8U44YBJJMTe1dW7mMyaBeLDpc8MDamhN5dFhzkO1/zxY5Phi6bV8pOyiWnj0uQO0r7Zq0MPT1YWyGmhWttclE+dtD1mEMD6ytHHZ+cDF54/ujnQvIgbG2mp97iMjj/U+BUH3toJ+TLVyjudwsxeIYeMeSp7vvKEtbR1ExtKaUemq2iJZksA5KxTuKoXl8UK7D0MwN3Tvz5LXSmrIrsBk6x4JVQ/cbKeY1oqrSafdFL2jDFSsMbXxplQxlcSX6CipZtGN4cFCupdFMsn/mCdQW85tT3cCsFICuGr23Rc4QqFany0U87MzQPmAo79s9YLh/sMpwd2YtquFvFeNhFIt3brCiVOQUMkbVGa6zXxDQEhx+FsNlXX1YjjglDAXYHH+cPAcwVP7eboqnQPNM0ycx9BqS+bLgP8Qk6mGN1j4Sjy1d152Qo0SyaAovPodhkUqsxQffiFBLJ06ToGIRx/sW14XUurAN/ve5DB9t2yaHmmb/4DGMxumYONDAH2IOCmp4QpYDnzjzJFlh0WdtGHI6hjqTocBLWMk+w4ODxyPYMt+E8klQ05rWuL6qKDBsnMKmDebkpKCeybCCHcODg0eXSJoJamsf5FPg1C2353XpU9NH5xD+3VSofUpQb8/QaF+gmGVg1qTjbozqGI5V6IHF9g0m84Sg3l5Ku6RDQywzQLtfX4bqFx7jpjFpVS+oN9c0nSaYzCnzx/E7Z/UzimVaTTSvG6sV1FtbC9acnhD/e8BfMc4HC//UyUNWTpQ3C0SdoN6YIWuu03v+OXgpx1gWTZl1S6cTT1UfrZ22xGNy7IfflqGRNufQHp7u7t/y18ESXGuw+3URRmAwcAu6JB5XR+nvBob46ii2OI8ha15C9df93d3dq3pt+oa7zu1+DUWf4AqOdq11PAl1mqFY0KI45GKGzRm0H0jw7umH/GPMIIw6vVzajKPhYfhcC3E4S1PPUH6SKItDLmWYhzun8DJAhoPf8o+NYYA6RbvvXleiUWSQGhkWM0Q5VMLifIYtT82fpzvFUA6bJCaSIWVk0/i2VhykUuoZ8qonGaqM1vkMm1eR5ARBTB+KW1vNCXPmqysr3sP9lJ8SyJVkuCoZVgPWItkjz4wPGMq3xPUMT5jvAq93+wwT1yHU7/SsteGAIq66s+VLG1/mhw2H5igTdnimEgADjxvlWw4P5p/QaOvDX4OC4d39Mx6x/KVckIHJ5bp3JN17jLRnNXuB1zgYD08lwbvBHzxiWoEA5xYjwVqjsPC7S6/VloDrA6wxUS9+7oawNIli5CzeDUZpRUWVa63DVD+jrHH9CTNSy6b7Ea9VgndP6qHf6M56hVXglbW1li+LSHFYzioPb0kx9oDmqrzfewQLk0jZWPU4qMzsW1NKnCVYktVxAqoJt5/6bgyaftztY/CiGGL/G8nQqS5nnIGSJdSWS0XEc1eKwfK2BBsVqXRH98dQGn0MdHE1Rt4BYQfLWj0qP+Dh9eGh46qi2W31aZMi/XFIsDCJY5KttrarzabHWjNWXQQenp6efv/+0YWhuOmj2KhIXwYnGJo+J7adarFZGaYYzCP4ckRF9//AeweD+7/e6j96/0u5pcloUqR/no4IFka/bHVkbXK1Ao4cJnAYUQyf8+F/+tmBYqf50wvRpEhrCd497WsQq1gbNbXBuzJYBiOJ4/pcvHnws0P6p8sc+IVoUqSvdQTvnvbHpFz9NTXg29qW02l/lV/P4P5Xu8bpUMdwGRoUadUd3cNreQo+d7RIf1guZduIFwyrX8/T73aKHWpRLsJpRRr+rpVRfBDl/xNpF7CapRg2EQ9twy68uD0tPPjVyvBG9UQNivTUCBYMZxRsO/Uike7mebGAmybxMcO7+/Zn8TY1YacVqTi2hKXMqQKgRZ7CWFRnsgOfOVJ3/diXgEEHjXqLur7TivTt58khLFzT8sY2yDAfOS3OfKl5DtzZTho16f9RPKlIRQPBwjUtIVfBWBvZFsdLhZBDe+QrDF5bKfZfAn4yjX8QMZ1mmNeghRgUZx7WyxmEzmoZdhHUvsv4DfeUDj8UsYNb/aVSGZYkRXIfBukKiGbzQo4af6+DoIp+vTdyKtVwGDEdQrmmG0J8G1M+Rh4ihmLKyuX9NQy7CGqva0qNU4H4UcRUzzCVsS58SKRaHILF37VoeK41Ngc6qgZhnw4qP2EpaiKmWoaSFeYrYpRSXFNP0tJ/eDjhLrQGU306qCfS1T8an8EDhjCQiqHpGzp/F2V28RTD+7/aKPbnoNJ6f61VRKsMzTHnYzGF59CcEo4VyEUa/BTDu/vWUezLQWX1HfbaRfQOzYWsibWwKBriQQPGMJSxLxpE76OR4d2gnWIvo3hiPrSDiMqBQHNhPtqUDoOhF8XVz1LOzWmGHQS1lwzqifnQP90YyiDYJHv9jzRZ5VEYoAaGHQS1j7RN/XxofVB/kqG92k2SBphHhOcwbyHSxLBdUHvIoNbPh/7dkWDOcMMIwdWvCNOXxYjukvlmK8N2Qb06kqqfD+06gmWqJksNAxufmjhrpyriAo+0PYeSYtsoXhtJ1U0Y/ehOsExGxR5bewbxMm1WVMQlqptGC8NbC2pd0PRj0E3J7DHUMl8TC7D1Gi9KoWLV/7eN4W0FtS5o6mLoaxiubEoMPnG1rFgrlHd/amV4S0Gtq33qZOiPGAbW1jBUs6DY8dUnqSadHRjeTlDrbH1HQ3/AMDAcB8y9apw5MugwwY6OqoCzA8ObCapzZOvfzhPRkqHlV3pkmyOHcc6KWe8uDG8kqMdr695+dleiewyLfpVCNVSPx56XxS2xxT5uIajHtcmNSadGhuXwPdr5R8WxGZsdLH6J1pmpswXVOSwmFG+NSacmhmERDMZEl7XHcu6J5NOjXf2/tvTUmYJ6JKLh73MfwR1Dc4rBIOajmI7xIfE8WdTT0VrkaE1PndVs6UhE/2lOqp2Eip42EAzioHEdxtDdzqpZkc4M7wavby0cuzfMOhTR5z9PlxHcZTFwntRNDaaJ1b6r250hfF9tM1Ndm54diuiPS57AA4YSMfilpj/dO3YOw7vB73+aKXZrXHcgouL3hfSOGZqbWBNz6Y6WTdDaUq4HFJ/+tJSmdGg+uC+ib7/uLx3AkmFZthdjq74VXeU5cJXDq8sIN3F8bTGNbQ0ky2Z6Ej/+XMNvl/POdanUMJaNmbZSl57LEPC7WeGIpGmtNIsqqUOQz6v4FQwxtSYTF/osltswuYuKQ3g+w/bp/iw9NY6VFo/P18lnlSF+WZi4cFPsLWAdtKs9nyF87sv+A34EXJFUo3PIrqj++eH+QgNRRT73hNGTNBGyy5lFF8U3LR+Iiyzt4Oml5XEE79d3qpslGIZaTCfxz8uvai3s5QzV/KGYLR2nyERpyUyJaDLMd3u7yFkCjve/2qYZBRjhCW54Ydt8WXk0/vd6PxgMngr8/AU/LmOpGIqN7WwnDufVhd/mruHSZQzx4+//tBfDmSo7a+35UQ8P9/d/Hgr8eIMf58dN8hbkHNmMuBbO/JJKMYAY8TJReTFDFK+X1mm4ejwfmtXzY1+ErMUI9DxXMC77RccRZXZZT3O6WqULx8H961/PvTS9P8/3UJD1NLtG2K6nnAnwHpmb0ILh20XyUcHT/cvDQ+cq3NO4QKsrhqV1cOcqceHL4hVvnn/zz1eIaQ7QGr9eulWoHuHH75ccP8+/sKxrKzamA3EtaxNt4lFdp2ouqqki5wySoBzvUWIlOnETz29/XsEqFjj/onltosu8JDbjxCu6mu+2ZJqek8jods174Pl0X+rJ01m6Hw8v99f6NEWy1Gdchr/VJfy4hi4O/C5TFxddOsf/nTKZv1/uenBp7otJi0xWQR22jwjjgMvw4hIl1g31PvrbX2jxe/h45ZQmH0ntuq5A7oOjpk4vcU3bcSLOutS410Ax/FD7nR32dXJ16RmrEPHCJFATBoPX2lj5x8ulDlrNNVRSxYwjj/P9raOsKaHpNtp1ZrjeXhxc++lXna8j3l57o3e3V9b0vjV08Ox3q4I2OOu93e35VV8nfvGVweesGz9Qnr1e56l8CkIrscH67apW5EKSmO5Wa/7VnzYFN6425hC/X/ocP8R9/skzN6Vkf+8veXwIBIWZL0jo68uFuLFWf2I43/fDrkrSraljsNF2cTSNZY7Yvwnafbk9gOhHm6KDWkPv6nRTPVRbBbkEOzr+VuORoacjx3Z8lfi63uiD13UiyLg+3VR/QZW6DUGRGux4s1DT0W3u7HotXmv0QXm+1CeL+0g31aKSz1+kDjyHB10bp48rq1qXe5VJvD+hPG8ln4gyByUHslxpuDt0uK9rw5qG1mu9vp2IJcD5vBG/4xrfUzvV7nBxpD/4u9a7foPIqHf1WcFr3UUbcXmkP7g/FlFwPm8lnvlF/5zN8BqTeBDgQ9Den/N5AvcXZE2uMRgqwC9wUbh+Hp5acu71g3hVzu1zsadIu+MGMdSt0L5Yoh79Rhi3xPmKVOGMqs6vxQWKtKD4H5HTSxSp2kX1dimpXqEUaXjWPjPWQoUY/wllM/gphzDenLEp4prmW1Nf4Z1+HvKVypHR2CC5AiwsKHYavW4e6nOQrzYXlMYqHdMGc0RYsdMoCPdtUqd9QoX25ogvRLjosL+F3Iqz8k08fHc5fVKWYoW7MUcMY8KWx3FTVijlI/739x7EvDTBfDRcJahh9Ni8dQAtWhlY7kZN3HxvzyavxzY9fSJc2xVqg/ImeETqmMB1bKqKeS6aT/8slDX1Y49FI77SxLylRx/uZCaw/XplX/MbTLb1hTxowhWwIpINaBLiNxPUYk+fJ3NS3fHzuZc54Vsgt/Uhtkj90Cy4bcLbN9MZ+wz47e3a2tzG4AuRr6GPuCMnQ8PEM5p79OU47m16yaqAT0DeO1jkNRbWR/i+YGdthRyWDfa/5aP4lM+IzPJdRyzc5DHpRi1TKfEIixekQj3ZtegLMShKPovtVCzCu7a1XFO6xo1MPWOWsnxB4LejuGt+NOP5HMX2ZDeNQ5ijkRnoJjYgLDcmO92a6WsweNktZM715/7uP82IY82llublDQhzit9qFO/z9GG2mGm+8jSla9oZsnAqMjbamBcFjP98p0F8+lvd1Nghtm/OOcMev8eL+xoZRqYWE0dLN6X6/UaJqTyg0MaEJlvwRmXvMu+MGB8blTgrYMiyavbj21AsCK4dmmgrPnLD2GyfazpABm8O+EEDh87L/m+LQkQtaie4RZUBQcIZT2CBMeH8qIHDtxjFYgRxLbOryQ2dGXObg8J6iv5R5dt3oDgoRZQyx+AzzhMRRtQ/b0fnEtVS9zzkv+00YDvBYi3Z2DFG4WzC8ibvR2PRjZ+16+w39vJ46uHlK4ex7FQJwolLs+NRS8fvZpgbXqzZyRyd5VtmfaWPWvqiqEVjLUsDsTleQHwGgoJgmLLJlhTbnn0ZxdIXVVp07LBE9hO4gmJBcIGBybjYk+7CNchXo1yyGqyI1KKyyFmMumwF1YJILq8xHwvzeNk68iuxW3a8tpOUsRmXS2DSRXD1Rg9hlCf5E7LQij2heqvr7Yqncum4RfVHETHZUjaMyPJqgmojcmTq2ot4mVcXP39yMrxSwWIR1J8LBgzV43MtQDi38kXEaLjiTjFp89cnSurgtbKKAZv7gf6M7HkY8RPbkp6FeLbECDOMGEsDCk7EsKhM/SzrP7j/u7gX2XE1Y3L5d8Qd1r6hXicEHslwi+dtQqV40KJPzudY/90CVXPkuRjGU53jEv5eRFQhGUKgSdNE14nAwSwdgfBWpZQ7VBcZg46Rxm/D333d18KeRlAiW8wESIeNOX8tnTC/cJWu6Q7QCWURdRgN1xmRu7AL4ocjNumRnwIG1C7HtclxBEJSuKyXd3hoR3URytrRPQGPoMHomlGQ2GVfIlogc3iCttGZaO9Lxkm5s+vzjcoqDxahgAo1UiE3juPYW7GPHZ2OGAYoovMo9pn77pLK7ry/f/Vfe1hZhKJU6MLQ4boGz7SIsMb9Zy5FHrCY4Zjxd23npiKeH/otbx48VUw8qFDU3gFuMCrePdCiVuMWQldQzO2Pr9ug0ITqYFeixyUUuAilIp/wBMpOdVQnxkgkxMm03iU0R5ZymoJvEy3tYSC3+xSbYWXbqF6WwQyeKov4YtmlxDVk+wyfCI8kYkTPyYueiXCxeV85k/jdZ1xu8w0h9r/VEx5e7q9zAnARyk5/miMHu5TgtqCGl609ARHTu3l9ONgAYYo5T+UO7eC7iVGeJqmc8PyXXMp70egdrnSHz8c96UgaEN3g3AWpGdfuGN4r4uWkuH485DPZ9Dx93HW4kP8BcX06bywHcP5htwKhsigRc8wJ274bhu5pyc0J5tsNaHL23NhqDraTnrCjrT+xEcRTV4mFM38+PFRXmMquv3LfWxm1bRMHtWjLhqR9A2JQNpEMLScVkXckPs/PKLGykL1u7Xl+GJe0vz0/763RwMa/jvu+LSZ3nSUE9aBFP5JP4oaQwVTqUJ2a4Aug8Zgw77FoN7mHf1QLgacD/JJH69buJR5ZbpfMIUXWxHWsojXn52Htgy4NrYi5YeyhAxBu2WRLCXlcndip9uEAp+t6hywLtGDjJna+mQ7OY4+n/558w00gTPk8uiBIEagA18X5cGG+c4PsWt+cC9UCKGNy30L4/KHaEClY4uRu3352RwBDQUFcKTyUeDdDI3UnzODnqoQYF2BTtYXIopBHEThg6LH5w1m7MvYLlyQuaDwlrprae9Cc6HJdv8g3u29GIAtaIiqnOOX5M1tulQrmfr6lBm6X5t/GC+2EdLPaUkwsuFLvKQEDJwsZxo/Elc0LZ6dvUMx0B/fQFhC4FEpKOPm2Gw484xtK9wu0Ph9JiqIVps6Op2IohrqxXRGGg+MvVmobO9C1eNOUPso/U0pAqh1nLAc/VM+25kMgCsj4TUKkC5BoWl7Vqeo9wAGAGBw3fzTchEcry1qN4IU6gU6nBFw9tWuPOeHo3K5sT/gsW7n0UZaLjAldmThF+4XCeQTLQ2VgyXoPy1msfVCAhu6EebGKCCayYQOcAIOYebHqa2jl9SEbIw04+EU033Vy7DiTrWNcubF2z5CKPuPY+g1YJb425guDwpFUBkAxhHigIlV/I8vPzXzR7igmVBCj0r05A19it+z6+8DcoNITrgMR1pr4IfFjT6dTLP4UhK3ZsGBIitY/OUOTkNjb25EitDqXN30m1HJpk1LNshkNUhLEcOtg6IYJvBCPbL3KGeb2rWjKBWMIrt8N49p+YT5OsZ/mCovGyr1C8MXKma35HkPlrICu4j4cXJz4wG8HbBJu+SNTo565x9AcMWbsMQTjvrXkrMFYs6bfxTZ0gtzo+2MMEmtjj82ZQDnEncsOGGKDQ9eVXXZF/Wbv3x2xbKRC6FwyRB99n6FsUknT/8wTWAtVSm1O0bjFU2no9wQysE5EW/8xKDUbmjIV/7kC+f/wa6toL6SFIgAAAABJRU5ErkJggg==;" vertex="1" parent="1">
          <mxGeometry x="118" y="-138" width="134" height="134" as="geometry" />
        </mxCell>
        <mxCell id="HSzltY3X0y76gQs0_PpO-73" value="&lt;div&gt;&lt;b style=&quot;&quot;&gt;&lt;font style=&quot;font-size: 20px;&quot;&gt;Telematics API Endpoint&lt;/font&gt;&lt;/b&gt;&lt;/div&gt;" style="text;html=1;align=center;verticalAlign=middle;resizable=0;points=[];autosize=1;strokeColor=none;fillColor=none;" vertex="1" parent="1">
          <mxGeometry x="445" y="-471" width="250" height="36" as="geometry" />
        </mxCell>
        <mxCell id="HSzltY3X0y76gQs0_PpO-74" value="&lt;span style=&quot;font-size: 16px;&quot;&gt;POST /telemetry&lt;/span&gt;&lt;div&gt;&lt;span style=&quot;font-size: 16px;&quot;&gt;POST /status&lt;/span&gt;&lt;/div&gt;&lt;div&gt;&lt;span style=&quot;font-size: 16px;&quot;&gt;POST /location&lt;/span&gt;&lt;/div&gt;&lt;div&gt;&lt;span style=&quot;font-size: 16px;&quot;&gt;POST /trips&lt;/span&gt;&lt;/div&gt;" style="text;html=1;align=center;verticalAlign=middle;resizable=0;points=[];autosize=1;strokeColor=none;fillColor=none;" vertex="1" parent="1">
          <mxGeometry x="501" y="-426" width="136" height="89" as="geometry" />
        </mxCell>
        <mxCell id="HSzltY3X0y76gQs0_PpO-81" value="&lt;div&gt;&lt;span style=&quot;font-size: 16px;&quot;&gt;GET /user/{id}/info&lt;/span&gt;&lt;/div&gt;&lt;div&gt;&lt;span style=&quot;font-size: 16px;&quot;&gt;&amp;nbsp;GET /user/&lt;/span&gt;&lt;span style=&quot;background-color: transparent; font-size: 16px;&quot;&gt;{id}/&lt;/span&gt;&lt;span style=&quot;font-size: 16px; background-color: transparent; color: light-dark(rgb(0, 0, 0), rgb(255, 255, 255));&quot;&gt;premium&lt;/span&gt;&lt;/div&gt;&lt;div&gt;&lt;span style=&quot;font-size: 16px;&quot;&gt;GET /user/&lt;/span&gt;&lt;span style=&quot;background-color: transparent; font-size: 16px;&quot;&gt;{id}/&lt;/span&gt;&lt;span style=&quot;font-size: 16px; background-color: transparent; color: light-dark(rgb(0, 0, 0), rgb(255, 255, 255));&quot;&gt;incidents&lt;/span&gt;&lt;/div&gt;&lt;div&gt;&lt;span style=&quot;font-size: 16px;&quot;&gt;GET /user/&lt;/span&gt;&lt;span style=&quot;background-color: transparent; font-size: 16px;&quot;&gt;{id}/&lt;/span&gt;&lt;span style=&quot;font-size: 16px; background-color: transparent; color: light-dark(rgb(0, 0, 0), rgb(255, 255, 255));&quot;&gt;badges&lt;/span&gt;&lt;/div&gt;&lt;div&gt;&lt;span style=&quot;font-size: 16px;&quot;&gt;&lt;br&gt;&lt;/span&gt;&lt;/div&gt;" style="text;html=1;align=center;verticalAlign=middle;resizable=0;points=[];autosize=1;strokeColor=none;fillColor=none;" vertex="1" parent="1">
          <mxGeometry x="760" y="1184" width="189" height="108" as="geometry" />
        </mxCell>
        <mxCell id="HSzltY3X0y76gQs0_PpO-112" style="edgeStyle=orthogonalEdgeStyle;rounded=0;orthogonalLoop=1;jettySize=auto;html=1;entryX=0;entryY=0.5;entryDx=0;entryDy=0;" edge="1" parent="1" source="HSzltY3X0y76gQs0_PpO-82" target="HSzltY3X0y76gQs0_PpO-84">
          <mxGeometry relative="1" as="geometry">
            <Array as="points">
              <mxPoint x="2760" y="-339" />
            </Array>
          </mxGeometry>
        </mxCell>
        <mxCell id="HSzltY3X0y76gQs0_PpO-82" value="" style="shape=image;verticalLabelPosition=bottom;labelBackgroundColor=default;verticalAlign=top;aspect=fixed;imageAspect=0;image=data:image/png,iVBORw0KGgoAAAANSUhEUgAAASIAAACuCAMAAAClZfCTAAAAz1BMVEX///+hZv+dX//Rtf8jLz6eYf+gZP+/mf+ZVv+fY/8AACAeKzsYJjedXv8gLDzz8/S6kP8OIDL59v+coKaob/8ADyfKqv9DS1YAFCqBhYv8+v/17v9sdH3W19kAGS0wPErn5+hTWmO/wcTu5P/l1f/dyP9XYGqufP8AAACzhP/17f/VvP+ocf8IHC/n2f/Eof+vs7jaxf9ianS7kv+1if/h0P+XUf+seP/Cnv/f4eOJjpWjp62Wm6EAABw5RFHKzM8AABSCh47Lrv/q3/9xeYIzevFKAAAOzklEQVR4nO2cC3uiOhPHQQFFAhQvxbuora4XWqV2Wy+r69bv/5nemSQoal23fdzteSX/85xVIITkx2QmGbCSJCQkJCQkJCQkJCQkJCQkJPRRVcbJC2tc+eo+XVZ3eTNxYZn5u6/u1SXVl3X54tLl/lf364IamJcnJMvm4Kv7dUElE38DUSL51f26oASisxKIzkogOiuB6KwEorMSiM5KIDqrc4g0M51O703AddhhagLRlkd+LEntnrrbo/bakjTO/37ZEh9EWnryhoWySZMj0c1kFve8TdK/M6TYIEoM78Ni/QmOLc2cbNen98PfnRkPRLr61N6Vyw50VdUH2d2e9pN6crTFA1Hi5ZkWyA44qf7TEzOh9hMn9fxy8uQYINK1FEsdgqtW8+Myfi2zf8d5lbpsUCWlvW9I149IM4cP7PBzQsfNm+2Qa9+gU9L1X8yQHobvxv+rR6TJt6HPuWWHdXnATGjAk5Sa2mUQs7fyO4yuHZE23KWeb2FGpOmarCV6uNlLbHno2i2lJt0NjxldOyJzTI88YzcBkZafdAHCd9z3PUpSHTKHPj7O7V45Ik3GUVa+Td9KFJF5J2UnupzG0mlqP6bJjElPUEPKHg+1a0eUB0RZM5FgiLQufNyZO0SJyeA5mTep0mksm48lor4pqxzRi7SHSO+hkb0NmJLxRVQ5iUh+OKxCINpHpOXbh1UIRIdWdPQwOqaI0Bc9wuEn/X1fdJdieoqlL9JpREvrWv6uMobNQytSu8nxrcqV7iOio4XadSPiE8KHLiy+sO8mTqujiGA6pG6zkCYudp+H6kElV43I7L6xA9mUqWuamr7FDMgeor3ilOdb92CCfc2I9NfdoeehKb+yFNH4FCKdp0Ve98fa9SLS0mx59saiVv+RLcKkfpcvQL7Lh1JfmNWN93LZV4tI591NmuZrJAPbv8WnRBRR6jgXq5sMx9uLHgNEJh005VddAyfNXZJUHrM8PkUk3b2o4KH2GGn6K82KtM3rR6RPcEcbXC9A0M1f2PHyc5hWNPmgG7zk8weZRrNL2U7060d0A9tvsg4zo6EMhoTdHCTCfmt53u1sJTs4SH/oMtrcTUwQjU3dTLWzD7rMkiE8Matqsmb2nsOzDt+QpFm4uCC6T0/oUj6l8zUaPdJ77aqY1A+frJUPor+JzyTjguiZ5fHBsewQqU+wrn3EsKbq/PlsnBExZWF3BBHlcteD0aV36WwgHGgaj27xQ3TXg70mrvRvcUao/qJ7s49oR49lnHdTMpopv8hmHBE99GBMaSZ9PF1OYtA3U2wmiTalmoCFEcqj+06asUNUecSniSp/tghz66SmamqXLkkqaTa69jhM1JghekskML7fRH4MlE3mdd18wq97XjrNyjzkE/FChM8NNfmZmdADB/WQ19ijxn1EfAbQT8npOCG6B0QqW++3e2k5ySD19HeSITTkUd114zR1vIN5NM3gl5N5VdbUPH1x711EsvxYqTCEZfyICyLpOa9iYv9hYmq6CZC+I68TiBJ6Xv5VDquKASJZpSbRn6j6sKfpsNwYvEKwwvVIT9eOfRFK09ThPYNUiSSwrxfRhDLKvqaBj0lnPTc6Q2TqtNNHiDBTmaKIKpM4IJJVjT2NvpfNF9bJsUkRTR7Z3PEYkS6zVduDHn0Kcr2IINyzvt3d8peHuRWFrxKnw2LbE/jrWsn9DNIVI4JJYyqStb7rqnI6+oCaIlJVOXxTXU5QG8qmDvKQ14wIetcL32uAKaEOUT98rob/fAcnpT62+89hLt9E+2r3jiq5akSyOqQ0sre6qiXyPKaXByp+jO/v72nqsfLCsyDg4LNHD2OvHRF97UEavJhgQfxJo/Tc1dP757F0JEMUu9ce2MszaR2mknyMtVMJPnU8Oi/GiPomf2aEr+jLaDEUUblc5pNp/kQoxojwFSyaaywnhwldCxHdpFJPKXTnSV44xoi4FWUH+YSuvnTDB9bfdRX+671uHbTZjy2iSlrVtMnjxNRVM9mvDPbeDMGnakxqOr5WhLl8mALB/480hT3U3lnpw0FaNHaIZJ0nXLuqqvbY3BooHCHa/lKmcvyDq6tHNOHz6/ENSz/iDxgP80WaOQwPTuKHSNZZqhHGF/0X0/symzpuf46uyreV3cH4IQITedm+4VC+h3k27KDrVfyODNNP4U/6XuL5kz2EEL7ESF+dTQz5jxil7K9hQjN7/Ml+u6fH9YeffCgxLNlfiVTkRw2wGuG8srfy0fo1VoggYoVPZPma440v2cK1v6y+N8bihAggJSZv24LZV02LvCT6NkmcBBQjRNQvs3RINolv7KsqD3X9p/T7Tih+iPCPYmBvn/nvhrUEfZkv+bs/hhE7RPgS0TC/zVXLupkfyuf+Nk/MEO1eRXt/UyD6nAQigUgg2pNAdFYC0VkJRGclEJ1V8u/8SfBrQtT+3Wr0s9ISR38S4v9ZAzOhXliJq/q78qC3x9SF9fh2/qpCQkJCQkJCQkJCQkJCQkJCQkJCQkJCQkJCQkJCQkJCQn9fNuov1u82m8HFK53m5vPc9OLVvqvV2m00Gu5m/vHrraCZc2+7OYJGt94p9sMg7ufbd0LrguMUZhev9h3Za+IYlmUZpLD48MmLjOMXc+FWy/GdQumdYhnFuDgie2koUO3fNP5Q67qiOPVise4XP35Lco6iWI2wmVWiKORfIWoVFWBUXF263mPVDEshs1Wttppv5h8+GxEpPre+WkH5h4iqxOhA0zeXrvdYI0choSv9uNFSRKG1b8g/ROQ1LL9VJVbDY9tBNfDseTOTKVRtaVUlmR/LEe63W6VGAfY26dYoqIai7qFWUjKZTHPEOrCoBiM418hklKi15HyF7Pkgb1TF0+oBN2F7BpuNkV2tBsyd10pOJlNkh+lAUxxa4Qq+hYimowArcXglISJs4Qb71GoWoR0zj3duKtVmy4/FvBHQmY6g8Tw8/CR+0PQJNMGpbgwH/ZSDh+YFQohhKMRHJosi4fKr2IyGA04YSnYoo6rvdEoKO3cUuZQDzqQWuXa1iFWCCRv04na1bikGcQJCMrTYCOqAEkRpMUSWaxgNPLAhlts0GKKAVWIRZRVB1FIIqQNOe+MQrMNZerRzxdyo4ZDGhxDhOLOnDSscaRm4O0XiKugO/WLDhXtHAhsDir/sdFyiGNjL2c8CqAggCRhbq24ojtL04V/KCHypUS8ul85+HEBfZNWDlhfu6GSI2+ksiUJoqY2vWKTZUXxwjYioVbdIY7NpGIbvUUR+y1Cw39MCfAQckVvAShpw85o7RFOFlZTWvuU0S4FhOQE9aDUQ2YcQeY7iQHQJiGXYHJHVGHn2NICGBzXbbkF38Q60YCdoRqChcHM8FJC10PqaBCrx7BrERjJiiMgGzh0ZkRjEGABT4pa4KeVaWKcHlyrCFaZgJsoKtuF0RGQ3DQp4qlj+nCIqeiW8odLMMVyvwxHlVrSSjqEU7BCR3SFsGNaA6wJ2zwm9sxkcq26z0/kIormvFODchaPURxyRQe8GtMjBIeW5xtZP4TXBDrYzNugLDrsVDI8lbsNNJh22v4Db0Mk9RPasgCMYxtI66q5hmBc85s03/NKICByOQcfOhuB+2Fvw4PKkhTY/skNEYUecCCK4Fw46AIBpKdQSlgbeS7j/y+hI/yN1CK3DK4bBJooIfavX3CKy4XbVGjtEJeCaY10kdJ4zXVqWwxFhc6Ebe4ig29UGuijFD/hurLPFEOFtolUvGKKRby1X3tTzAFHAEYG5G+6aUEPZIYJKKGeGyHIBFxu6Ehhi4E2nXs2lzf5MuIMekyqOGRgyzJOeRDRdNF23U1WUEBGWqPIu+SzquYaS+S0iuOJ8CZ5L8WlkqpWaSzcIDIoIAnlxGkGE/rmOLo9AG0NEq7oCMaM4iiBalZqNZrAbaAqdHLCQCA0yqNc0LP+TiOhkw8KoovB4egpRy3AINBhiDkc0KgIh2v9ZePv/BBGoBcWozebqhBQLBfBQIaJaBNGaKKHQSBkiOq02mvYO0YJVAh2JIAL7Cxu01epziKAKiwVvhaM5gchuGNZytFrNQysCT8GNGW2c4cUW/TiPCCYaCgZviHDEba1WwIIPND860OYw0Fo1Jm+LqFV3SHEubRGtwMaaUEmJ7AYaVGA0woHW4VXU7E8hgnm8tawGqIaiZKanEcEyhQ6mKfdFNR9a5rFaQi+Nvpz67XOIMEq6zJey4L511wG/NCKCUiSylueIpMV6PZN2iNYO8xA7XwRVV6GqJpt+WCRy4U8gmtGwRTM4EHlpBDuBKPSl3F1jnFPC2ADYFAc3SoTOIE4hqoWTaIyEC9r+5VTaRjQPiBkL8N5NgyJCP9k8RsQVIgoilWwReTB/Q/8lzevc630WEQRlpc4zN3AJHOKnEK0KOE2ajuDaiAg+rGYVVyEBFJqBD23MRlX8mJ5GNMoU3GAzgzkfK4cLkvW0lgPCtPPoGB1wrYRPHddwXFm3WvOSOz+JCO4dmUElMOHZIaJTR3+GaQy4G+681Vps3NpnEK3I7hQbnKa1Ou2L6Lx66RDmizCBYm0XIHYA6w/HJ+F64xQixzLwFFhx0HI16AdZNuoKR4SLBUKcpWsxRJ4L1ZJ63SeF0UlEK4tWUtxHhKNUIXO6EIFW1euOgzfl44g2Pws/t4mbTqbwcy1J3woZWssCjlFEy0wG5/+1RpE4BbflZr4BIitT4PqBMxx7TaARPhymVQU/Ct8oIheWl5GB1oSmAgOfL0zBbfvEzwSrTOEb6/yo1Alm3tzhoc0uYbVQHuMTNOhbFJGb+bFh4GklrQy7JrSfLi9yP2HRDc1ZBQUf6qjXMfqGB/9ce2lknlQO99nRL/RztJ61bIlt2RHRs73RfDZf2Qf1HuSpba8132xmu6ysN1/napIUKYXf0O9xPwfVLuajqX1c1257ulfJ3rXpt9o8t5izheFfzpv/M+HajK7LhY6Uy01hOeLBNMlZf3Vb/qPaFJxls9kA/5rxvrot/1HNisRA1d1/kEj//5S9ChrEcdyc99Ut+W/L++oGCAkJCQkJCQkJCQkJCQkJCQkJCf2Z/gchophjVcTFXAAAAABJRU5ErkJggg==;" vertex="1" parent="1">
          <mxGeometry x="2615" y="-518" width="290" height="174" as="geometry" />
        </mxCell>
        <mxCell id="HSzltY3X0y76gQs0_PpO-83" value="&lt;span style=&quot;font-size: 24px;&quot;&gt;&lt;b&gt;XGBoost Evals&lt;/b&gt;&lt;/span&gt;" style="text;html=1;align=center;verticalAlign=middle;resizable=0;points=[];autosize=1;strokeColor=none;fillColor=none;" vertex="1" parent="1">
          <mxGeometry x="2660" y="-251" width="190" height="41" as="geometry" />
        </mxCell>
        <mxCell id="HSzltY3X0y76gQs0_PpO-118" style="edgeStyle=orthogonalEdgeStyle;rounded=0;orthogonalLoop=1;jettySize=auto;html=1;entryX=0;entryY=0.5;entryDx=0;entryDy=0;" edge="1" parent="1" source="HSzltY3X0y76gQs0_PpO-84" target="HSzltY3X0y76gQs0_PpO-30">
          <mxGeometry relative="1" as="geometry">
            <Array as="points">
              <mxPoint x="3666" y="-339" />
            </Array>
          </mxGeometry>
        </mxCell>
        <mxCell id="HSzltY3X0y76gQs0_PpO-84" value="" style="shape=image;verticalLabelPosition=bottom;labelBackgroundColor=default;verticalAlign=top;aspect=fixed;imageAspect=0;image=https://www.unimedia.tech/wp-content/uploads/2023/11/AWS-Lambda-e1701195645609.png;" vertex="1" parent="1">
          <mxGeometry x="3149" y="-389" width="285.31" height="100" as="geometry" />
        </mxCell>
        <mxCell id="HSzltY3X0y76gQs0_PpO-85" value="&lt;div&gt;&lt;span style=&quot;font-size: 24px;&quot;&gt;&lt;b&gt;Pricing Engine&lt;/b&gt;&lt;/span&gt;&lt;/div&gt;" style="text;html=1;align=center;verticalAlign=middle;resizable=0;points=[];autosize=1;strokeColor=none;fillColor=none;" vertex="1" parent="1">
          <mxGeometry x="3199" y="-267" width="186" height="41" as="geometry" />
        </mxCell>
        <mxCell id="HSzltY3X0y76gQs0_PpO-120" style="edgeStyle=orthogonalEdgeStyle;rounded=0;orthogonalLoop=1;jettySize=auto;html=1;startArrow=classic;startFill=1;" edge="1" parent="1" source="HSzltY3X0y76gQs0_PpO-97">
          <mxGeometry relative="1" as="geometry">
            <mxPoint x="2985.363636363636" y="275.4954545454543" as="targetPoint" />
          </mxGeometry>
        </mxCell>
        <mxCell id="HSzltY3X0y76gQs0_PpO-97" value="" style="shape=image;verticalLabelPosition=bottom;labelBackgroundColor=default;verticalAlign=top;aspect=fixed;imageAspect=0;image=https://cdn.prod.website-files.com/627ca6f747706dac04ccaba1/63c14fc134c432153431a0aa_logo-aws-header.png;" vertex="1" parent="1">
          <mxGeometry x="3291" y="125.995454545455" width="266.07" height="299" as="geometry" />
        </mxCell>
        <mxCell id="HSzltY3X0y76gQs0_PpO-98" value="" style="shape=image;verticalLabelPosition=bottom;labelBackgroundColor=default;verticalAlign=top;aspect=fixed;imageAspect=0;image=data:image/png,iVBORw0KGgoAAAANSUhEUgAAAYQAAACCCAMAAABxTU9IAAAAYFBMVEX///8A2P8J2f4A1v8p3P5d4f7T9v/u/P9m4v7h+f/6/v/q+//k+f/1/f/Y9//H8/+K6P7O9f+y7/+78f9T4P6a6v+A5v+p7f/I8/+h7P6r7v+/8v9D3f9z5P+D5/6R6f4P91H4AAAS+UlEQVR4nO1dibaiuhIVggqIOIHKEY7//5dPSFXGyoA93PNs9lr3drcSwOykUmOyWsXh8MybvsmP5yKygUB1/l5nSZI2x8PcpgsU7K+MJRyMsfwR37I4JqLp62/tn3vHT8dZdCN25rWKa5iZLZO4hgtMXI2enHpzHRZLt4RqWP+FN/48HImunGjYeZtdKArGdstcmI+DItL1bmVXd6uiV69lTG379979Y4D9mD0vj0s76OP74mikzp7XSt4d6vrepvDv4199/0/Ak3cnExpR0So8sHVJtCkSZfYMJ/E5LC5s+zde/INQQr9py/CpUWiwlf9WUpC0GknAgkeMLSBwm7qN3YyPi7XsaKNLS7ka2GYBl0jsD77wJyKbei21v9gIE4D1e+XzQs6RwRZVd87p+c+98Adiyzvti/ruJmWS1P2FXcdS0iDgU2H9h173M8H7lFGr72q1F0uDGNpCK3KpQB1b5NFcDFOPNq6vv4w+z8XkcNnFFSdhMZtngC8JbrdblYoF4PUvXJKZkzUwO2j5toAGH7cnzxW57PgeCXn6rl+U1JnYcRK8xpWwCsSfXk936xdwCyxsYpbRg+bISBK/e/XCr/6NL/npeET1WKFxEPBJRPG6QAHXUPvQZVtJQUZrsxKVT+ldQIDbY2EBvhcSKfLSxYcXD25ahe3bRsyEIXQp9wgyf0BogYJIEqSNFg4WLCTMRRwJWvzTcrgaWEiYi6g1AX0X+Mfde/VCwlxwpT7zXrPBeYCaqj+SD37Zve+aBSq4HUZEEyR2yMF2VeBfffrnoqLORYRlhcN/tJPvwILPsFiMtbnYBWUHKKcQaYblwZcL8whPrgUaYBV1e4MwF6ODf2M+hSsVBtf6oBG+QEId5gRA/jBpouHMcC7Ox+n7/De/50ej18a5iS2xBqC94Lojjyf4Ig4LDPDwpssXgVEcVdWpgBjXWJ9CcUu6xRx0PgmOC4C+ZID729XPfJXZvPEuhQvVh3sD7x6F8uDo7SMsC6RRXLxvq6V0lvd4O5au28/NHdi6kyNK7JP2OuTr9bppXv/Lh+H6TDzWwi8E1rLUg1HtbT/VAiQGe3X4eg69o/pAG6BZc23PG01YXKdv3kr+8pIwEeHNMPg/Rq6szGV9Pq4TZpYpBJh4IcvbB+isfC1/q7OCJLxoSGeXNf4/oAMD99TlVpHIHLza9t/nCtblt8o4I0hIU3+qx4/A9nwZ4Xc2a6gZ9uHb/a8xwf98y4eKJNj31VhwG+s/BCc+EGeI5Htc5zNAJBu/QkL2POr4HsbMP8nCT1eTNtO7RjsNLnmoW7M+H67HZ9vdbrev139d+zxeh3WfBTjL2vnCm5NAL+r3nAkafnpO0xwSHjQD43BHS9kX1Uep0TsmCEvbmdE1Hwkvna1HFsLJBv8tokmovm0V9NWZad5e6j0q+94hV4j6tO3p67tJCCZYP0t++0lYrb6RhR9epBtJwqG3eyy7ftVgDEGWkTdPWHi50WTbHtq1TUPyjF8eQiQIFn74VIgi4UzZYWqceR0WRiOgPk3Ngqcq/IdYqRQkYYUS6WevChEkXHQXDUu4uaZM8XuEMBqB2q10JoC3qdFFExviHHBhEioGJPxoYyFIwkbbEeSlxFQ4fGWhCIzwsDwfzBkzIHuPQeMhrrw8TMLLvufXfMfc779CgIRSSaUb1Rc++nNdHkE9QkyFAdxIKO68JfdZPNbadIhYoiNIOAAJPzp66ifhoVKQi2WX60Ioj/ZC6wkDtCjk76G7ZPfa1gBNcIWOIKFEeeS8ojo9Lo/TDCNlX5wOh8OpmOGhLYv743E4uXQ0LwmDmlGq9rE6gGFeRO4exQ0KdMLm1lryUNSwoEMpgoQVKqlkl9VP8TiWfUf4bqpuLeuP0uEcocmV5yFVHqIpkMVmRH3mJDT1hkMZEXvpk2GGY17tvNq5Ku+IAFelXl1qZAJOSv1/YGWIIQH0I2qefmWqc2P8tU//6DYapKO/J+ASqXOzSaqMVhzl4gVABogLlEL8q/luB6V8sCdHbX3MJtdR3xq/nocPkql7b5pYE7jLkeP3acWQ0LhIuKSamw+6wZXBML5tYjdIX1LaQ1zVMOohIhgzEHdU5VItOqIn1Hb+1XjxQ7fAOJS9jZi5l4KygmREU/57RXPvghpDAjj5TDftviF/f5pkjqWtyOgGqackryUomF4G3zhAgsgipcPzfDyPghau0kZzq6k5RlY2dHCOPJMVzHJrAB8LMSTAzzSC4rUY1eItxb/JlIOOqd2eaJPClQrX6HJIlXwZHxN+Evb4ao6BAdH5G3apZivnOgdmP4NVUYCR4MgEFlsDeLo4goQKf6b26R279CV/n5f76X5+SsFBOV8G0eA1LPLr9zVXlwcy37mUU2dcxJumyRSq04mFQeNfDAj4QeAVZU4jjl+Q4kRQJ/tgcmDYcXc0Kwj+FIi8erfaFUFCl+gzfMIG9dakky9e3nCRsEf2WiydTzFPykcjmKG6KZMdLhoVHT6Da+nPZkLPP8saALcsQZ4wt50Je7dwp5EWTr/YHBjZLsAwtHWqF6iduV2gESRgR6gL7g46z8pSfiI55shGCgzRvBG02T9CeK2MRhcY+KomU1N2wj7IgeF5Uz4vKQ500V6ol3jqTcrUbqshTMIX9pJKJIxRIvhcJ/Qdi5EdRsxZ6Gp7Oj+RA3uSTEuFluxGGmvfmmiicVWGuVqU1tIkaA/Nlc996Y+wMjk95EEStigSVKrBv03edWcP0wmvPqVdY6h8GR8XONkoWTr+fG12kyTEOEUrpbPVz0kKEj0TdSfb+mtDoPDK1cshEkqx4ilUg2PVwX4NvWc9yiE24frEYBRnCJ3J06S6ukORAKZYwPsrKpW1n7OhJ4LR23IaBfKNvApUiIRCmmPaezvEBAeXI5b7sHblysLtdCPv4BBrgL1htFAk8KzFUOmM3EVE/bRzkqCOJFHvH0p12XmzkrwklEeh2quSBwSFu4rOll9e8FXHcJXjRIi8B0VCZMEAKi+aEXClCJguu1CXBcOO3nKIzLX2raqLmmyh9hC3jzy/jnvTPLVIOijNBomOTfenSGjsTiPfllo6BicJ2huh/hUMwA++AeFM/hrvngoOtEAHrLyeGRhiSceO6MBjQi8sLrhJCNIIBoH+qEgSoKInXJUQRYIXurTi0tqr+PG5EiuPuNGh3xAeHH00BEUC/+HB/dAyqne/nSRoch25Cga8eFvHxgwxJBjucK6fegXFJfHOlVJfTQgSwBiM36OAIqElxIyNE7kwm6dbSBJUySN01JDorb1lPOHU+CSrqSbegzO4uykhQjxVl6dT5lqWd3hfgoTLTGlEklCjd84LkTOkTYXKRYJGlRRagYQnrge7jAk/CaMX3lKzYZB6H8q71VIGLorPbpKRk7JPkABabnyuE2msQed61cedw1hz5ZyqGorClD8yffH7+KiFWVCQ5p0tD8Cp6hf4vEsMcVxb8QTu1iFIyCnTwQeShI4K1Bg4KpJGnTMOeaQJSDXxzqeFVGQdogRmZY+1WYAce4g2NU/oS/IhtbpVjycoc21DkcCthBmpTnSgP0JWuBx4K1thHKGOq9rZVgdupOd8DcpYO6PnjLTGHo7wGNHB2hCUht8YG8gyVILZeW+TAK8VX49KkwBigPIb4m+FoAC/TlXGCnIqqG0hKs3nklsV3uEkcopF0mJuqAiC+GHRJGgi60tEDrIbn5Zl3fWjOciets4Ll8ZXRThSXsDP6Q60Q0wAlw912BECSVONMPUR2rqEHnqhPFYjScIWHZiUOHiPBAxAJKmmMlVjvI3wEv0uEoRQcYQ3YY+iDsOb2ipmsaALdRHe7NzVuNIJ5dsfhvYddR6BdIhZE2BlkK1wclk5hiL6T4kjf4q6ChcJYmNTeiAehaBI7aH+uqmWV6odaaFEpUuCQMBe7HTus20dDjxYrymBtIHuLLdhiEboCqLyPBtiJjS0I9YNZwaeUCPZmpDJ/Kux1YXUpFolT01/GTySZ7wpOKrt29/kw30v7yBBRFRs5+suxk4wcUTmqC8be00AH2H8gZbuNEhcFyknJuytMElIOvlrdTg2r2XM3tsAkmUmzRT2/DKHzEmeC+M3eFyubHSgEZoXmyuvV0LG03r/ziahi6n5UOHJRd3LPE1zaomM9pUvDZKClgYJE0qf5rU8qCqU3+qMJ6ROgQRN5pzWsIfZQytphJ1wnxdNiE4INoQK/xxcY7kytoPQE4JbKZoA6llhQU3bScLJKZC+w15UE7XXyiZI2M+dbv7UeCV9haXSLoaM9gKfyS+IcRoaqfFbw0ulnlFLn5qnwR1ZG1wCCdSjOXtPHryuIMqV3ZOODzcCRSJ79RA7dgVu+dgXOlwb4eUAwJ3EGOmVlvVVK9aJsPrdJJRIgtV1iU/Ak3h4u5QiofOt5ASC5VIPVd2EWh2zXAq+DOtkENWUT4Ozqvar4qmrtb9aLnVBgWR6pIe5AvuNmYDyKPZI0YjCQT2T6MVDZ2a0Y2ghxLxdOFii90N/Rv7rhYMiG9f4vJjZQWJNcEx0igSslIsN68SU0Jbk+cvqQpWbI5wGd3NrTle7kvlFQWzpt4+EvUsgYcFCtH8NtSN6iJEkoKXiWMxrw5iOKyYvn3b5fd8exHjFtdlfcNTqq/Kquhx7866vhSd+bwVvyssNPRTGL8YOcp4yszXjbl61lrATVrJo1DE+DK0NSAhXXn5lFg2Mseb6dRo7LWZbhZ3UoqpDN/TEDhcvFWzOhmn+5K/eIZDEZgs02xsr5QrzSsnLCYt5pcxD4t32aWLk/9Xx61Q9UPuCTL6uBkM8vhkFoz5dp/QOI1L7ikVggxEc8qZAEl43Kqfsm1ktwNdB/ri1Y8g/8OGZKVtPPBChqmcQ74t0+Tn2eVGQNetpp532JrbaaY/XIW8swWMyMMzf/CuQBvl0CCSRJmwrAFCXZih6KFwsBWlHelEnyM1NrupDtlhuoj3CWEKCdu/BmWNnz5D4Xafe250rlBCcIozPaxGjYYOyjN2vCd2nQrj02rDevxQWKp7AgYUlYzUQ7MRSnNeMfAL6ffuXKCgPfXjHONQz47gIc/UHSahdAkkrWeuvz657DkouhRXDOOCNWH6ARWvLEy1Z5/SD5DLpgHeXkhdoLMKimgGuCi7R3N+THo7Uyjqr+1nSPA8lj5C+dfRmsD5hcAik1VbJnYD3Uf5tjwgZ3xy3Fc3X0/6j440fRIwZIQPTJszLt8aVwd0RuGY/ja3q0Q7ZzA05uaBK+qG78ydxUqOzoFWEK3VE11rfHB3lrS/hQfXAhWmswV/SgrYTACeiVHp6hCX0n/qFwVgE70hFxdpuLt11HBthLthY+tg9atUr7Nv3OYAwCUJJsWdataYKvVnvUFHkZm56X/pImPbZIh5BpPCsteu8hWorUTFApQKJkOhxkNs0r/Ph+oQpT2rae1+k2Q8IFfsk6Br1A0L3qr4NMfSSip7XsDLwpqG0879D2aVMewZraC1Q0pVYBYoWHp6BCz4kK4sFIv+OjqbbxKAExFxDh2Q27Wi1TCJSyS91oX5Oa8G0mIkJs91PcLcqpgzWSQ5nni1Jts9sepNkHe4KLsId3qwj2du4A6FD0PFFJt6h9tux31W76I33tlWxe2Mb9LFZ+Bm7oop6Ef854miSabeCz1zxBl6d9daO5f8qJk+oM2Mbi9HUDsdDdVwcc2H1lnr0r4IvCU4vBy4L0jzC46acHtbT++rRP4q9GdAx0RoLAJ7l4pb5FfNOlAUWiuCwhTAN+D8KQj4ZKEO8LjAAW7T4LsHS2lFFElv2+BQKb0nUAhsRp9DiWWujAwSLC72ladxv9dYxFv8m+F5Q/uwWsbVCiYqR30eaRVyzQEHUyeSYG49/BAyxfiFhHrjBHEqreGq+vJAdxklYjhyMBjdvg9Wh6hZswcy8hYSZiCRBbsQTTglbxNFcxImjlay3ishCSxW7YkEEeA1NOE1JpgP0wZkQ8IQsMBHpbdN24Q85JNxhogUk4oKRxgk8/v5dfEdzEXNwr6h2E+VWXmv4sHhR5yLs6BGb47EaYzze4jNvrG4BBd6pnm14ZB59JeWSrxT2FxKP/lUMfiN4K5eDSWTJzcudUXS6jnaBB19eCS52VGAoXsTEcJV3wgE9cbU5CyZA3hHpZNjJymdpU0teMlJL4uvGEmKeBR4ioPK45GqgcVQLVdU+F0bkF8fvQbBghc5se2m+OQ2DUjncxSpdheryRRrNAu4QonW0ekIacfKFdG2zpNNmwzfzL/QLaEBplOJxe2jnElKeuFo5LowN0k10pRhdEAGhALWH8TSaXk3Hdp54dVUvYuv2sdk8xGaGP/uk3h8JuV+8WZvAUrcvtNDLP7Wmf/HlPwZ69FL2a2AHG/JY50UYvYsr0ZssCWwpvBo1KKrhknH0Huy9Bvs4v8PZrEln6ZJ69y72SmU540dlR6I4pkzVWP/gS34+ysdx3WdZM7SHufGY3eXVNE37vF1img78D8R2vxZ4MEyLAAAAAElFTkSuQmCC;" vertex="1" parent="1">
          <mxGeometry x="2539.9972727272725" y="129" width="388" height="130" as="geometry" />
        </mxCell>
        <mxCell id="HSzltY3X0y76gQs0_PpO-99" value="" style="shape=image;verticalLabelPosition=bottom;labelBackgroundColor=default;verticalAlign=top;aspect=fixed;imageAspect=0;image=data:image/png,iVBORw0KGgoAAAANSUhEUgAAATAAAACmCAMAAABqbSMrAAAAgVBMVEX///8Ae9AAdc70+/4Aec8AgM8Afc77/v+Rw+gAf89In9sAfM4ZitUAgtAAd88Afc9hqt90tuPe7/nr9vzP5/ZsseIdj9WZy+vo9Pu+3/N8uuXX6/gNitM+mtnI5PWiz+2t1e+52vFTpt6Lweg+nNo2ldgAcc2v2PCAueWYxulkr+FbdwYKAAAKBUlEQVR4nO2bi3aiOhSG5ZJgCBEBQRQQBOlMff8HPDvh6rVibWdOZ39r1poWQoCffcuGzmYIgiAIgiAIgiAIgiAIgiAIgiAIgiAIgiAIgiAIgiAIgiAIgiAIgiAIgiA/kHz+Kt6tP30v34GVvemv4Y0Zf/pmvgPLNrXXYDooGAp2CQo2ERRsIijYRFCwiaBgE0HBJoKCTQQFmwgKNhEUbCIo2ERQsImgYBNBwSaCgk0EBZsICjYRFGwiKNhEvkQw64JPX+Yun1fzwn/8gM+e8ebEXyCYl0bn2J+yvmCeUk4Z5+RQPDbRNo0eF3cSXyCYlRFxjvaZy99HVBBKuUsE4Vn8yF2lhOc398ZV9cgkN6b+AgsrTcIALnXj8ifmiuevcFYwwTRnWVVeZApBogdszIruCVZyc/301XyFYJYfxJKMEZYb8EPgf0KvGERiVTN3RYmg3gMHLbU0ubmzZPTvEqzD4yL9fOYsOOH9/a1BMSd44Lb8O4NK/vcK9oj/fEBIx7IfqdA2n5zxSNn86YO/SzBjNXaReAVJwEgSSP5+vt2udyeHxkX1u9p0JrIk1B72+Yya1WggHNxNbCUysxibCvzXCJoZ/QSCgbHfbqsi7kYlNRP1LnkySny1Swb9z+TY79g4PLJmIaPvRigopAcW5X3hFHhyE3WjNmovKRk7dr6sVq12R5VSKLN36vc5o79kRuUkmS2jSNrhjpA6WEdUpiAnVBJ5DHKtEMytH/DsbxeMiO6qZCTadztqSivpa8SOOKOaRglZHNqjdykVsIlDBRGqDVtIkuEVz94LLqA045QwXsgNITOLSqZmLbFSpuLehgunhjPDfESwVGqYcVAM0ogrnqt0LgUzb3IyZrE42XLDwnrBjEi4YftzAncKfuRRWXbU8yL3HCb4stmXMka8vNg6LuFbpSCBzBjNk7PZV4QQbq83+VHay0oJRmoilbBjqyYqrq+UOGKbF1UEVZwDGu3tUsChke09txi4FMx1VRUlT6T+df8RtxtpvrlOXZZZKkC1BwUDQyGdf1aM2e1uzVMH+REjmjJAmxFHuVxQcqIpXws1OD+Ew3CdjO7RBj9rnLaAq10qweABMG8TwKisF4zQWpmSBaejTVQoKQufXjqdC2bWxi1i0QzVRd5Z8y4cFLvvktKsGklmRiZUVQkWxpbt3sARKrSDD5EuiJfMbaL9uwN+J4TLzTTslkYbU/TFBlRnbqIEI6LNoL1gQqTdxR6ZGgZR0eWvKyvM+uZQw5FDzcVxHC13bPGYhc1s0vrkijbJUwq26vbOQVxfHsI6x5V324oXr0FjGZ2Iy6O1Mg6I3VFnJcZBZI1gtCsXQLBcTUF4X0H4lDQVfklfWIeZ9U1jbQTTzwptv148JlgBzqZ+qygNm91sqBcSIZOCVQv+y2otOoD1TdGfpvh9ABuD0NAEu4zwvrqYGSr/QQxLu1ohE1TamtS8fybykSmffK1g2X3BFuH55qT11A9cchakTdAxQBR1Ex5l22FyCNPv4JkQMvsWB0Sk7Wg6y9hVKURx7kkXJnQ/OyWk7NANjQhrBBvsUIVRZQ4vtrCbQ6VgJrlMxr8WD1nYbAtlxExlveaheBQk6skIqJMIlV4UTKbB83WjAfFK+q5/TTDWh0QrFW5rYaP7WVOhBHtxDDPanp/RPhqr2xCAYHpnYP5+v2kGxOFtCzsRbCWYDFNb1jYSPE5HK5SMEG/mywZHOuAUs6Da7saTbqFMW0PBL64IRrurs1JCWgu7IljovnItyRynaWG1SXsWti0tx4G9izYLFUzX9VpGjFzoD2VJpQk8WbiXttcDLjkU/+CSEJQCh9G91edlC2YsTH6ygo+FgKo3FqP4BkerC2X9A5B1WGtho9XsljFl294rXXIoXN/aSZf6ULiaZuORTfxfpEFc9nXFhxY2yzWRzXZa5zgeHT3+RClgRYIOOhg+3F6hkSGXzjrBIDsM6dQ6OqWvXLK32KwTjIyCPmSCsjnxl3Qr9E6wxbDN1BrjWDVF/qJ27tdhp4IZKVT4HuWbfjfrvW3uKl3AKPvMGRy0KJHO544jWUJUiVWOehgJ1AubM8GEWoiBhfE+byS87Sp6X9PeuS5YY2FdDXuyXPrQJSH+cC8idTsO6jDS5WTfEewAP+80wYpuNFdlQsmGTfJyYEEFRdcvSmhXV4REZb8zC+uXRt1DWcJEzfqb0q9o71wVrHXJ2fbt4rCPLUz6HRP9fYJLEnepBiQ1LI2U4R1gY3PinDWl1opDuty2501ssBnpV0YGdXszsIJjZbq9Kphc1qmJLSgq2qQLJ7ZftjQaCfZ+KZi2KNrDcqKfHfiAYLIZSPouAewmsOQJ8/cSQo3Z3IwP63Aabd8rEKRt6+RycStqL8/nNqGwXFdz7mTVkVXv2xQ8TRnqSDAIcY1g8u2JgGG5BxUcbW1bxgInLV+1+L5nYdqi7A70586pZFcE08jZy4+CC7efAR50GGqUUSkI70L4KgUdGaVgD11bPnc4gyEulUtpbrfPYC/gdxgHK/hGwiXri3/51qh1yRQcEIYRQUy7vZiNSeUpXtXeuWthmj4knSDP9LsxrBDi7DH6kAv7BjOUFdVsfxCy+VUPRVVQpVzjJnW8XuwYzEh2vjRT2MPAOBQwUGPRujnxnIr+TZFNVegCl0yt3cGFYVo6/D3n3k5Tkr26gXjVwrTFySvZfXYvS87i8zbwZtw9hbXkb/jP3202p294jNWm2KxOpLZWxbqqil18PnB8bDySoPkZBJNX5e/zYnf66Iz4ySg21cKGWr+h6OrWh76tgCp/WB2Chf1+7qIfZsde8d7qhKkWBtvLk0sIypuV/gVBOnS7vkWw1d8gmLaAFd6Y7dtDgsUzY8noctjQuuRX8ldYmOwh2icLX3vxgGCxY0esa7oqvkewV3+E9YxgYGR6XQwR1lfd/g8E800oWs3xIifU+Pbm8New40w8lwxvMjnod1amp/P+UtSQDwSzDoxFJyuSjV1+9h32RxhH+9XP5DkLayTry56N/rFgkMjjn/CJ4hMWNlReb21lncht//wnmzcszNTSQTHWeGUgULAbFma+pYWR9m/W2vaY6ieiYFcsTNcq+cEN6d6siUYjtLBbgpVNnZ5EuvyyQtfaIckDZcVPYZpgXfPSyG0homPXucjfULCrgpnRUAWOPr43arQw7XrQ15fX5sgfWRr9FCaWFfqVr6o2zasQFOxq4fpmn3d29+6tN98/ksmF60Lzxm3P5Ni9avvnBVss8zWQ1+dvh3SevW/8IAj8zTzT7rz5/pHc+SjYXCgu95vmQn6C4QhQ694nmz+SJ7+ivvhMGAWbriEKhoJdwbJ180X8K4Kxi78GfQ72gj/E+j8Q+y/jT98KgiAIgiAIgiAIgiAIgiAIgiAIgiAIgiAIgiAIgiAIgiAIgiAI8s/yH4D4wnaFN3BGAAAAAElFTkSuQmCC;" vertex="1" parent="1">
          <mxGeometry x="2517" y="269.995454545455" width="314.99" height="172" as="geometry" />
        </mxCell>
        <mxCell id="HSzltY3X0y76gQs0_PpO-100" value="" style="shape=image;verticalLabelPosition=bottom;labelBackgroundColor=default;verticalAlign=top;aspect=fixed;imageAspect=0;image=data:image/jpeg,/9j/4AAQSkZJRgABAQAAAQABAAD/2wCEAAkGBxIPDw4QDRANDg0QEBUVEA4NDg8QDxAQFRYXGBUSFRUYHSggGBolGxYTIT0hJSkrLi4uGR8zODMtNygtLisBCgoKDg0OGxAQFy0mHyYrLTItLy4tKystLS0vKy0tLS4tLS8tKy0tLS0rLS0tLS0tLS0vLS0tLS8tLS0rLy0tLf/AABEIAN8A4gMBEQACEQEDEQH/xAAbAAEAAQUBAAAAAAAAAAAAAAAAAQMEBQYHAv/EADwQAAIBAgMDCAcHBAMBAAAAAAABAgMRBAUxIVGRBhITQWFxgaEUIiMyQlKxBzNicoKSwUOy0fBzwvGi/8QAGwEBAAIDAQEAAAAAAAAAAAAAAAECBAUGAwf/xAA3EQACAQMBBQUHBAEEAwAAAAAAAQIDBBExBRIhQXETUYGRsQYyQmGhwdEiQ+HwFDNSorIjYvH/2gAMAwEAAhEDEQA/AO4gAAAAAAAAAAAAAAAAAAAAABshvGoKU8TBayj4O/0Mad7bw1mvX0LqnN8ijPMIrTnPwsYk9r0I+6m/78z0VvJ6lCeZPqil3u5hz21L4YJdeP4PRWy5sozx038Vu5JGHPalxL4sdD0VCK5FzllSUnK7bStq77TY7IrVasp70m0sa8eJ5XEYxSwi/N4YoAAAAAAAAAAAAAAAAAAAAAAAAAIbtqQ2kssFKeKgtZLw2/QxJ39tDWa8OPoeipTfIoTzKK0Un5Iw57aoL3U39P75HoraXMoTzN9UYrvuzDqbcqP3YpdeP4PRWy5sozx038Vu6yMKptS4l8eOnD+T1VCC5FCVVvVt97uYU7iU/ebfXieigloeeeebqFt0jnle0YwRziu+ycEc4jeYwZrKqdqafXJt/wAL6HY7Fo7lspPWTb+y+iya+5lmeO4vDbGOAAAAAAAAAAAAAAAAAAAAAAAAADG5zO3MW+74W/yc7t+o0qce/L8sfky7RZyzGc45zfZm4I5xXeYwRcZJwCAAAARcEi4BMVdpLVuy72TGLlJRWr4eZD4LLNlpw5qSWiSS8D6JTpqnBQjoljyNPJ5eT0XIAAAAAAAAAABjOUOMlRoOVPZOUlFS15t73fBGTaUo1KmJaGFtCvKjRzHV8OhpscwrJ3Vatf8A5JO/ftN06NNrG6vI5yNxWTypvzZd0eUWIjrOM1unCP8AFmeMrKi+WDKhtG4jrLPVfjBfUeVs195ShLthJx8nc8JbNj8Mv79DLhtWXxQXg8fkvqPKui/fjVh2uKkvJ38jwls6qtGmZUNp0nqmi+o53h56Vqa/O3D+6x4StK0dYv19DIjd0ZaTXp6l9TqKSvFqS3xaaPBprVGQmnoeiCQAADE50/Wh3P8Ag5f2gf66a+T+xnWi4MxtznzMFwBcAgAAAgkXAIuAXeV0+dVjujdvw082jZ7Ho9pdR7o5f4+rPC5lu038zPnbGrABZYjNqFP7yvRi9zqR53DU9oW9WfuwfkRlGMxHLDCw92VSr2U6bX91jKhsyvLVJdX+MjJjMRy7X9LDt9tSol5JP6mTDZD+KfkgYzEcs8VL3eipfkhd/wD02vIyobLoLXL8fxgtgxeIzvE1PfxFbujNwXCNkZULSjHSC9fUskbRyEzerUnUoVZSqRjDnwlNuUo2aTjd7Wtq4Gr2pbQhFVIrHHDIkjcjTFS3x+FVanOnLSS13Pqfgz0pVHTmpI8q9GNWm4S5nPMRSlTnKE1aUXZrt/wdFCSlFSWjOTlTcJOMtUUi4SIbBZIi5JdI8gskTGTi7xbi98XZ8Q1ngy8eHFF3RznEQ92tU/U+f/dc8ZWtGWsF6ehkQuKsdJP19S/o8rMRH3lSqLti0/J28jwls6k9MoyI3tVa4Zf0OWUf6lGS7YTUvJpfUx5bLfwy80ZEb5c4lWtmcMTadNSUUrNTSTvr1PtRwntNSlRuYwl/tz5t/g3ez6iqU3Jd/wBilc5wzxcAXAIuALgkXAABABZYvP54WTjRjTcpRTcqik7K7skk1/tju/ZLZcatGdeeeLwvBfl48DWX1VqSijGYjlPip/1uYt1OEI+dr+Z2kLC3j8OepgbzZjMRi6lT72pUqf8AJOUvqzKhThD3YpdESUC5ZIgkskRcFkiCS6R5bJLJHSeRWU9BQ6SatVr2k76xh8MfO/j2HNbSue1qbq0j68zzk+JsRrioANY5YZfsWIgtqtGpbd8Mv48VuNps+v8AtvwNRtO3z/5V4/ZmqNm1NQkQ2SWSIJLpEXBZIgkskQ2CyRBJdIhsFkjPZIvZd8n/AIPmHtdLO0ekI+sn9zp9krFv4svzmDZgAXAFwCLgkXAAAuQ3gGoZjW59WpLq51l3LYvofadjWn+LY0qTXFRy+r4v6s0NeW/Uci2NoeaR5uSWSIBdIi5JZIi4LJEEl0jM8k8p9KxCUlejStKpufyw8WuCZhX9x2NLhq+C/PgRJ4R1I5Y8QAADxVpqcZRkrxkmmn1p6kxk4vKIlFSTT0Oc5ng3Qqzpy22fqyfxQej/AN67nSUKqqwUkc1WoulNwf8AUWh7FEiLgukQSWSPNwWSIJLpEXBZIgkskbDk/wBzDvl/cz5T7UyztOa7lFf8U/udTsxYto+Pqy9OeM8ggC4AuCRcAi4AuAUcZUcadSUdVFtd9jN2bRjXvKVOb4OUU+mdPHTxPOq3GDa7jT4q+yKbe5bWfb5SUVmTwvmaFRzoXFPL6stKcv1Wj9TVV9vbNo+/Xj4Pef8AxyZEbeo9Il1TyKo/elCK73J/74mnr+2ljDhThKXgkvq8/Q942U+bRYY3DOlNwk07bU11pnQbM2jT2hbKvTTSeVh6po8qlNwlustzYEJEXJLJEd12+pLa2wXSOrcmMq9Fw8YNLpZetVf438PclZf+nKXtx29VtaLgv78zHlLLMsYhUAAAAGC5WZb0tLpIL2lK72ayh8S8NeO8z7CvuT3Xo/Uwr2hvw3lqvQ0a5vDTJEXJLpEElkiGwWSIJLpEXBZIgkskbHlatRp91+LPkHtFLe2nWfzX0jFHV2Cxbx/vMurmlMsi4JAAAABFwBcAXBJ5iktEl3Fqk5VHmbb6vPqQkloSVJPNSoopyk7JK7fYj0o0Z1qkaVNZlJpLqyG0llmm4qu6k5TesnpuXUuB9w2fZQs7aFvDSK83zfi+JqJyc5OTKNzMCRBJdI2fkJlPTV+nmvZUHsvpKrquGvfzTWbUuezp9mtZen86eZSpLCwdGObMcAAAAAAAHPOUWXej1moq1KfrU9yXXHwfk0dFZ1+1p8dVqaS4o9nPho9DFGWeSRFwWSIJLpHlsFkiCSyRFySyRs2A+6p/kX0PjG2p720K7/8Ad/R4+x1losUIdEV7msMkXAIAAAAFwCLgC4JFwAAYblFi7RVJay2y/KtFx+h3HsXs3fqyvJrhHhHq9X4Lh4vuMS6nw3Ua+fSDCSIuSWSPVCjKpOMILnTnJRit7exESkoxcpaItodeyfL44ahTox281etL5pvbKXE4+4rOtUc3/UYkpZeS9PEqAAAAAAADG8oMt9JoSivvI+tTf4l1dzWz/wAMm0r9jUy9OZ416XaQxz5HOH27Huep0hqEjySWSIuSXSIBZIgkskQ2C2DaMKrU4LdFfQ+IbQlvXdaXfOf/AGZ11BYpRXyXoVLmIeouAACAAQBcAXBJFwBcA81KiinKWxJXb7EelGjOtUjSprMpNJdWQ2kss07FV3UnKb1k9Ny6lwPuWz7KFnbQt4aRXm+b8XxNVKTlJtlJszAkebklkjdPs9ym7li5rYrxo336Tn/1/caTa1zhKjHq/svv5HjWlj9JvZojHAAAAAAAAAABovLLLeiq9NBezqv1rdVTr468Te7Or78Nx6r0/g19zSxLeXM102RjpEXBdI8klkiLklkiJMItg2uGxJdh8IrS3qspd7b82dfFYikTc8iwuALgEXAFwACQAQALgGH5Q4q0VSWstsvyrRcfod17F7M36srya4R4R6vV+C4eL7jEup8N1GAbPpBiJEElki5y3BSxFanRp+9OVr9UY6yk+5XZ51qsaVNzlyJbUVlnYMHho0acKdNWhCKjFdi39px1SpKpJylqzAby8srFCAAAAAAAAAAAWuZYKOIpTpT0ktj+WXVLwZ60arpTU0VnFSjhnL8TRlTnKE1acG1JdqOphJTipLRmt3cPDKRYskQSWSIBZIJXaW9kSe7FvuLqOXg2s+BR0R1xFyW0gUquKhD3pxT3Nq/Az7bZl5c/6NGT+eHjzeF9TznWpw96SPVGtGa50GpLejxurSvaVOyrwcZdz7u/hwfgWhOM1mLPdzHLEXBIABAAB5qVFFOUtiSu32I9aNGdepGlTWZSaS6shvCyzT8VXdScpvWT03LqXA+57PsoWdtC3hpFeb5vxfE1km5SyykZgSIJLJHQvs/yjo6TxM169ZWp31VLf+p7e5I53a1zvz7KOi16/wAfkxa88vdRtxqDHAAAAAAAAAAAAABqHLjK9MTBbo1bbtIz/jgbjZlx+0/D7r7mNXh8RpxuTxSIBZI83JLJC4aTWGXReSzao1b1V2qO3z2HLU/Y7ZsZNtSa7nLgvlww/Ns2Dv6zWOHkWtXFTl705PsvZcFsN5bbLs7b/RoxT78LPnr9TwlVqT96TKJnlUjP5JC1K/zSb/j+D5T7Y1+02juL4YpeLzL0aNzYxxSz3sv7nKmaLgC4BAAAMPygxVoqmtZbZflWi4/Q7v2K2Zv1JXs1wjwj1er8Fw8X3GLcz4bqMDc+kmKkQSWSMlydyt4vEQpbej96q11U1rt3vYvExru4VCk58+XUipLcjk67CKikopKKVklsSS0SOQbbeWa09EAAAAAAAAAAAAAAFOvRjUhKE1zoSTUk+tPUtGTjJSWqIaycszbAyw9adKW3mv1ZfNB+7Lh53OqoVlWpqa/rMVxw8Fnc9iUiGwWSIJLpENgskQSWSPLZJdI2nBw5tOEetRV+/rPh21rjt76tU75PHRPC+iN/Rju00vkVbmvPUXAFwCLgHmpUUU5S2JK7fYj1oUZ16kaVNZlJpLqw3hZZqOJrupOU3rJ6bl1LgfdNn2ULK2hbw0ivN834viayT3nllIzCUjy2SWSOpcicn9Gw6lNWrVrSnfWMfgh4J372zltpXPbVcLRcF92YFepvSwtEbCa48AAAAAAAAAAAAAAAAAa5y1yrpqPTQXtaKbdtZU/iXhrx3my2bcdnU3Ho/UpOOeJz250J5pEAukRckskQCyRBJdI9UIc6cY75JeDe0xr2v/j21St/ti35LJ6U4b0kjaz4MjoCABcAXAFwDD5/irJU1rLbL8q0XH6HeexOzN+pK9muEeEer1fguHi+4xriXwmCufSjGSIJLJGe5GZR6ViU5q9Gjac76SfwQ8Wr9ye8wNo3PY0sLV8F92eVee5H5s6qcoa0AAAAAAAAAAAAAAAAAAAHL+U+V+i4iUYq1KfrUtyXXHwflY6iyuO2pZeq1/vzKYMQZhZIi4LJEElkiCS6Rd5RC9aP4U3/AB/JzXtbcdlsyazxk1H65f0TMq0hmqvkbCfITcHidWMbc6UY30u0rnvRtq9fLpU5SxrhN48kVcktWejwLC4B5qVFFOT2JK7fYj1oUZ16saVNZlJpLqw2kss1LE13UnKb1k9Ny6lwPu1hZQs7aFvDSKx1fN+L4muk955ZSMwlIJNtJJtt2SW1tvRIcFxZY69yZylYTDQp7OkfrVWuuo9V3LYvA5C9ue3quXLl0NVWqb8smVMQ8gAAAAAAAAAAAAAAAAAAAYjlPlXpWHlGK9rD1qT/ABL4fFbOG4y7K47Gqm9Hr/fkDlz4d+p1JZI8klkiCS6RFwWSKuFxLpS50bXtZp6NGv2nsyjtGh2NbOM5TWqa81o2tD2pTdOWUVK2Z1JfFzVugreepgWfsts2249nvPvn+r6e79D1lcVJcyzk73bu29+1s38YxgsRWEjzxk2ylHmxitbJLgj4Hd1lWuKlVaSlJ+bbNxFYSR6uY5YxOfYqyVNay2y/KtFx+h33sTszfqSvZrhH9Mer1fguHi+4xq8vhMHc+lGOkeSSyRtv2fZP0tZ4iovZ0XaF9JVX1/pW3va3Go2tc7lPso6vXp/P5Ma7qbsd1av0OkHNmtAAAAAAAAAAAAAAAAAAAAAABzvlzlPQ1umgvZVnttpGrq+Ov7jotmXHaU9x6r0/jTyLxNYubQ9EiAXSIbJLJEElkjzcFkitgoc6rTX4lwW1/Q122Lj/AB7CtV5qLx1awvqz1pRzJI2g+FG2PNSainKTskrt9iPahQnXqxpU1mUmkurIbwsmp4mu6k5TesnpuXUuB93sLKFnbQt6ekVjq+b8XxMBveeSkZhKRUwuHlVqQp01zqk5KMV2vf2FZzjCLlLREtqKyzsuUZfHDUKdGGkI7X1yk9spPvd2cZcVpVqjnLmaWpNzk5MvDxKAAAAAAAAAAAAAAAAAAAAAAAs83y+OJoVKM9nOWyXyyW2MvBntb1nRqKa5Ep4ZyLE0ZU5zp1FzZwk4yW5o6+ElOKlHRmSuJSuWLpEElkiLgskQSWSL/JIXqt/LF8Xs+lzkfbW47PZ3Z/75JeC/V6pGVbR/Xkz1z5MZ5ic9xNkqa1ltl3LRcfod97EbL36kr2a4R/THrzfguHi+4x68vhMJc+lngkebklkjfPs4yf3sXUW+FG+7Sc/+vhLeaHbF1pRj1f2X38jAvav7a8TezQmvAAAAAAAAAAAAAAAAAAAAAAAAABo/2g5R7uLprdGtbhCf0j+03mybn9mXVfdffzPejLkaQ2bwyUiCSyRFwWSPJJZIzOQw9WpLfJLgr/yfNPby4zWo0O5OXm8L/qzNto8GzJVJqKbexJXb7EcPb0J3FWNKmsyk0l4mS3hZNVxNZ1Jym9ZPTcupcD7zYWULO2hb09IrHV834viYTeXkpGYSkXeUZfLFV6dGGxzfrS+SC2yl4Lzsus8bitGjTdSXL1K1JqnFyZ2fC4eNKEKdNc2EIqMVuSVkcXObnJylqzRSk5PLKpUgAAAAAAAAAAAAAAAAAAAAAAAAAFLE0I1YTp1FzoTi4yW9MtCbhJSjqiU8PJx/N8vlhq9SjPbzX6svmg/dl4rzudjb1lWpqa5+psIPeWSyuex6JEElkiLgukbFlUObRh27eLuvKx8Y9q7jttqVO6OIrwXH65M+isQLXPcTZKmtZbZdy0XH6G+9h9l705Xs1wX6Y9eb8Fw8X3Fa0uRhD6WeKRFySyR0r7PMm6Gi8RUXta69S+saOq/dr3c05na112lTso6R16/xp5mqvau9LcWi9TbjUGCAAAAAAAAAAAAAAAAAAAAAAAAAAAADVeX2T9NQ6eC9rQT51tZUviXhr+7ebXZVz2dTs5aS9f508jIt54luvmc2udKbBIgkskRrsWr07yG1FZehdI2rZTht2RhHySPgbVS/vHuL9VSb85P+TP8AdRq2JrOpOU3rJ6bl1Lgfc7CyhZ20LenpFY6vm/F8TFfF5KRmFkjLcl8oeMxMKbT6KPrVn+BfD3t2XF9RiXtz/j0XLnouv8HlcVeypt8+R2KKskkkktEtEjjW8mgJAAAAAAAAAAAAAAAAAAAAAAAAAAAAABDW/QA5Jyryj0TEyhFexn61J9XNesf0vZ3W3nX2Nz29JN6rg/z4m2oT7SOeZhWzMMhI9UZ82UZNXUZJ232dzwu6LrUJ0ovDlFpPuysZ8C8eDMhmmZqpFQp3s9sm1buRyHs37LVLCu7i5aclwilx11ei5cF1Z7SnvcEYo7gokeWyS6R1vkVk3omGTmrV61p1L6x+WHgnxbOR2lddvV4e6uC+78fTBorut2lThotDYDXmKAAAAAAAAAAAAAAAAAAAAAAAAAAAAAAADCcrsn9Lw0oxXtqfr0u2S1h4rZ32fUZthc9hVTej4P8APge9vV7OfHTmcjZ15ukiLklkjyCyRBJZI2TkJk3pOJU5q9DD2lK+kqnwR4q/h2mt2pddjR3V70uHhzf2/wDhi3tbs6eFq/6zq5yZogAAAAAAAAAAAAAAAAAAAAAAAAAAAAAAAAAAcv5f5N0FfpoK1HENt20jW1kvH3v3HUbKuu1p9nLWPp/Gnkbiyq78d16r0NVubUzkiCSyRMIOTUYpylJpRitZSbsku1sNpLL0JbSWWdm5N5SsHhqdJWc/eqyXxVH7z7tEuxI4u8uXcVXPly6HO3FZ1ajl5dDKGKeAAAAAAAAAAAAAAAAAAAAAAAAAAAAAAAAAAALDO8sji8PUoz2c5erL5JrbGXHyue9tXdCqqi5eh60arpzUkcXxFGVOc6dRc2pCTjKO6SdmdrCUZxUo6M6OLUkmtCkWLG5/Zxk3SVZYqovUovm0r/FVa2y/SnxfYabbF1uQ7GOr16fz/dTW7Qr7sezWr16HSTmjTgAAAAAAAAAAAAAAAAAAAAAAAAAAAAAAAAAAAAA5/wDaTktnHGU1sdo17LTqhUf9v7ToNj3X7En81919/M22z6/7T8Px9/M0rA4SderTo0lepUlaK6lvk+xK78Dd1akaUHOWiNjOahFylojteV4CGGo06NP3KcbX65PVyfa3d+JxNetKtUdSWrObqVHUk5PmXR5FAAAAAAAAAAAAAAAAAAAAAAAAAAAAAAAAAAAAAARKKaaaTTVmntTW4J44oFtg8to0W3Qo0aTl7zpUoQb77I9alerUWJyb6tsvOrOfvSb6sujyKAAAAAAAAAAAAAAAAAAAA//Z;" vertex="1" parent="1">
          <mxGeometry x="2801" y="279.995454545455" width="178.36" height="176" as="geometry" />
        </mxCell>
        <mxCell id="HSzltY3X0y76gQs0_PpO-101" value="&lt;div&gt;&lt;b style=&quot;&quot;&gt;&lt;font style=&quot;font-size: 24px;&quot;&gt;Website Frontend&lt;/font&gt;&lt;/b&gt;&lt;/div&gt;&lt;div&gt;&lt;br&gt;&lt;/div&gt;" style="text;html=1;align=center;verticalAlign=middle;resizable=0;points=[];autosize=1;strokeColor=none;fillColor=none;" vertex="1" parent="1">
          <mxGeometry x="2624" y="480.995454545455" width="220" height="55" as="geometry" />
        </mxCell>
        <mxCell id="HSzltY3X0y76gQs0_PpO-102" value="&lt;div&gt;&lt;span style=&quot;font-size: 16px;&quot;&gt;GET /user/info&lt;/span&gt;&lt;/div&gt;&lt;div&gt;&lt;span style=&quot;font-size: 16px;&quot;&gt;&amp;nbsp;GET /user/premium&lt;br&gt;&lt;/span&gt;&lt;/div&gt;&lt;div&gt;&lt;span style=&quot;font-size: 16px;&quot;&gt;GET /user/incidents&lt;/span&gt;&lt;/div&gt;&lt;div&gt;&lt;span style=&quot;font-size: 16px;&quot;&gt;GET /user/badges&lt;/span&gt;&lt;/div&gt;&lt;div&gt;&lt;span style=&quot;font-size: 16px;&quot;&gt;&lt;br&gt;&lt;/span&gt;&lt;/div&gt;" style="text;html=1;align=center;verticalAlign=middle;resizable=0;points=[];autosize=1;strokeColor=none;fillColor=none;" vertex="1" parent="1">
          <mxGeometry x="3338" y="394.995454545455" width="162" height="108" as="geometry" />
        </mxCell>
        <mxCell id="HSzltY3X0y76gQs0_PpO-108" style="edgeStyle=orthogonalEdgeStyle;rounded=0;orthogonalLoop=1;jettySize=auto;html=1;entryX=0;entryY=0.5;entryDx=0;entryDy=0;" edge="1" parent="1" source="HSzltY3X0y76gQs0_PpO-104" target="HSzltY3X0y76gQs0_PpO-7">
          <mxGeometry relative="1" as="geometry" />
        </mxCell>
        <mxCell id="HSzltY3X0y76gQs0_PpO-104" value="" style="shape=image;verticalLabelPosition=bottom;labelBackgroundColor=default;verticalAlign=top;aspect=fixed;imageAspect=0;image=https://www.unimedia.tech/wp-content/uploads/2023/11/AWS-Lambda-e1701195645609.png;" vertex="1" parent="1">
          <mxGeometry x="1038" y="-130" width="345.23" height="121" as="geometry" />
        </mxCell>
        <mxCell id="HSzltY3X0y76gQs0_PpO-109" value="&lt;div&gt;&lt;b style=&quot;&quot;&gt;&lt;font style=&quot;font-size: 20px;&quot;&gt;3rd Party API Data&lt;/font&gt;&lt;/b&gt;&lt;/div&gt;" style="text;html=1;align=center;verticalAlign=middle;resizable=0;points=[];autosize=1;strokeColor=none;fillColor=none;" vertex="1" parent="1">
          <mxGeometry x="1122" y="-2" width="192" height="36" as="geometry" />
        </mxCell>
        <mxCell id="HSzltY3X0y76gQs0_PpO-110" value="" style="shape=image;verticalLabelPosition=bottom;labelBackgroundColor=default;verticalAlign=top;aspect=fixed;imageAspect=0;image=data:image/jpeg,/9j/4AAQSkZJRgABAQAAAQABAAD/2wCEAAkGBxASEBUSExESFhUWFRYYGBgSFhYQEhITFhIWFxcVFxYYHSggGBolGxUVITEhJSkrLi4uFx8zODMtNygtLisBCgoKDg0OGxAQGy0mICU1LS8rLS0tLS0tLS0rLS0tLS0tLS0tLS0tLS0tLS0tLS0tLS0tLS0tLS0tLS0tLS0tLf/AABEIAIIBgwMBEQACEQEDEQH/xAAbAAEAAwEBAQEAAAAAAAAAAAAABQYHBAMCAf/EAEAQAAEDAgMEBgUKBgIDAAAAAAEAAgMEEQUGIRIxQVEHE2FxkaEiUoGx0RQWIzJCU3KSweEVM1RiotJDgrLC8P/EABoBAQADAQEBAAAAAAAAAAAAAAAEBQYDAgH/xAAxEQACAgEDAgQFBAIDAQEAAAAAAQIDBAUREiExEzJBURUiUmGRFHGBoUKxIzPR4TT/2gAMAwEAAhEDEQA/ANxQBAEAQBAEAQBAEAQBAEAQBAEAQBAEAQBAEAQBAEAQBAEAQBAEAQBAEAQBAEAQBAEAQBAEAQBAEAQBAEAQBAEAQBAEAQBAEAQBAEAQBAEAQBAEAQBAEAQBAEAQBAEAQBAEAQBAEAQBAEAQBAEAQBAEAQBAEAQBAEAQBAEAQBAEAQBAEAQBAEAQBAEAQBAEAQBAEAQBAEAQBAEAQBAEAQBAEAQBAEAQBAEAQBAEAQBAEAQBAEAQBAEAQBAEAQEHjuZY6V7WvjedoXBba2+1tSpVGLK5NpohZObHHaUk+pGfP+n+6l/x+K7/AA2z3RF+MVfS/wCizYdWNmibI29nC+u8dhUGyDhJxfoWdVisgpL1OleDoReO45FStBfclx0a220eZ14LvRjyue0SNk5UKFvIhPn/AE/3U3+PxUr4bZ7og/GKvpZPYJizalm21jmi+m3a57RY7lDuq8KXFvcsMe9XQ5pNL7kiuR3IzE8epqfSSQX9VvpO8Au9WPZZ5URrsuqnzsr8/SBGPqQvd+Jwb8VMWmy9ZFfLWIf4xbPNnSCONOfY+/8A6r69MfpL+j4tZXrD+zvpc80rvrCRneNoeS5S061dtmd4atQ++6J2hxKCYfRyNd3HXw3qJOqcPMidXfXZ5HudE8oa0uO5oJPcBdeIrd7I9ylxTbKn8/6f7qb/AB/2Vh8Ns90VXxmn6X/X/o+f9P8AdTf4/wCyfDbPdD4xT9L/AK/9Hz/p/upv8f8AZPhtnuh8Yp+l/wBf+nRT55pHGzusZ+Jtx5XXiWn2rtszpDVqJd90WCkq45W7Ubw5vNpuoc4Sg9pIsIWRmt4vdHuvJ7CAIAgCAIAgCAIAgCAIAgCAIAgCAIAgCAIAgCAIAgCAIAgCAICodI9JtQMkG9jrHud+4CsdNntY4+5U6vXvUp+xnauTOGl9HtTtUuz6jiPYdVRZ8drd/c0+lT5Y6XsWKrqWxsc95s1ouSokYuTUUT5zUIuT7GRY5ij6mZ0jt25o9VvALRUUqqCijI5WRK+xzfb0PvAMKdUShuuyPrHs5LxlXqqH3fY64WK77Psu5rNFStjYGtFgAs+2292auKUVsim5tzaWkwwHUaOeOB5N+Ks8TC3XOf4KXP1Lj/x1/wAsopcSbkkk8TqSrbZLoig3b6yPpjCdwJ7hdfG0u57jGUuy3PowP9R3gV85x90evCs+l/g+CF6R4aa7lx6OaMmR8vIbI95/RVepWdofyXej0+az+CzZyquropDxcA0f9jZQ8KHO5IsNRt8PHkzJ7rQmS3F18G4uvp9C+AlMuYs+mma4E7BIDm8COfeuGTSrYNevoSsLIlRanv0fdGvNcCARxWcNefqAIAgCAIAgCAIAgCAIAgCAIAgCAICrZ7xeSCOMRPLXOcdRYnZA3a9pHgp2DTGyT5Lois1PJnTFcHs2U350Vv8AUO8G/BWn6On6Sl+IZP1/6NGyzNI+mY6Rxc4i5J3m/cqPIUVY1HsaXFcnVFzfUlVxJAQBAEAQBAEAQBAR+P0nW00rObTbvGo9y60T4WKRwya/EqlExxaUxpdOjWos+WPmA4ezQqs1OPSMi70afWUP5PHPeO9Y/wCTsPoNPpEfaeOHcF6wMfivEl3fY56pmc5eFHsu5VqWndI8MaLkm37qfOcYRcpFZVVK2SjH1NXy5hDaeIC2vE8ys7dc7Zcma7Hx40wUYnHnbGTBDsNP0klwObW8T+i74VHiT3fZEXUsnwa9l3ZmBV6ZhkzlvAnVL7n6g3nn2KHl5XhLZdywwMLx3yl2NIocGhiaAGBUk7JTe8maSFUILaK2Oo0cZ+wF43Pexzy4RA7fG3wXpTkuzPLrg+6R6UGHxwgiNoAJvYaJKcpPeTPsIRgtorYqnSXVWZFFzJce4aDzKstMh8zkU2tWbQUPcoStyg36GjZJwphpg57QS4k6qhzbG7Wk+xqdNpUaE2u/UnzhMB/42+CiKcl6k9wi/QzbOOHsgqi1gs0tDrcid6vcKyU6vmMvqVMa7vl9epBqYQP2Nqw7+Sy/qj3LLS8zNvDyo6CV5PRC12aqOI2Mu0RwYNrz3KVDDumt0iFbqFFb2cuv2OWPO9GTvkHez4Fe3p9y9jmtVx36v8Exh+KwTj6KRruwaOHsOqj2Uzr8yJdWRXavke52rkdggPl7wBckADidAF9Sb6I+NpLdkFV5voozbrC4/wBg2vPcpUMK6Xp+SDZqWPB7ct/2PKLO1E422nt/E3TyXp4FyPMdVx29t/6JuhxCGYbUcjXDsOo7xwUWdc4PaS2Jtd0LFvB7nSvB0CA4sQxWCAXlka3sOrj3AarpXTOzyo425FdS3m9iHfnijB3yHuZ+6krT7n7fkhvVcder/B6Q5zonfbc38TSPcvjwLl6HqOp48vXb90S1JiUEv8uVju4i/go86pw8y2JcLq5+Vpn7iOIRQM25XbLb2vYnX2L5XXKx7RQtuhUuU3sjNs64qyonaY3bTGssDYjUm53q7wqXVB8l1M5qWRG61cH0SIBoFxfdfXuUx77dCvSTfU0+izPQsjazrhoAPqv5dyoJYd7e/H/RqY6hjJJciepahsjA9hu1wuDqLjuKjSi4vZk2E1OKlHsz1Xk9BAEAQBAEAQBACgMbx2k6qplZwDzbuOo960uPPnWmY7Lr8O6UTzw6vfA4uYbOLS2/K/Ffbao2LaR5pvlS249+xynXvPmV07HLuaFkrAOrb1rx6R58ByVHm5HiS4rsjTadieDDlLzMuCglkZLm+v66reb+i07De5u/zutDh1+HUvv1MlqNrtvfsuhExRlzg0byQB3lSJS4ptkWEXOSivU17AMPbBC1oHDXvWatsdk3JmyoqVUFBehJLmdQgCAIDL8/VO3WFvBjQ327z71e6fDjVv7mX1abnft7FdY25A5kDxU1vZblfGO7SNkweIRwMbcaNHuWYm3KTZta4qMFFH3X4lDC0ukka0Dt1PcOK+11Tse0UebboVreT2Mmx3ETUTvltYHRo5NGgWhx6vCrUTJ5V7utc/x+x6Zfw5087WgeiCC49nJeMq5V1v3fY6YOO7rV7Lua4LMbqbADUncAAs8urNY2kt2ZrmnND53GOMlsQNtNDJ2ns7Fd4uGq1yl3M1nahK1uFfl/2VqynlZsgvgPSCZzHBzHFrhuI0IXyUVJbM9QnKEuUX1NVyrjPymDaNttp2XW58/as/lUeFPZdn2NXhZPj17vuu5K1VQ2NjnvNmtFyexcIxcnsiVOahFyl2RlmY8xyVTyAS2IHRo49ruZV9jYsalv6mWzM6V8ml0j7EIpZA2QQ+nRQ1skLw+Nxa4ctx7COIXOyuNi4yR0qulTLlB7Gt4FiYqIGyjQnRw5OG8LO31eFNxNdjXq6tTRG5wzB8mYGMt1j939o9Zd8PG8WW77IjZ+Z4Edo92ZlPM57i5zi5x3km5KvIxUVsjMznKb3k9zzXs8BATOUIC+rjt9n0vBQ86XGlk/TIcshfYnukqr1iivzefcP1UXTYd5E3WbfLD+SkK1KMID6jZtEN5kDxXyUuKbPUYc5KPubNhcGxCxvJoWYnLlJs2lceMVH2OteT2EAQBAEAQBAEAQGZ9IQZ8qBaQXFg2gOBG7yV5p2/hbMzWrKPjJp9dupWFOKsseSsJbPKXO3Mtp281Az7nCKivUtdKx42Tc36GnMYALBUhpDxxCfYie/wBVjj4BeoR5SSPFsuMHL2MVLiTc7zr7StRtt0MTvv1ZNZPpOsq2cm3Kh50+NLXuWGl1c8hP2NXAVCako+ccxzw1HVxP2Q1ovoD6R149llaYeLCdfKSKTUM2yu3hB+hBfO6u+9H5Qpn6Kn2IHxLJ9/6JDAcx1ktRGx0l2k6jZAuBvXDJxqa63JIk4ebfbcot9PU0VzrC6pjQN7GL4nU9ZNJJ6z3H2X08lp6o8YKP2MZdPnZKXu2cq9nIa819PmwXwdT3oo2OeGvfstJ1Nr2XiyUlFuK3Z2phCU0pvZGsYHhUUEY2LG4vca37b8VnLbJTlvLua6imFUFGHYhekHFTHEIWnWTV34Bw9pUzT6eUub9Cv1XI4QUF6/6M6V0ZwvOUcsNLBLKLk6gHgO7mqbMy25cIPoaLT8CMYKya6v8AoncYy7BJC4BgDg0lpG8EDRRqb5wmnuTcjGrsg00ZSFozHouHRvMRNI3gWg+0H91Wamvliy60aXzyR79ImKnabTtOg9J/f9kfqvOnU97H/B71bIfSpfyUhreAVo3t1KJRfZGiZYyuxrA+RoLjz4dgVFk5crJbReyNTh4EKoJyW7PbNeX4TTPka0Ncxu0COIG8H2L5iXzjYlv0Yz8aE6nLbqjNVfmXRfujWY7ErOAcD4j9lT6kvmTNDo8v+OUfuVrN9SX1st9zTsjsDf3up2HBRpRV6hNzyZfbocOFRMfMxryA0uFydAul7lGtuPc5Y0Yytip9jVafBqcNADGkdgFlnXZNvqzWxrgl0SPyTAKZ2+NvgF9V1i7Nnx0VvvFfgUGAwQv22NANrL7O6c1tJ7nyvHrre8Vsc+aKKDqZJnsBc1hsTvvuHmV0xpT5qEWcsuNarlOSXYyhaEyJa8i4SyYyOkaCBYC/NVuoXSjsosutKx4z5Skt/QuLMuUwIIjAINxoqx32NbOTLlY9Se6iiWAXI7H6gCAIAgCAIAgCAiMy402lhLt7zowczz7gpGNQ7p7enqRMzKVFe/r6GTTzOe4vcbucbkneSVoopRjsjJTlKcuUu7PkhA1t0LHkKs2KsNO6RpHtGoUHUIcquXsWWk28b+PujT1RmmIfN0mzRTH+23iQP1UnEW90SJny448n9jJFoTIlw6N4ryyO5AeZPwVZqb6RRdaNHrJmhqoL8zbM+A1BlmqHbGzcnefqjQDdvVzi5dfGNaT3M9mYNrnK1tbfv/8ACqqyKctfR5S7U7n+q23tKrdSntBRLnR695ymXbMdV1VLK/jsEDvOg96rMeHO2KLjLs8OmUjHlpDHE9lbARVbdyQG23c1CzMqVLSiWWn4Ub1JyLD8wo/Xd4qF8Ss9kWXwin3ZCZkys6mYJA7abcA33gncpeLmO2XGS6kDN09UR5xfQrasCqNI6PK1z6dzHG/VusL8iL2VHqEFGzdeppdJtc6dn6MqWcqoyVknJtmD/qNfO6scOHGlfcqNRsc8h/boR+E0/WTxs5uHgut8+FbkccWvxLoxNkgjDWho4BZrubHbY8sSmDIZHHgxx8Gle61vNI52y4wbMVWoMUW7o5j+me7k23if2VZqT+WKLrR180mV7GqrraiWTm827gbDyCm0Q4VpFZk2eJbKR05WpOtqmN4D0j7FyzJ8Kn9+h306vxMhL0XU1xrbCyz5qyKzXMGUcx5t2fzG36qRix3tiRM2fGiTMiWjMii+dGsfoyu5kDwH7qm1J/MkaHR47Vyf3IHOmHuiqnuI9GQ7QPDXePFTcK1TqS9UV2pUSrucvRkCphXkhQY1Uw/y5XAcidpvgVxsx65+ZEirLuq8smWvBs9XIbUNAvpts3DvCrrtO2W9b/gtsfVk2o2r+S7scCAQbg+aq+xdJ79Sr9IlVs0oZxe8D2DUqfp8N7d/YrNWs40cfdmaq7M0adkKl2KUO4uJKoM6fK5/Y1Wm1cKF9+pZVEJ4QBAEAQBAEAQBAeFbVMijdI82a0XPwXqEHOSijxZOMIuUuyMkxzFX1Mxkdu3NHqt4BaGilVQUUZLJyJX2OT7eh0ZZwc1EouPQabnt7FzzMjwobLuzvp+I7p8n5UeudKERVRsNHNaR4WPuXzBs5VdfQanUoX7r1IihqDHKx4+y4HzUmyPODiRKZuFkZezNphkDmhw3EA+KzLWz2NmnutyGzq29DL3N/wDNqk4X/fEh6it8aRlC0Bky69GrxtyjjZp9mqqtST+Vl7ozXzIvyqi8Kx0g1WxSbPGRwb7Bqfcp2nw5W7+xWarbwo29+hmavTMmjdHdLswF/rOPgqLUJ8rdvY02k18aN/cdI9Vs07I/Xf5NF1606G9jl7HjV57VKPuzOVdGcNLyBS7NNtcXEn2cFQ50+Vz+xqdMr4Y6+/UtChlgVPpFrGtpxFf0nuBtx2W6kqw06tuzl7FTq9qjTw9WzOFdGcNB6N4SInu9Z3uFlS6lLexL2Ro9HhtS37spOLOvPKf73e9WtK+RfsUeS/8All+5IZMaDWx3/u9y45//AEMk6X/+lfyauFQGpKxn7EhHT9UD6Umnc0ak/op2BVys5eiKzVL1Criu7M0V4ZlmgZFoyymkktq4OI7gNFS51nK5R9jR6ZVwx3L36lBedT3lXS7Gdfdln6PGg1Luxn6qu1L/AK1+5baP/wBsv2NKVMaIpPSPiQ2G04OpO07sA3BWmnVdXYyk1e/5VUvXuUJW5Qmp5JourpW3GrtT7Vncuzna2a3Aq8OiK/kl66ijmZsSNDh2rhCcoPeLJM64zW0luipYhkRp1ieR2HUKfXqM15luVdukVy6wexVMYwWamI6waHcRuKsaMmF3lKjKw54/WXb3I1SSIavkuZzqOO/AEewOICzuYkrpbGtwJOWPFsq/SRU3njj9Vl/a4/AKfpsdoORVaxPecY+xUWtuQOZA8SrFvZblQlu0jZsIgDIGN5NHuWYnLlJs2tceMFE7F5PYQBAEAQBAEAQAoDM86Y/18nVMP0bDw+27n3BXmFjeHHnLuzN6jmeLLhHsivUlO6R4Y0XJP/xUuyxQi5MrqapWzUF6ms5fwptPEGga8TzKzt1rsm5M19FMaYKEStdJdLpFLyLmn26hT9Mn1lEqdZr6Rn/BRSrcomavk2s62jjPFo2T/wBTZZ3LhwuaNbgWeJjxf8ElidL1sL4/WaR7baLjXPhNS9iRbWrIOL9TGZonMcWuFi0kEdoWmjJSW6MZODhJxfoe2HV0kEgkjdZw8CORXm2uNkeMj3TdOqfOLLXF0gyAelA0nscWjwsVXvTI79JFqtZlt1h/ZC5jzC+r2LsDA2+gN7k8VKxsVU77PfchZmbLJ23W2xC2UlkNLd7Gw5dpurpo2/2jxWZunzm2bLHhwrjH2RSukWq2qlsfqM83G/uAVtp0Nq3L3KLV7N7VH2RU1YFSWWgznNDG2NsUVmi2u1f3qDPT4Sk5NvqWleq2QioqK6HvJn2pIsI4h22cbeJXlabX7s9PWLvRIrddWyTPL5HFzjz4DkBwCm11xrXGK6FdbbO2XKb3Z80dM6V4Y0XJKWWRrjykKapWzUYmu4HQCCFrBwCzltjsk5M19NSqgoL0MzzXSGKrkFtCdododqr7EnzqTMvnVuF8kR9FVOikbIz6zTccu4rtZBTi4sj1Wyqmpx7ouR6QfR/kel+L0b+F1WfDOvm6Fz8ZW3l6lRxLEJJ5DJIbk+AHIDgFY1VRrjxiVF187pcpH7hOHunlawDjqeQXm+5VQcj3i48r7FFdvU16jpGsiEYGgFvJZ2Um3yNcoJR4rsY/ilMYpnxne1x9ovp5LS0zU4KSMbkQddriz7wjEn08olZqRoQdzgd4Xm6lWw4s9Y+RKixTiWuo6QDsWZBZ3NzrtHstqoEdM69ZdC1nrHy/LHqU2rqXyvL3klzjckqyhBQXGJTWWSsk5S7khlzCjUTAW9EG5P6KPl3+FDp3ZMwMV3Wbvsi/5mxQ0dO0sA2i4NAO628qpxaFdPaXYvc7JePXvHv6Feh6QJB9aBp/C4t94KmvTI+kitjrMl5onUOkFnGB35h8F4+GS+o6/GYfSyuZkzG+r2QWBjGm4F7knmSpmNiqnd77tldmZ0snptskQrGEkAC5JsO9Sm0luyEouTSRsGXaTqqdjOQ171mbp85uRsqK/DrjD2M9z0T8uffkzw2Vd4G3gozmpt/qXv8AYgo37Lg7kQfA3UtrdNECMuMk/YvI6QGBo+gdcD1hb3Kp+GPfzF78ajt5WXKjn242vtbaANt9rhVsls2i5hLlFM9l5PQQBAEAQBAEBXM5VVQIuqgjkJf9ZzRfZbyB5lS8ONfLlN9iBnyu4cak3v7GffwSq/p5fyq5/U0/UjPLCyPoZdMlYAYx1sjbPPA72jkqnNyfElxj2RfadieDDlLzP+i4KCWRCZxoXTUjmtaXOBDgBqSQfgSpOJYoWpvsQ8+p2UtR7mb/AMEqvuJPylXX6qn6kZz9FkfQy5dH8U0XWRyRvaDZw2gQL7j+irM+UJtSi9y50uu2uLjNbexcVXlsVfNGVW1B6yOzZOPJ3f2qbjZjq+V9UV2Zp8b/AJo9Jf7KPU4DVMNjC89rQXDyVrDLql6lHZgXwfl/BynD5/uZfyO+C6+LD3RxdFq/xf4PtmFVB3QS/lK8u+td5I9LFufaDJPDMs1LpGl0Za0OBN99geSjXZ1XFpPqTMfTbualJbI1GJtgByCozSmX5iw+qlqpX9RIQXaeifqjQeQV7j3VQrUXJGYy8a+y6UlFkd/Bqr+nl/Ku/wCpp+pEb9HkfQz8/g1V/Ty/lT9TT9SH6PI+hn2zA6o/8EntFl8eVSv8j1HByH/iyRocoVLz6Q2R4lR7NQrXl6kurSbZP52ki7YFl6KnGgu7iTqSqu7Ina95F3j4tdC2gibXAkEHmfL7apgI0kb9V36HsUnGyXS/sQ8zDjkR9muzM8q8v1UZsYnHtaNoeSuYZdU13M9ZgX1vbjv90cnyCb7mX8jvguviw90cHRb9L/BIYflqpkIuwsHNwI8lHtza4Lp1ZLo026x/Mtl9zQsAwNlOzQelxJ3kqmuvlbLdmhx8aFEeMSYXEkFZzZlkVP0jLCQDjucORU3Fy3T0fYrs7AWR80ekih1OB1TDYwv7wC4eStoZVUu0iiswb4PrE5xh850EMv5HfBdPFgv8kcVRa+ii/wAErhmVaiUjaaWN7Rr4KLdn1w8vVk6jS7bOs+i/s0TBsKZTsDWhU1lkrJcpGhppjVHjEhs74NPUCMxkEMv6J0JJtr5KVh5EKm+XqQdRxLL0uDXQo0+CVTDrC/vAuPJWscqqXaRRzwsiPTic/wAgm+5l/I74Lp4sPqRy8C3fbi/wdNPgVU86QvHa4Fo81ynlVQ7s714N8+0fyXHLWU+rIkl1dw5DuVXk5rsXGPRF3h6dGn5pdWXABQSyKjnfLz5iJohd4FnN9YcCO1WGFlKv5Jdip1HBld88O6KK/DpwbGGX8jvgrdW1tb8kUUse1Pbi/wAHTS4DUvItC8C+9wLR5rlZlVRXc71YF02vl/JrVHHsxtbyAHks83u9zVpbLY9l8PoQBAEAQBAEAQBAEAQBAEAQBAEAQBAEAQBAEAQBAEAQBAEAQBAEAQBAEAQBAEAQBAEAQBAEAQBAEAQBAEAQBAEAQBAEAQBAEAQBAEAQBAEAQBAEAQBAEAQBAEAQBAEAQBAEAQBAEAQBAEAQBAEAQBAEAQBAEAQBAEAQBAEAQBAEAQBAEAQBAEAQBAEAQBAEAQBAEAQBAEAQBAEAQBAEAQBAEAQBAEAQBAEAQBAEAQBAEAQBAEAQBAEAQBAEAQBAEAQBAEAQBAEAQBAEAQBAEAQBAEAQBAEAQBAEAQBAEAQBAEAQBAEAQBAEAQBAEAQBAEAQBAEAQBAEAQBAEAQBAEAQBAEAQBAEAQBAEAQBAEAQBAEAQBAEAQBAEAQBAEAQBAEAQBAEAQBAEAQBAEAQBAEAQBAEAQBAEB//2Q==;" vertex="1" parent="1">
          <mxGeometry x="2631" y="-345" width="256.03" height="86" as="geometry" />
        </mxCell>
        <mxCell id="HSzltY3X0y76gQs0_PpO-113" value="&lt;font style=&quot;font-size: 16px;&quot;&gt;Extract meaningful features/metrics from raw data to feed into XGBoost&amp;nbsp;&lt;br&gt;&lt;br&gt;&lt;/font&gt;&lt;div&gt;&lt;font style=&quot;font-size: 14px;&quot;&gt;miles&lt;/font&gt;&lt;/div&gt;&lt;div&gt;&lt;font style=&quot;font-size: 14px;&quot;&gt;hard_braking_events_per_100mi&lt;/font&gt;&lt;/div&gt;&lt;div&gt;&lt;font style=&quot;font-size: 14px;&quot;&gt;aggressive_turning_events_per_100mi&lt;/font&gt;&lt;/div&gt;&lt;div&gt;&lt;font style=&quot;font-size: 14px;&quot;&gt;taligating_time_ratio&lt;/font&gt;&lt;/div&gt;&lt;div&gt;&lt;font style=&quot;font-size: 14px;&quot;&gt;speeding_minutes_per_100mi&lt;/font&gt;&lt;/div&gt;&lt;div&gt;&lt;font style=&quot;font-size: 14px;&quot;&gt;late_night_miles_per_100mi&lt;/font&gt;&lt;/div&gt;&lt;div&gt;&lt;font style=&quot;font-size: 14px;&quot;&gt;prior_claim_count&lt;/font&gt;&lt;/div&gt;&lt;div&gt;&lt;font style=&quot;font-size: 14px;&quot;&gt;car_value&lt;/font&gt;&lt;/div&gt;&lt;div&gt;&lt;font style=&quot;font-size: 14px;&quot;&gt;car_sportiness&lt;/font&gt;&lt;/div&gt;&lt;div&gt;&lt;font style=&quot;font-size: 14px;&quot;&gt;car_type&lt;/font&gt;&lt;/div&gt;&lt;div&gt;&lt;font style=&quot;font-size: 14px;&quot;&gt;car_speeding_interaction&lt;/font&gt;&lt;/div&gt;" style="text;html=1;align=center;verticalAlign=middle;whiteSpace=wrap;rounded=0;" vertex="1" parent="1">
          <mxGeometry x="2141" y="-217" width="273" height="256" as="geometry" />
        </mxCell>
        <mxCell id="HSzltY3X0y76gQs0_PpO-114" value="&lt;span style=&quot;font-size: 16px;&quot;&gt;Stream data quickly, and hold for processing on backend.&lt;/span&gt;" style="text;html=1;align=center;verticalAlign=middle;whiteSpace=wrap;rounded=0;" vertex="1" parent="1">
          <mxGeometry x="1680" y="-209" width="273" height="67" as="geometry" />
        </mxCell>
        <mxCell id="HSzltY3X0y76gQs0_PpO-122" value="&lt;span style=&quot;font-size: 16px;&quot;&gt;Use XGBoost to allow for complex multi-X to Y regression for risk score&amp;nbsp;&lt;/span&gt;" style="text;html=1;align=center;verticalAlign=middle;whiteSpace=wrap;rounded=0;" vertex="1" parent="1">
          <mxGeometry x="2623" y="-205" width="273" height="67" as="geometry" />
        </mxCell>
        <mxCell id="HSzltY3X0y76gQs0_PpO-123" value="&lt;span style=&quot;font-size: 16px;&quot;&gt;Calculate pricing based off of risk score metrics and a relative cost multiplier&lt;/span&gt;" style="text;html=1;align=center;verticalAlign=middle;whiteSpace=wrap;rounded=0;" vertex="1" parent="1">
          <mxGeometry x="3158" y="-207" width="273" height="67" as="geometry" />
        </mxCell>
      </root>
    </mxGraphModel>
  </diagram>
</mxfile>
